<?xml version="1.0" standalone="no"?>
<!DOCTYPE svg PUBLIC "-//W3C//DTD SVG 1.1//EN" "http://www.w3.org/Graphics/SVG/1.1/DTD/svg11.dtd" >
<svg xmlns="http://www.w3.org/2000/svg" width="100%" height="100%">
<metadata>
Created by FontXChange 20110222 at Thu Jan 31 18:12:39 2013
 By Stephen Horner
Copyright (c) 1991 Adobe Systems Incorporated.  All Rights Reserved.ITC Avant Garde Gothic is a registered trademark of International Typeface Corporation.
</metadata>
<defs>
<font id="AvantGarde-Bold" horiz-adv-x="555" >
  <font-face 
    font-family="ITC Avant Garde Gothic"
    font-weight="700"
    font-stretch="normal"
    units-per-em="1000"
    panose-1="2 0 8 3 0 0 0 0 0 0"
    ascent="800"
    descent="-200"
    x-height="555"
    cap-height="740"
    bbox="-118 -271 1222 1017"
    underline-thickness="50"
    underline-position="-100"
    stemh=" 126 "
    stemv=" 166 "
    unicode-range="U+0020-FB02"
  />
    <missing-glyph />
    <glyph glyph-name="space" unicode=" " horiz-adv-x="309" 
 />
    <glyph glyph-name="exclam" unicode="!" horiz-adv-x="333" 
d="M252 740v-496h-171v496h171zM252 170v-170h-171v170h171z" />
    <glyph glyph-name="quotedbl" unicode="&#x22;" horiz-adv-x="463" 
d="M174 443h-107l-33 297h174zM395 443h-107l-33 297h174z" />
    <glyph glyph-name="numbersign" unicode="#" horiz-adv-x="618" 
d="M435 219l-24 -174h-113l24 174h-78l-24 -174h-114l24 174h-99l15 111h100l10 73h-100l15 111h100l22 158h114l-22 -158h78l22 158h114l-22 -158h111l-15 -111h-112l-10 -73h111l-15 -111h-112zM338 330l10 73h-78l-10 -73h78z" />
    <glyph glyph-name="dollar" unicode="$" horiz-adv-x="618" 
d="M381 811v-101c80 -19 141 -85 139 -190h-155c-1 15 -5 63 -55 63c-34 0 -54 -27 -54 -56c0 -51 47 -69 135 -103c124 -47 147 -140 147 -192c0 -17 -2 -152 -157 -203v-105h-135v101c-31 7 -82 18 -122 68c-25 32 -44 79 -44 120v11h171c1 -13 7 -71 59 -71
c25 0 57 20 57 59c0 34 -18 61 -92 89c-82 30 -189 69 -189 207c0 123 84 181 160 202v101h135z" />
    <glyph glyph-name="percent" unicode="%" horiz-adv-x="858" 
d="M36 574c0 100 81 181 180 181c100 0 180 -81 180 -181s-81 -180 -180 -180c-98 0 -180 80 -180 180zM147 574c0 -37 31 -69 69 -69c36 0 69 30 69 70c0 39 -31 69 -69 69s-69 -30 -69 -70zM461 166c0 100 81 181 181 181c99 0 180 -81 180 -181
c0 -101 -83 -181 -180 -181c-98 0 -181 79 -181 181zM572 166c0 -38 31 -70 70 -70c37 0 69 31 69 70c0 40 -32 70 -69 70c-40 0 -70 -32 -70 -70zM216 0l306 740h116l-307 -740h-115z" />
    <glyph glyph-name="ampersand" unicode="&#x26;" horiz-adv-x="758" 
d="M554 435h175l-57 -137c-14 -34 -32 -67 -56 -98l101 -104l-113 -111l-87 90c-28 -24 -102 -90 -221 -90c-139 0 -247 95 -247 215c0 110 84 167 137 203c-52 53 -70 107 -70 160c0 108 91 191 205 191s194 -82 194 -182c0 -97 -70 -147 -102 -170l87 -88zM406 184
l-118 119c-24 -19 -57 -45 -57 -86c0 -47 40 -73 85 -73c52 0 75 23 90 40zM319 491c22 22 46 46 46 82c0 26 -15 47 -43 47c-22 0 -45 -16 -45 -49c0 -35 25 -62 42 -80z" />
    <glyph glyph-name="quoteright" unicode="&#x2019;" horiz-adv-x="314" 
d="M244 740v-210c0 -99 -67 -121 -102 -121h-72v89h36c37 0 43 27 43 38v34h-79v170h174z" />
    <glyph glyph-name="parenleft" unicode="(" horiz-adv-x="473" 
d="M430 -91v-173c-266 100 -365 322 -365 509c0 186 98 408 365 509v-174c-82 -45 -180 -168 -180 -337c0 -158 90 -285 180 -334z" />
    <glyph glyph-name="parenright" unicode=")" horiz-adv-x="473" 
d="M43 580v174c266 -101 365 -323 365 -510c0 -186 -98 -408 -365 -508v173c82 45 180 168 180 337c0 158 -90 285 -180 334z" />
    <glyph glyph-name="asterisk" unicode="*" horiz-adv-x="670" 
d="M555 539l-131 -41l83 -110l-93 -70l-82 115l-79 -115l-93 70l86 110l-131 41l36 109l128 -48l-3 140h119l-7 -140l129 48z" />
    <glyph glyph-name="plus" unicode="+" horiz-adv-x="600" 
d="M220 333v173h160v-173h172v-160h-172v-173h-160v173h-172v160h172z" />
    <glyph glyph-name="comma" unicode="," horiz-adv-x="314" 
d="M244 170v-210c0 -98 -67 -121 -102 -121h-71v89h35c37 0 43 27 43 38v34h-78v170h173z" />
    <glyph glyph-name="hyphen" unicode="-" horiz-adv-x="281" 
d="M281 370v-163h-281v163h281z" />
    <glyph glyph-name="period" unicode="." horiz-adv-x="314" 
d="M244 170v-170h-173v170h173z" />
    <glyph glyph-name="slash" unicode="/" horiz-adv-x="593" 
d="M72 -100l265 840h184l-264 -840h-185z" />
    <glyph glyph-name="zero" unicode="0" horiz-adv-x="618" 
d="M33 267v206c0 214 173 281 279 281c95 0 273 -62 273 -281v-206c0 -206 -157 -281 -273 -281c-109 0 -279 72 -279 281zM222 478v-216c0 -44 14 -110 87 -110c87 0 87 88 87 110v216c0 23 0 110 -87 110c-75 0 -87 -70 -87 -110z" />
    <glyph glyph-name="one" unicode="1" horiz-adv-x="618" 
d="M414 740v-740h-189v581h-121v159h310z" />
    <glyph glyph-name="two" unicode="2" horiz-adv-x="618" 
d="M322 159h251v-159h-522v147c93 61 156 102 226 180c23 26 102 114 102 189c0 30 -17 72 -70 72c-74 0 -82 -74 -85 -117h-180c2 48 4 109 44 170c63 98 174 113 228 113c165 0 252 -110 252 -215c0 -157 -129 -277 -246 -380z" />
    <glyph glyph-name="three" unicode="3" horiz-adv-x="618" 
d="M33 221h191c4 -17 17 -68 85 -69c55 0 81 36 81 83c0 70 -72 75 -99 75h-67v139h32c17 0 93 0 93 74c0 32 -15 65 -52 65c-55 0 -57 -46 -58 -64h-186c3 177 152 230 253 230c144 0 232 -98 232 -202c0 -102 -71 -140 -98 -155c139 -47 139 -154 139 -179
c0 -129 -125 -232 -274 -232c-86 0 -183 33 -231 104c-33 48 -38 104 -41 131z" />
    <glyph glyph-name="four" unicode="4" horiz-adv-x="618" 
d="M341 130h-326v138l331 472h176v-462h82v-148h-82v-130h-181v130zM205 278h148v232h-2z" />
    <glyph glyph-name="five" unicode="5" horiz-adv-x="618" 
d="M52 321l64 419h409v-159h-264l-16 -101c20 11 42 22 100 22c175 0 247 -146 247 -248c0 -113 -85 -269 -284 -269c-159 0 -260 96 -282 213h190c17 -23 36 -35 52 -40c16 -6 29 -6 35 -6c54 0 100 44 100 98c0 48 -35 97 -101 97c-37 0 -75 -14 -97 -64z" />
    <glyph glyph-name="six" unicode="6" horiz-adv-x="618" 
d="M492 740l-163 -223l2 -2c9 4 22 4 36 4c108 0 233 -83 233 -251c0 -169 -131 -282 -287 -282c-93 0 -179 34 -229 100c-47 53 -63 129 -63 186c0 75 31 141 68 198l184 270h219zM207 255c0 -69 54 -103 100 -103c56 0 104 41 104 100c0 48 -36 101 -104 101
c-60 0 -100 -46 -100 -98z" />
    <glyph glyph-name="seven" unicode="7" horiz-adv-x="618" 
d="M65 740h482v-145l-260 -595h-208l273 581h-287v159z" />
    <glyph glyph-name="eight" unicode="8" horiz-adv-x="618" 
d="M463 407c109 -46 116 -155 116 -187c0 -126 -114 -234 -269 -234s-271 108 -271 234c0 28 5 139 116 187c-24 19 -72 58 -72 139c0 107 83 208 226 208c147 0 226 -106 226 -206c0 -83 -49 -122 -72 -141zM241 533c0 -51 41 -68 67 -68c35 0 69 28 69 70
c0 38 -33 66 -67 66c-35 0 -69 -27 -69 -68zM228 237c0 -45 32 -85 84 -85c48 0 78 45 78 84c0 40 -29 85 -81 85c-42 0 -81 -31 -81 -84z" />
    <glyph glyph-name="nine" unicode="9" horiz-adv-x="618" 
d="M128 0l163 224l-2 2c-7 -3 -18 -4 -36 -4c-106 0 -233 87 -233 251c0 169 131 281 287 281c93 0 179 -33 233 -97c49 -50 62 -119 62 -184c-1 -79 -33 -145 -71 -202l-184 -271h-219zM413 486c0 68 -54 102 -102 102c-54 0 -102 -40 -102 -99c0 -48 35 -101 102 -101
c62 0 102 46 102 98z" />
    <glyph glyph-name="colon" unicode=":" horiz-adv-x="314" 
d="M244 170v-170h-173v170h173zM244 555v-170h-173v170h173z" />
    <glyph glyph-name="semicolon" unicode=";" horiz-adv-x="314" 
d="M244 170v-210c0 -98 -67 -121 -102 -121h-71v89h35c37 0 43 27 43 38v34h-78v170h173zM244 555v-170h-173v170h173z" />
    <glyph glyph-name="less" unicode="&#x3c;" horiz-adv-x="600" 
d="M214 252l340 -115v-175l-508 214v154l508 214v-175l-340 -115v-2z" />
    <glyph glyph-name="equal" unicode="=" horiz-adv-x="600" 
d="M552 465v-160h-504v160h504zM552 201v-160h-504v160h504z" />
    <glyph glyph-name="greater" unicode="&#x3e;" horiz-adv-x="600" 
d="M46 137l340 115v2l-340 115v175l508 -214v-154l-508 -214v175z" />
    <glyph glyph-name="question" unicode="?" horiz-adv-x="592" 
d="M232 487h-183c-1 9 -1 13 -1 18c0 144 110 249 263 249c156 0 240 -113 240 -212c0 -92 -59 -146 -113 -196c-65 -60 -74 -80 -77 -111h-174c1 70 38 113 104 176c50 49 68 79 68 110c0 36 -17 62 -58 62c-67 0 -68 -58 -69 -96zM361 170v-170h-174v170h174z" />
    <glyph glyph-name="at" unicode="@" horiz-adv-x="748" 
d="M480 548h104l-37 -218c-2 -12 -6 -38 -7 -48c-1 -21 10 -29 27 -29c37 0 82 77 82 174c0 140 -109 238 -256 238c-177 0 -294 -148 -294 -302c0 -79 40 -288 293 -288c72 0 143 12 211 37l21 -92c-100 -36 -208 -36 -232 -36c-292 0 -395 226 -395 381
c0 199 152 391 392 391c210 0 354 -146 354 -328c0 -145 -93 -269 -196 -269c-53 0 -83 29 -98 72c-35 -57 -71 -72 -119 -72c-85 0 -154 75 -154 177c0 104 78 224 195 224c54 0 88 -28 99 -59h2zM450 385c0 36 -16 81 -66 81c-58 0 -101 -63 -101 -126
c0 -64 41 -87 75 -87c55 0 92 57 92 132z" />
    <glyph glyph-name="A" unicode="A" horiz-adv-x="758" 
d="M508 107h-257l-39 -107h-203l297 740h149l294 -740h-205zM379 510l-76 -253h155l-76 253h-1h-2z" />
    <glyph glyph-name="B" unicode="B" horiz-adv-x="647" 
d="M67 0v740h228c125 0 183 -12 237 -72c33 -34 44 -79 44 -122c0 -57 -26 -115 -86 -149c119 -42 122 -141 122 -172c0 -59 -23 -124 -68 -161c-68 -57 -117 -64 -242 -64h-235zM248 574v-115h67c26 0 80 0 80 59c0 56 -51 56 -80 56h-67zM248 301v-135h89c24 0 94 0 94 71
c0 64 -64 64 -94 64h-89z" />
    <glyph glyph-name="C" unicode="C" horiz-adv-x="832" 
d="M603 277h198c-43 -175 -195 -291 -374 -291c-232 0 -390 185 -390 385c0 189 146 383 388 383c232 0 356 -179 376 -295h-198c-21 55 -77 129 -179 129c-127 0 -198 -111 -198 -216c0 -112 76 -220 199 -220c118 0 166 99 178 125z" />
    <glyph glyph-name="D" unicode="D" horiz-adv-x="742" 
d="M57 0v740h245c83 0 231 0 327 -138c51 -70 68 -149 68 -230c0 -202 -100 -372 -381 -372h-259zM246 574v-408h81c141 0 181 98 181 203c0 42 -9 95 -36 137c-22 33 -60 68 -144 68h-82z" />
    <glyph glyph-name="E" unicode="E" horiz-adv-x="528" 
d="M67 0v740h411v-166h-230v-115h223v-166h-223v-127h230v-166h-411z" />
    <glyph glyph-name="F" unicode="F" horiz-adv-x="506" 
d="M67 0v740h404v-166h-223v-126h215v-166h-215v-282h-181z" />
    <glyph glyph-name="G" unicode="G" horiz-adv-x="854" 
d="M383 421h439c1 -13 1 -24 1 -39c0 -248 -190 -397 -395 -397c-224 0 -393 175 -393 388c0 221 178 381 396 381c177 0 329 -119 370 -262h-212c-29 52 -83 96 -163 96c-93 0 -202 -69 -202 -215c0 -155 110 -222 203 -222c94 0 157 47 177 119h-221v151z" />
    <glyph glyph-name="H" unicode="H" horiz-adv-x="754" 
d="M67 0v740h189v-278h242v278h189v-740h-189v296h-242v-296h-189z" />
    <glyph glyph-name="I" unicode="I" horiz-adv-x="323" 
d="M67 0v740h189v-740h-189z" />
    <glyph glyph-name="J" unicode="J" horiz-adv-x="578" 
d="M321 740h189v-447c0 -126 -14 -170 -46 -210c-50 -65 -134 -97 -209 -97c-18 0 -248 0 -249 252h201c2 -34 7 -86 57 -86c57 0 57 60 57 94v494z" />
    <glyph glyph-name="K" unicode="K" horiz-adv-x="707" 
d="M87 0v740h189v-333h2l209 333h198l-245 -369l261 -371h-221l-202 320h-2v-320h-189z" />
    <glyph glyph-name="L" unicode="L" horiz-adv-x="487" 
d="M72 0v740h189v-574h219v-166h-408z" />
    <glyph glyph-name="M" unicode="M" horiz-adv-x="915" 
d="M67 0v740h243l147 -487h2l145 487h244v-740h-174l6 554l-2 2l-158 -556h-125l-158 556l-2 -2l6 -554h-174z" />
    <glyph glyph-name="N" unicode="N" horiz-adv-x="759" 
d="M67 0v740h163l286 -465l2 2l-8 463h181v-740h-164l-282 450l-2 -1l5 -449h-181z" />
    <glyph glyph-name="O" unicode="O" horiz-adv-x="851" 
d="M64 519c39 96 154 235 361 235c228 0 391 -178 391 -384s-162 -384 -392 -384c-233 0 -389 185 -389 375c0 49 7 104 29 158zM224 372c0 -114 77 -220 204 -220c134 0 199 122 199 217c0 96 -65 219 -201 219c-131 0 -202 -112 -202 -216z" />
    <glyph glyph-name="P" unicode="P" horiz-adv-x="636" 
d="M67 0v740h242c137 0 188 -21 228 -54c58 -48 87 -121 87 -196s-31 -154 -78 -194c-51 -43 -101 -64 -216 -64h-82v-232h-181zM248 574v-176h77c36 0 118 0 118 89c0 87 -84 87 -125 87h-70z" />
    <glyph glyph-name="Q" unicode="Q" horiz-adv-x="866" 
d="M855 137v-150c-14 -1 -29 -2 -47 -2c-102 0 -154 37 -174 58c-86 -53 -159 -58 -208 -58c-239 0 -391 193 -391 381c0 194 150 388 389 388s395 -189 395 -378c0 -123 -42 -185 -61 -214c20 -19 53 -26 81 -26c5 0 9 0 16 1zM605 270c14 25 23 58 25 106
c0 131 -95 212 -205 212c-101 0 -180 -69 -200 -187c32 13 61 25 105 25c80 0 181 -41 275 -156zM510 170c-31 37 -93 118 -200 118c-29 0 -46 -5 -66 -12c37 -88 119 -126 180 -125c31 -1 61 6 86 19z" />
    <glyph glyph-name="R" unicode="R" horiz-adv-x="653" 
d="M67 0v740h234c130 0 180 -16 228 -53c61 -48 91 -126 91 -202c0 -85 -44 -210 -184 -233l201 -252h-216l-171 239h-2v-239h-181zM248 574v-206h67c111 0 124 70 124 106c0 67 -49 100 -122 100h-69z" />
    <glyph glyph-name="S" unicode="S" horiz-adv-x="573" 
d="M544 524h-187c-4 25 -10 72 -68 72c-33 0 -65 -23 -65 -58c0 -44 20 -53 153 -113c138 -62 173 -126 173 -212c0 -108 -62 -227 -258 -227c-214 0 -267 140 -267 235v24h188c0 -86 53 -101 77 -101c45 0 72 37 72 71c0 49 -31 61 -145 109c-52 21 -181 73 -181 212
s135 218 259 218c73 0 152 -27 200 -84c44 -54 47 -104 49 -146z" />
    <glyph glyph-name="T" unicode="T" horiz-adv-x="499" 
d="M156 0v574h-146v166h480v-166h-145v-574h-189z" />
    <glyph glyph-name="U" unicode="U" horiz-adv-x="698" 
d="M65 740h189v-447c0 -50 3 -141 96 -141c94 0 94 82 94 141v447h189v-447c0 -124 -27 -179 -74 -227c-48 -49 -115 -80 -207 -80c-54 0 -152 13 -213 79c-61 67 -74 119 -74 228v447z" />
    <glyph glyph-name="V" unicode="V" horiz-adv-x="722" 
d="M16 740h194l149 -519h2l150 519h195l-248 -740h-195z" />
    <glyph glyph-name="W" unicode="W" horiz-adv-x="981" 
d="M16 740h192l99 -481h2l109 481h145l107 -483h2l101 483h191l-196 -740h-166l-111 479h-2l-111 -479h-171z" />
    <glyph glyph-name="X" unicode="X" horiz-adv-x="759" 
d="M505 740h213l-226 -350l256 -390h-214l-160 262l-152 -262h-211l259 394l-229 346h214l127 -211z" />
    <glyph glyph-name="Y" unicode="Y" horiz-adv-x="647" 
d="M230 0v269l-221 471h205l110 -297l111 297h203l-219 -471v-269h-189z" />
    <glyph glyph-name="Z" unicode="Z" horiz-adv-x="499" 
d="M16 0v124l255 450h-255v166h467v-153l-236 -421h236v-166h-467z" />
    <glyph glyph-name="bracketleft" unicode="[" horiz-adv-x="473" 
d="M401 754v-174c-101 -5 -109 -76 -109 -134v-402c0 -60 9 -129 109 -134v-174c-36 2 -110 6 -186 60c-109 76 -111 195 -111 255v388c0 73 6 178 111 255c75 55 154 58 186 60z" />
    <glyph glyph-name="backslash" unicode="\" horiz-adv-x="593" 
d="M521 -100h-185l-264 840h184z" />
    <glyph glyph-name="bracketright" unicode="]" horiz-adv-x="473" 
d="M72 -264v174c101 5 109 76 109 134v402c0 60 -9 129 -109 134v174c36 -2 110 -6 186 -60c109 -76 111 -195 111 -255v-388c0 -73 -6 -178 -111 -255c-75 -55 -154 -58 -186 -60z" />
    <glyph glyph-name="asciicircum" unicode="^" horiz-adv-x="600" 
d="M222 375h-179l174 365h166l174 -365h-180l-76 223h-2z" />
    <glyph glyph-name="underscore" unicode="_" horiz-adv-x="500" 
d="M500 -125h-500v50h500v-50z" />
    <glyph glyph-name="quoteleft" unicode="&#x2018;" horiz-adv-x="314" 
d="M70 409v210c0 98 67 121 102 121h72v-89h-36c-36 0 -42 -28 -42 -38v-34h78v-170h-174z" />
    <glyph glyph-name="a" unicode="a" horiz-adv-x="704" 
d="M643 555v-555h-166v60h-2c-28 -54 -97 -79 -162 -79c-176 0 -279 138 -279 297c0 182 131 296 279 296c91 0 142 -44 162 -78h2v59h166zM200 276c0 -52 38 -140 138 -140c104 0 139 88 139 142c0 67 -46 141 -140 141c-95 0 -137 -80 -137 -143z" />
    <glyph glyph-name="b" unicode="b" horiz-adv-x="693" 
d="M60 0v740h166v-229c59 63 138 63 161 63c116 0 273 -83 273 -293c0 -200 -139 -300 -280 -300c-78 0 -138 38 -159 78h-2v-59h-159zM220 279c0 -77 52 -143 135 -143c85 0 139 69 139 142c0 72 -54 141 -136 141c-88 0 -138 -71 -138 -140z" />
    <glyph glyph-name="c" unicode="c" horiz-adv-x="652" 
d="M452 211h169c-30 -126 -141 -229 -291 -229c-168 0 -297 132 -297 297c0 163 127 295 293 295c147 0 266 -97 294 -233h-168c-18 38 -51 78 -120 78c-79 4 -132 -61 -132 -141c0 -81 53 -141 132 -141c69 0 102 40 120 74z" />
    <glyph glyph-name="d" unicode="d" horiz-adv-x="698" 
d="M638 740v-740h-158v60h-2c-14 -23 -54 -78 -166 -78c-168 0 -278 130 -278 297c0 188 134 295 275 295c98 0 145 -48 163 -66v232h166zM200 280c0 -86 61 -143 139 -143c104 0 142 85 142 143c0 67 -48 139 -140 139c-96 0 -141 -75 -141 -139z" />
    <glyph glyph-name="e" unicode="e" horiz-adv-x="646" 
d="M425 174h170c-27 -62 -66 -110 -113 -142c-46 -33 -101 -50 -158 -50c-159 0 -294 129 -294 294c0 155 122 298 291 298s293 -134 293 -303c0 -22 -2 -31 -4 -44h-416c10 -66 65 -105 130 -105c51 0 78 23 101 52zM196 339h252c-7 33 -40 95 -126 95s-119 -62 -126 -95z
" />
    <glyph glyph-name="f" unicode="f" horiz-adv-x="314" 
d="M66 0v429h-62v126h62v29c0 156 131 170 212 170h24v-125h-19c-14 0 -51 -5 -51 -52v-22h70v-126h-70v-429h-166z" />
    <glyph glyph-name="g" unicode="g" horiz-adv-x="693" 
d="M635 555v-488c0 -83 -6 -136 -33 -183c-43 -70 -144 -131 -281 -131c-193 0 -266 116 -277 195h192c24 -55 86 -55 97 -55c21 0 135 2 135 151v17h-2c-17 -32 -65 -79 -152 -79c-151 0 -280 114 -280 292c0 190 136 299 280 299c62 0 123 -22 153 -70h2v52h166zM200 280
c0 -89 64 -143 133 -143c80 0 136 58 136 138c0 89 -61 143 -135 143c-71 0 -134 -57 -134 -138z" />
    <glyph glyph-name="h" unicode="h" horiz-adv-x="632" 
d="M60 0v740h166v-236h2c28 50 84 70 143 70c53 0 116 -19 151 -61c47 -55 52 -104 52 -203v-310h-166v302c0 27 0 116 -89 116c-93 0 -93 -83 -93 -110v-308h-166z" />
    <glyph glyph-name="i" unicode="i" horiz-adv-x="286" 
d="M226 555v-555h-166v555h166zM226 740v-126h-166v126h166z" />
    <glyph glyph-name="j" unicode="j" horiz-adv-x="321" 
d="M253 555v-543c0 -129 -24 -216 -206 -216h-41v126h22c58 0 59 44 59 84v549h166zM253 740v-126h-166v126h166z" />
    <glyph glyph-name="k" unicode="k" horiz-adv-x="591" 
d="M66 0v740h166v-386h2l154 201h197l-209 -244l203 -311h-188l-157 267h-2v-267h-166z" />
    <glyph glyph-name="l" unicode="l" horiz-adv-x="286" 
d="M60 0v740h166v-740h-166z" />
    <glyph glyph-name="m" unicode="m" horiz-adv-x="969" 
d="M60 0v555h155v-59h2c13 23 49 78 153 78c49 0 116 -17 160 -99c34 54 91 99 176 99c39 0 101 -9 146 -56c52 -55 60 -92 60 -215v-303h-166v295c0 45 0 123 -85 123c-92 0 -92 -84 -92 -115v-303h-166v302c0 30 0 116 -83 116c-94 0 -94 -90 -94 -123v-295h-166z" />
    <glyph glyph-name="n" unicode="n" horiz-adv-x="632" 
d="M60 0v555h155v-59h2c17 27 52 78 151 78c53 0 112 -22 142 -48s64 -70 64 -179v-347h-166v303c0 39 0 115 -87 115c-95 0 -95 -82 -95 -116v-302h-166z" />
    <glyph glyph-name="o" unicode="o" horiz-adv-x="666" 
d="M34 278c0 136 97 295 299 295s299 -159 299 -295s-97 -295 -299 -295s-299 159 -299 295zM200 278c0 -81 61 -140 133 -140s133 59 133 140s-61 140 -133 140s-133 -59 -133 -140z" />
    <glyph glyph-name="p" unicode="p" horiz-adv-x="697" 
d="M60 -185v740h156v-61h1h2c33 42 88 80 173 80c197 0 271 -173 271 -302c0 -160 -112 -291 -270 -291c-100 0 -147 48 -167 69v-235h-166zM358 136c87 0 139 71 139 141c0 66 -48 142 -139 142s-139 -76 -139 -142c0 -70 52 -141 139 -141z" />
    <glyph glyph-name="q" unicode="q" horiz-adv-x="698" 
d="M638 555v-740h-166v242h-2c-19 -26 -62 -75 -168 -75c-157 0 -268 126 -268 285c0 192 127 307 279 307c108 0 152 -60 164 -80h2v61h159zM200 274c0 -58 45 -137 140 -137c87 0 138 74 138 140c0 59 -41 142 -140 142c-89 0 -138 -72 -138 -145z" />
    <glyph glyph-name="r" unicode="r" horiz-adv-x="363" 
d="M59 0v555h156v-59h2c14 27 43 78 139 78v-167c-77 -2 -131 -18 -131 -102v-305h-166z" />
    <glyph glyph-name="s" unicode="s" horiz-adv-x="499" 
d="M459 399h-163c-1 12 -3 42 -52 42c-35 0 -47 -22 -47 -37c0 -30 41 -47 85 -60c94 -26 194 -54 194 -174c0 -117 -103 -189 -226 -189c-84 0 -211 38 -226 184h165c7 -51 56 -51 63 -51c28 0 58 16 58 43c0 43 -41 48 -147 89c-72 23 -132 70 -132 145
c0 110 100 183 215 183c73 0 199 -29 213 -175z" />
    <glyph glyph-name="t" unicode="t" horiz-adv-x="351" 
d="M259 740v-185h80v-126h-80v-429h-166v429h-82v126h82v185h166z" />
    <glyph glyph-name="u" unicode="u" horiz-adv-x="634" 
d="M574 555v-555h-157v59h-2c-34 -71 -102 -77 -144 -77c-34 0 -114 8 -163 70c-44 55 -50 95 -50 171v332h166v-307c0 -38 0 -111 89 -111c48 0 95 25 95 113v305h166z" />
    <glyph glyph-name="v" unicode="v" horiz-adv-x="592" 
d="M575 555l-200 -555h-159l-199 555h172l106 -346h2l106 346h172z" />
    <glyph glyph-name="w" unicode="w" horiz-adv-x="850" 
d="M7 555h172l83 -345h2l91 345h140l92 -345h2l83 345h171l-170 -555h-154l-93 359h-2l-93 -359h-154z" />
    <glyph glyph-name="x" unicode="x" horiz-adv-x="630" 
d="M403 555h197l-187 -258l215 -297h-203l-111 172l-113 -172h-200l211 297l-187 258h199l90 -146z" />
    <glyph glyph-name="y" unicode="y" horiz-adv-x="574" 
d="M397 555h176l-278 -740h-176l88 213l-206 527h177l111 -322h2z" />
    <glyph glyph-name="z" unicode="z" horiz-adv-x="444" 
d="M211 126h217v-126h-413v114l234 315h-234v126h413v-126z" />
    <glyph glyph-name="braceleft" unicode="{" horiz-adv-x="554" 
d="M483 614h-55c-54 0 -58 -38 -58 -65v-209c-1 -95 -73 -102 -108 -105v-4c35 -2 107 -19 108 -92v-212c0 -27 4 -65 58 -65h55v-126h-128c-78 0 -153 42 -153 138v212c0 55 -73 61 -97 61v172c24 0 97 7 97 67v216c0 96 75 138 153 138h128v-126z" />
    <glyph glyph-name="bar" unicode="|" 
d="M186 740h183v-840h-183v840z" />
    <glyph glyph-name="braceright" unicode="}" horiz-adv-x="554" 
d="M126 614h-55v126h128c78 0 153 -42 153 -138v-216c0 -60 73 -67 97 -67v-172c-24 0 -97 -6 -97 -61v-212c0 -96 -75 -138 -153 -138h-128v126h55c54 0 58 38 58 65v212c1 73 73 90 108 92v4c-35 3 -107 10 -108 105v209c0 27 -4 65 -58 65z" />
    <glyph glyph-name="asciitilde" unicode="~" horiz-adv-x="600" 
d="M497 377l36 -158c-32 -43 -65 -88 -127 -88c-37 0 -69 15 -102 33c-32 18 -69 35 -115 35c-44 0 -68 -36 -86 -69l-36 156c24 44 60 89 127 89c34 0 73 -15 111 -32c37 -16 75 -36 102 -36c40 0 65 36 90 70z" />
    <glyph glyph-name="exclamdown" unicode="&#xa1;" horiz-adv-x="333" 
d="M252 555v-170h-171v170h171zM252 311v-496h-171v496h171z" />
    <glyph glyph-name="cent" unicode="&#xa2;" horiz-adv-x="618" 
d="M372 720v-101c121 -33 178 -134 184 -199h-172c-14 25 -42 40 -71 40c-45 0 -86 -36 -86 -85c0 -46 37 -84 86 -84c38 0 56 20 67 34h176c-14 -74 -71 -165 -178 -189v-105h-137v105c-145 49 -178 167 -179 237c0 87 49 201 179 242v105h131z" />
    <glyph glyph-name="sterling" unicode="&#xa3;" horiz-adv-x="618" 
d="M446 252h161c5 -16 11 -32 11 -64c0 -61 -49 -188 -219 -188h-355v148h49c48 0 91 6 91 54c0 19 -6 35 -18 50l-24 32h-128v133h48c-18 27 -28 58 -28 94c0 115 98 244 266 244c98 0 180 -46 224 -118c28 -45 33 -82 38 -129h-174c-3 28 -16 81 -85 81
c-50 0 -80 -44 -80 -83c0 -48 20 -72 34 -89h156v-133h-77c17 -20 33 -40 33 -69c0 -32 -20 -50 -39 -67h41c27 0 82 5 82 68c0 10 -1 17 -7 36z" />
    <glyph glyph-name="fraction" unicode="&#x2044;" horiz-adv-x="211" 
d="M192 740h137l-311 -740h-136z" />
    <glyph glyph-name="yen" unicode="&#xa5;" horiz-adv-x="618" 
d="M215 0v167h-196v139h196v27l-26 52h-168v138h99l-119 217h200l109 -237l111 237h197l-117 -217h97v-138h-170l-26 -49v-30h196v-139h-197v-167h-186z" />
    <glyph glyph-name="florin" unicode="&#x192;" horiz-adv-x="618" 
d="M434 591h73l-23 -125h-72l-57 -326c-15 -82 -26 -143 -71 -200c-54 -67 -136 -92 -205 -92c-7 0 -36 0 -54 6l26 148c8 -1 11 -2 18 -2c84 0 101 48 113 118l60 348h-72l21 125h73l6 32c28 152 159 195 235 195c8 0 28 0 42 -3l-22 -133c-69 0 -83 -41 -91 -91z" />
    <glyph glyph-name="section" unicode="&#xa7;" horiz-adv-x="670" 
d="M584 548h-163c-14 51 -59 58 -87 58c-25 0 -70 -7 -70 -53c0 -32 34 -48 59 -59l182 -82c49 -22 125 -60 125 -166c0 -78 -45 -120 -86 -158c21 -29 51 -69 51 -141c0 -106 -79 -218 -250 -218c-67 0 -264 30 -280 236h164c14 -84 88 -85 113 -85c69 0 90 40 90 65
c0 40 -46 61 -88 80l-171 79c-50 23 -133 61 -133 180c0 19 0 91 95 161c-19 30 -31 65 -31 111c0 141 126 198 239 198c153 0 237 -102 241 -206zM415 284l-185 83c-39 -19 -39 -48 -39 -55c0 -39 33 -54 53 -63l202 -93c22 14 37 36 37 62c0 29 -25 47 -68 66z" />
    <glyph glyph-name="currency" unicode="&#xa4;" horiz-adv-x="618" 
d="M309 451c-61 0 -108 -51 -108 -110c0 -60 48 -110 108 -110c59 0 108 49 108 110c0 60 -47 110 -108 110zM88 483l-88 86l82 82l88 -88c41 26 88 40 139 40c50 0 98 -14 137 -39l88 86l80 -81l-85 -85c27 -42 43 -91 43 -144c0 -50 -14 -97 -38 -136l84 -84l-81 -82
l-82 83c-42 -28 -92 -44 -146 -44c-53 0 -102 16 -145 44l-83 -82l-81 80l85 85c-25 40 -39 86 -39 136c0 53 16 103 42 143z" />
    <glyph glyph-name="quotesingle" unicode="'" horiz-adv-x="242" 
d="M174 443h-107l-33 297h174z" />
    <glyph glyph-name="quotedblleft" unicode="&#x201c;" 
d="M314 409v210c0 98 67 121 102 121h72v-90h-36c-37 0 -43 -27 -43 -37v-34h79v-170h-174zM67 409v210c0 98 67 121 102 121h72v-90h-36c-38 0 -43 -28 -43 -37v-34h79v-170h-174z" />
    <glyph glyph-name="guillemotleft" unicode="&#xab;" horiz-adv-x="422" 
d="M176 474v-140l-51 -45l51 -47v-139l-129 127v114zM375 474v-140l-51 -45l51 -47v-139l-129 127v114z" />
    <glyph glyph-name="guilsinglleft" unicode="&#x2039;" horiz-adv-x="222" 
d="M175 474v-140l-51 -45l51 -47v-139l-128 127v114z" />
    <glyph glyph-name="guilsinglright" unicode="&#x203a;" horiz-adv-x="222" 
d="M47 103v140l51 45l-51 47v139l128 -131v-113z" />
    <glyph glyph-name="fi" unicode="&#xfb01;" horiz-adv-x="601" 
d="M4 555h62v29c0 156 131 170 212 170h25v-125h-19c-15 0 -52 -5 -52 -52v-22h309v-555h-166v429h-143v-429h-166v429h-62v126zM541 740v-126h-166v126h166z" />
    <glyph glyph-name="fl" unicode="&#xfb02;" horiz-adv-x="601" 
d="M4 555h62v29c0 156 131 170 212 170h25v-125h-19c-15 0 -52 -5 -52 -52v-22h143v184h166v-739h-166v429h-143v-429h-166v429h-62v126z" />
    <glyph glyph-name="endash" unicode="&#x2013;" horiz-adv-x="500" 
d="M465 370v-163h-430v163h430z" />
    <glyph glyph-name="dagger" unicode="&#x2020;" horiz-adv-x="670" 
d="M418 740v-177h154v-140h-154v-667h-165v667h-155v140h155v177h165z" />
    <glyph glyph-name="daggerdbl" unicode="&#x2021;" horiz-adv-x="670" 
d="M418 740v-147h154v-140h-154v-326h154v-140h-154v-231h-165v231h-155v140h155v326h-155v140h155v147h165z" />
    <glyph glyph-name="periodcentered" unicode="&#xb7;" horiz-adv-x="314" 
d="M244 338v-170h-173v170h173z" />
    <glyph glyph-name="paragraph" unicode="&#xb6;" horiz-adv-x="701" 
d="M205 -103v458h-14c-84 0 -198 47 -198 189c0 189 181 196 254 196h360v-118h-49v-725h-128v725h-97v-725h-128z" />
    <glyph glyph-name="bullet" unicode="&#x2022;" horiz-adv-x="739" 
d="M371 532c83 0 151 -70 151 -155c0 -86 -69 -155 -152 -155c-85 0 -153 71 -153 155c0 82 65 155 154 155z" />
    <glyph glyph-name="quotesinglbase" unicode="&#x201a;" horiz-adv-x="314" 
d="M244 170v-210c0 -98 -67 -121 -102 -121h-72v89h36c37 0 43 28 43 38v34h-79v170h174z" />
    <glyph glyph-name="quotedblbase" unicode="&#x201e;" 
d="M241 170v-210c1 -98 -67 -121 -103 -121h-71v89h35c37 0 43 28 43 38v34h-78v170h174zM488 170v-210c0 -98 -67 -121 -102 -121h-72v89h36c36 0 42 28 42 38v34h-78v170h174z" />
    <glyph glyph-name="quotedblright" unicode="&#x201d;" 
d="M241 740v-210c0 -99 -67 -121 -102 -121h-72v89h36c37 0 43 27 43 38v34h-79v170h174zM488 740v-210c0 -99 -67 -121 -102 -121h-72v89h36c36 0 42 27 42 38v34h-78v170h174z" />
    <glyph glyph-name="guillemotright" unicode="&#xbb;" horiz-adv-x="422" 
d="M246 103v140l52 45l-52 47v139l129 -131v-113zM47 103v140l51 45l-51 47v139l129 -131v-113z" />
    <glyph glyph-name="ellipsis" unicode="&#x2026;" horiz-adv-x="1000" 
d="M254 170v-170h-173v170h173zM587 170v-170h-173v170h173zM920 170v-170h-173v170h173z" />
    <glyph glyph-name="perthousand" unicode="&#x2030;" horiz-adv-x="1258" 
d="M36 574c0 100 81 181 180 181c100 0 180 -81 180 -181s-81 -180 -180 -180c-98 0 -180 80 -180 180zM147 574c0 -37 31 -69 69 -69c36 0 69 30 69 70c0 39 -31 69 -69 69s-69 -30 -69 -70zM461 166c0 100 81 181 181 181c99 0 180 -81 180 -181
c0 -101 -83 -181 -180 -181c-98 0 -181 79 -181 181zM572 166c0 -38 31 -70 70 -70c37 0 69 31 69 70c0 40 -32 70 -69 70c-40 0 -70 -32 -70 -70zM861 166c0 100 81 181 181 181c99 0 180 -81 180 -181c0 -101 -83 -181 -180 -181c-98 0 -181 79 -181 181zM972 166
c0 -38 31 -70 70 -70c37 0 69 31 69 70c0 40 -32 70 -69 70c-40 0 -70 -32 -70 -70zM216 0l306 740h116l-307 -740h-115z" />
    <glyph glyph-name="questiondown" unicode="&#xbf;" horiz-adv-x="592" 
d="M359 67h183c1 -9 1 -13 1 -18c0 -144 -110 -249 -263 -249c-155 0 -239 113 -239 212c0 92 59 147 113 197c65 60 74 80 77 110h174c-1 -69 -38 -112 -104 -176c-50 -49 -68 -78 -68 -110c0 -36 16 -62 57 -62c67 0 68 58 69 96zM231 385v170h174v-170h-174z" />
    <glyph glyph-name="grave" unicode="`" 
d="M162 839l242 -128l-46 -97l-247 108z" />
    <glyph glyph-name="acute" unicode="&#xb4;" 
d="M391 848l53 -118l-246 -109l-47 98z" />
    <glyph glyph-name="circumflex" unicode="&#x2c6;" 
d="M278 698l-46 -58h-162l156 166h108l150 -166h-160z" />
    <glyph glyph-name="tilde" unicode="&#x2dc;" 
d="M420 773l60 -85c-35 -22 -70 -37 -113 -37c-34 0 -130 26 -160 26c-29 0 -49 -10 -72 -19l-60 88c25 14 67 35 110 35c23 0 31 -2 105 -18c23 -6 44 -7 57 -7c31 0 48 7 73 17z" />
    <glyph glyph-name="macron" unicode="&#xaf;" 
d="M457 784v-126h-359v126h359z" />
    <glyph glyph-name="breve" unicode="&#x2d8;" 
d="M71 788h113c6 -7 12 -16 26 -23s36 -12 72 -12c15 0 65 0 88 35h113c-3 -47 -25 -83 -60 -107c-36 -24 -85 -37 -146 -37c-118 0 -199 48 -206 144z" />
    <glyph glyph-name="dotaccent" unicode="&#x2d9;" 
d="M198 644v151h159v-151h-159z" />
    <glyph glyph-name="dieresis" unicode="&#xa8;" 
d="M81 644v151h159v-151h-159zM314 644v151h159v-151h-159z" />
    <glyph glyph-name="ring" unicode="&#x2da;" 
d="M403 726c0 -69 -56 -126 -126 -126s-126 57 -126 126s56 126 126 126s126 -57 126 -126zM233 726c0 -24 20 -43 44 -43s44 19 44 44c0 24 -19 44 -44 44c-26 0 -44 -21 -44 -45z" />
    <glyph glyph-name="cedilla" unicode="&#xb8;" 
d="M311 0l-29 -53c6 2 13 3 21 3c38 0 85 -27 85 -91c0 -50 -36 -104 -112 -104c-17 0 -97 5 -109 94h76c5 -13 10 -28 33 -28s36 16 36 38c0 21 -15 34 -34 34c-13 0 -21 -7 -27 -15l-65 35l42 87h83z" />
    <glyph glyph-name="hungarumlaut" unicode="&#x2dd;" 
d="M176 832l118 -57l-86 -175l-106 47zM376 832l117 -57l-86 -175l-106 47z" />
    <glyph glyph-name="ogonek" unicode="&#x2db;" 
d="M380 -104v-86c-25 -8 -50 -16 -86 -16c-80 0 -119 46 -119 97c0 35 17 64 83 109h84c-16 -9 -57 -32 -57 -68c0 -25 22 -48 48 -48c15 0 27 4 47 12z" />
    <glyph glyph-name="caron" unicode="&#x2c7;" 
d="M277 741l46 58h161l-155 -166h-108l-151 166h161z" />
    <glyph glyph-name="emdash" unicode="&#x2014;" horiz-adv-x="1000" 
d="M965 370v-163h-930v163h930z" />
    <glyph glyph-name="AE" unicode="&#xc6;" horiz-adv-x="975" 
d="M514 124h-215l-80 -124h-229l514 740h421v-166h-228v-115h221v-166h-221v-127h228v-166h-411v124zM376 270h138v201h-2z" />
    <glyph glyph-name="ordfeminine" unicode="&#xaa;" horiz-adv-x="385" 
d="M333 744v-286h-99v29h-2c-16 -33 -48 -39 -73 -39c-80 0 -140 67 -140 153c0 98 69 153 142 153c35 0 58 -13 72 -39h-1h2v29h99zM118 601c0 -22 16 -59 58 -59c44 0 59 37 59 59c0 29 -20 59 -59 59c-40 0 -58 -33 -58 -59z" />
    <glyph glyph-name="Lslash" unicode="&#x141;" horiz-adv-x="487" 
d="M72 205l-65 -47v188l65 47v347h189v-211l109 78v-188l-109 -78v-175h219v-166h-408v205z" />
    <glyph glyph-name="Oslash" unicode="&#xd8;" horiz-adv-x="851" 
d="M593 719l64 87l118 -86l-64 -86c34 -37 105 -124 105 -264c0 -205 -162 -384 -392 -384c-87 0 -139 23 -167 35l-63 -84l-118 87l62 83c-39 42 -103 125 -103 263c0 216 169 384 391 384c47 0 107 -7 167 -35zM251 259l237 319c-11 4 -30 10 -62 10
c-136 0 -202 -118 -202 -215c0 -43 12 -86 27 -114zM598 483l-237 -320c12 -4 32 -11 66 -11c138 0 200 125 200 217c0 35 -7 73 -29 114z" />
    <glyph glyph-name="OE" unicode="&#x152;" horiz-adv-x="1085" 
d="M1035 740v-166h-230v-115h222v-166h-222v-127h230v-166h-412v49c-75 -54 -149 -63 -204 -63c-221 0 -384 177 -384 382c0 194 144 386 389 386c112 0 167 -40 199 -63v49h412zM224 368c0 -86 57 -216 198 -216c132 0 200 112 200 221c0 118 -77 215 -199 215
c-135 0 -199 -116 -199 -220z" />
    <glyph glyph-name="ordmasculine" unicode="&#xba;" horiz-adv-x="385" 
d="M37 601c0 71 50 153 155 153s155 -82 155 -153s-50 -153 -155 -153s-155 82 -155 153zM136 601c0 -34 26 -59 56 -59s56 25 56 59s-26 59 -56 59s-56 -25 -56 -59z" />
    <glyph glyph-name="ae" unicode="&#xe6;" horiz-adv-x="1091" 
d="M1055 226h-417c12 -81 81 -104 127 -104c59 0 87 30 108 53h167c-77 -177 -200 -193 -263 -193c-98 4 -136 55 -148 73h-2v-55h-151v55h-2c-21 -40 -86 -76 -158 -73c-185 0 -282 168 -282 295c0 166 118 297 286 297c63 0 134 -30 154 -73h2v54h151v-53h2
c12 16 49 68 152 72c137 0 278 -111 278 -307c0 -22 -1 -29 -4 -41zM642 336h253c-20 73 -70 97 -124 97c-87 0 -123 -61 -129 -97zM200 281c0 -87 63 -144 141 -144c76 0 135 60 135 139c0 81 -53 143 -141 143c-101 0 -135 -95 -135 -138z" />
    <glyph glyph-name="dotlessi" unicode="&#x131;" horiz-adv-x="286" 
d="M226 555v-555h-166v555h166z" />
    <glyph glyph-name="lslash" unicode="&#x142;" horiz-adv-x="342" 
d="M86 226l-61 -39v172l61 39v342h166v-235l65 42v-172l-65 -42v-333h-166v226z" />
    <glyph glyph-name="oslash" unicode="&#xf8;" horiz-adv-x="666" 
d="M455 550l61 83l107 -77l-62 -83c46 -55 71 -124 71 -195c0 -140 -100 -296 -298 -296c-62 0 -102 15 -121 23l-65 -88l-105 80l61 82c-42 48 -70 120 -70 197c0 139 97 297 300 297c64 0 107 -17 121 -23zM213 216l148 199c-6 1 -15 3 -27 3c-75 0 -134 -61 -134 -140
c0 -31 8 -51 13 -62zM454 336l-146 -196c6 -1 13 -3 25 -3c84 0 133 70 133 141c0 30 -8 48 -12 58z" />
    <glyph glyph-name="oe" unicode="&#x153;" horiz-adv-x="1076" 
d="M856 173h170c-14 -33 -42 -81 -86 -121c-45 -40 -106 -71 -188 -71c-128 0 -186 70 -208 100c-23 -29 -79 -100 -216 -100c-161 0 -294 127 -294 295c0 155 113 298 302 298c90 0 172 -45 208 -95c36 50 118 95 208 95c162 0 293 -131 293 -302c0 -21 -2 -31 -5 -46h-416
c6 -59 52 -104 124 -104c58 0 85 26 108 51zM629 337h250c-14 61 -65 96 -125 96s-114 -36 -125 -96zM200 277c0 -76 59 -141 135 -141c87 0 132 79 132 142c0 71 -54 141 -133 141c-63 0 -134 -50 -134 -142z" />
    <glyph glyph-name="germandbls" unicode="&#xdf;" horiz-adv-x="694" 
d="M224 0h-166v427c0 118 11 176 64 235c58 65 143 97 219 97c140 0 235 -102 235 -209c0 -82 -50 -115 -71 -129c81 -20 155 -94 155 -193c0 -121 -100 -246 -258 -246c-99 0 -145 48 -178 82v-64zM224 474v-265h93c7 -25 21 -72 86 -72c58 0 91 46 91 90
c0 23 -10 93 -112 93h-90v125h34c52 0 84 32 84 76c0 50 -36 83 -88 83c-98 0 -98 -106 -98 -130z" />
    <glyph glyph-name="divide" unicode="&#xf7;" horiz-adv-x="600" 
d="M552 173h-504v160h504v-160zM378 563v-160h-157v160h157zM378 103v-160h-157v160h157z" />
    <glyph glyph-name="threequarters" unicode="&#xbe;" horiz-adv-x="1000" 
d="M702 171h84v121h-2zM784 77h-209v86l214 281h118v-273h52v-94h-52v-77h-123v77zM611 740h137l-311 -740h-136zM41 433h129c4 -15 10 -38 50 -38c31 0 48 16 48 43c0 17 -13 38 -49 38h-55v90h24c15 0 60 0 60 42c0 14 -7 33 -32 33c-34 0 -35 -23 -36 -35h-126
c1 121 114 143 166 143c95 0 152 -60 152 -123c0 -17 -4 -63 -57 -92c52 -17 83 -59 83 -106c0 -78 -82 -141 -179 -141c-58 0 -120 21 -150 62c-23 31 -26 64 -28 84z" />
    <glyph glyph-name="onequarter" unicode="&#xbc;" horiz-adv-x="900" 
d="M498 740h137l-311 -740h-136zM249 740v-444h-123v338h-78v106h201zM676 77h-209v86l214 281h118v-273h52v-94h-52v-77h-123v77zM676 288l-77 -117h79v117h-2z" />
    <glyph glyph-name="onesuperior" unicode="&#xb9;" horiz-adv-x="407" 
d="M270 740v-444h-123v338h-78v106h201z" />
    <glyph glyph-name="multiply" unicode="&#xd7;" horiz-adv-x="600" 
d="M299 356l131 131l114 -114l-131 -130l129 -130l-113 -113l-129 129l-131 -129l-113 113l130 130l-130 130l113 113z" />
    <glyph glyph-name="registered" unicode="&#xae;" horiz-adv-x="800" 
d="M237 587h180c82 0 156 -34 156 -120c0 -35 -12 -77 -69 -103c31 -13 57 -34 61 -99c5 -74 5 -82 13 -104h-103c-8 15 -12 88 -14 102c-3 24 -9 62 -76 62h-42v-164h-106v426zM400 514h-57v-120h51c22 0 73 0 73 65c0 54 -45 55 -67 55zM403 754c212 0 380 -177 380 -384
c0 -212 -172 -384 -382 -384c-211 0 -383 173 -383 384c0 206 166 384 385 384zM402 677c-170 0 -301 -139 -301 -307c0 -170 136 -307 300 -307s299 135 299 307c0 165 -129 307 -298 307z" />
    <glyph glyph-name="Thorn" unicode="&#xde;" horiz-adv-x="636" 
d="M67 0v740h181v-97l61 1c137 0 188 -21 228 -54c58 -48 87 -121 87 -196s-31 -154 -78 -194c-51 -43 -101 -64 -216 -64h-82v-136h-181zM248 478v-176h77c36 0 118 0 118 89c0 87 -84 87 -125 87h-70z" />
    <glyph glyph-name="brokenbar" unicode="&#xa6;" 
d="M186 740h183v-336h-183v336zM186 236h183v-336h-183v336z" />
    <glyph glyph-name="Eth" unicode="&#xd0;" horiz-adv-x="742" 
d="M0 296v166h67v278h249c83 0 224 0 323 -138c51 -70 68 -149 68 -230c0 -202 -116 -372 -361 -372h-279v296h-67zM364 462v-166h-108v-130h81c141 0 181 98 181 203c0 42 -9 95 -36 137c-22 33 -60 68 -144 68h-82v-112h108z" />
    <glyph glyph-name="onehalf" unicode="&#xbd;" horiz-adv-x="920" 
d="M498 740h137l-311 -740h-136zM249 740v-444h-123v338h-78v106h201zM719 106h153v-106h-341v97c95 61 199 128 200 207c0 20 -6 42 -35 42c-43 0 -46 -50 -47 -68h-123c1 31 3 68 29 106c41 59 113 69 150 69c107 0 165 -66 165 -131c0 -56 -30 -121 -151 -214v-2z" />
    <glyph glyph-name="minus" unicode="&#x2212;" horiz-adv-x="600" 
d="M552 173h-504v160h504v-160z" />
    <glyph glyph-name="ccedilla" unicode="&#xe7;" horiz-adv-x="652" 
d="M298 -122l-65 35l36 75c-137 28 -236 147 -236 291c0 163 127 295 293 295c147 0 266 -97 294 -233h-168c-18 34 -51 74 -120 74c-79 4 -132 -59 -132 -137c0 -81 53 -141 132 -141c69 0 102 40 120 74h169c-29 -121 -132 -220 -272 -227l-20 -37c6 2 13 3 21 3
c34 0 85 -27 85 -91c0 -50 -36 -104 -112 -104c-17 0 -97 5 -109 94h76c5 -13 10 -28 33 -28s36 16 36 38c0 21 -15 34 -34 34c-13 0 -21 -7 -27 -15z" />
    <glyph glyph-name="eth" unicode="&#xf0;" horiz-adv-x="666" 
d="M338 420c-99 0 -138 -85 -138 -141c0 -64 42 -141 135 -141c95 0 131 83 131 141c0 62 -40 141 -128 141zM593 692l-121 -37c44 -36 83 -81 112 -137c30 -57 48 -139 48 -216c0 -176 -119 -319 -299 -319c-166 0 -299 125 -299 293c0 187 138 287 266 285
c49 -1 85 -14 117 -47l2 2c-17 30 -52 63 -97 93l-150 -45l-93 60l140 43c-33 15 -66 28 -99 36l160 53c32 -8 67 -21 101 -39l129 39z" />
    <glyph glyph-name="plusminus" unicode="&#xb1;" horiz-adv-x="600" 
d="M220 420v136h160v-136h172v-160h-172v-130h-160v130h-172v160h172zM48 -82v160h504v-160h-504z" />
    <glyph glyph-name="Ccedilla" unicode="&#xc7;" horiz-adv-x="832" 
d="M391 -122l-65 35l38 78c-197 29 -327 198 -327 380c0 189 146 383 388 383c232 0 356 -179 376 -295h-198c-21 55 -77 129 -179 129c-127 0 -198 -111 -198 -216c0 -112 76 -220 199 -220c118 0 166 99 178 125h198c-42 -169 -185 -283 -357 -290l-22 -40c6 2 13 3 21 3
c34 0 85 -27 85 -91c0 -50 -36 -104 -112 -104c-17 0 -97 5 -109 94h76c5 -13 10 -28 33 -28s36 16 36 38c0 21 -15 34 -34 34c-13 0 -21 -7 -27 -15z" />
    <glyph glyph-name="thorn" unicode="&#xfe;" horiz-adv-x="695" 
d="M59 -185v925h166v-234c27 26 70 67 165 67c198 0 273 -172 273 -301c0 -160 -113 -291 -271 -291c-103 0 -148 49 -167 69v-235h-166zM357 136c88 0 140 71 140 141c0 66 -48 141 -140 141s-140 -75 -140 -141c0 -70 52 -141 140 -141z" />
    <glyph glyph-name="copyright" unicode="&#xa9;" horiz-adv-x="800" 
d="M595 436h-105c-16 60 -56 68 -84 68c-84 0 -107 -75 -107 -132c0 -69 32 -130 107 -130c11 0 70 0 87 87h106c-9 -111 -86 -179 -197 -179c-131 0 -210 95 -210 223c0 116 74 223 213 223c119 0 185 -84 190 -160zM403 754c212 0 380 -176 380 -384
c0 -212 -172 -384 -382 -384c-211 0 -383 173 -383 384c0 207 166 384 385 384zM402 677c-171 0 -301 -140 -301 -307c0 -171 136 -307 300 -307s299 135 299 307c0 166 -130 307 -298 307z" />
    <glyph glyph-name="logicalnot" unicode="&#xac;" horiz-adv-x="600" 
d="M397 108v177h-364v160h524v-337h-160z" />
    <glyph glyph-name="twosuperior" unicode="&#xb2;" horiz-adv-x="407" 
d="M223 402h153v-106h-341v97c95 61 199 128 200 207c0 20 -6 42 -35 42c-43 0 -46 -50 -47 -68h-123c1 31 3 68 29 106c41 59 113 69 150 69c107 0 165 -66 165 -131c0 -56 -30 -121 -151 -214v-2z" />
    <glyph glyph-name="threesuperior" unicode="&#xb3;" horiz-adv-x="407" 
d="M22 433h129c4 -15 10 -38 50 -38c31 0 48 16 48 43c0 17 -13 38 -49 38h-55v90h24c15 0 60 0 60 42c0 14 -7 33 -32 33c-34 0 -35 -23 -36 -35h-126c1 121 114 143 166 143c95 0 152 -60 152 -123c0 -17 -4 -63 -57 -92c52 -17 83 -59 83 -106c0 -78 -82 -141 -179 -141
c-58 0 -120 21 -150 62c-23 31 -26 64 -28 84z" />
    <glyph glyph-name="trademark" unicode="&#x2122;" horiz-adv-x="990" 
d="M112 296v338h-91v106h307v-106h-90v-338h-126zM386 296v444h159l87 -277h2l86 277h159v-444h-117l2 301h-2l-87 -301h-84l-90 301l-2 -2l4 -299h-117z" />
    <glyph glyph-name="degree" unicode="&#xb0;" horiz-adv-x="400" 
d="M200 508c32 0 59 28 59 61c0 32 -27 61 -59 61s-59 -29 -59 -61c0 -33 27 -61 59 -61zM200 426c-80 0 -143 63 -143 143s63 143 143 143s143 -63 143 -143s-63 -143 -143 -143z" />
    <glyph glyph-name="mu" unicode="&#x3bc;" horiz-adv-x="634" 
d="M52 -190v745h166v-274c0 -71 21 -144 98 -144s99 73 99 144v274h166v-555h-158v69h-1h-2c-7 -22 -37 -79 -102 -79c-55 0 -86 31 -98 54h-2v-234h-166z" />
    <glyph glyph-name="Aacute" unicode="&#xc1;" horiz-adv-x="758" 
d="M508 107h-257l-39 -107h-203l297 740h149l294 -740h-205zM379 510l-76 -253h155l-76 253h-1h-2zM493 993l53 -118l-246 -109l-47 98z" />
    <glyph glyph-name="Acircumflex" unicode="&#xc2;" horiz-adv-x="758" 
d="M508 107h-257l-39 -107h-203l297 740h149l294 -740h-205zM379 510l-76 -253h155l-76 253h-1h-2zM380 843l-46 -58h-162l156 166h108l150 -166h-160z" />
    <glyph glyph-name="Adieresis" unicode="&#xc4;" horiz-adv-x="758" 
d="M508 107h-257l-39 -107h-203l297 740h149l294 -740h-205zM379 510l-76 -253h155l-76 253h-1h-2zM183 789v151h159v-151h-159zM416 789v151h159v-151h-159z" />
    <glyph glyph-name="Agrave" unicode="&#xc0;" horiz-adv-x="758" 
d="M508 107h-257l-39 -107h-203l297 740h149l294 -740h-205zM379 510l-76 -253h155l-76 253h-1h-2zM264 984l242 -128l-46 -97l-247 108z" />
    <glyph glyph-name="Aring" unicode="&#xc5;" horiz-adv-x="758" 
d="M508 107h-257l-39 -107h-203l297 740h149l294 -740h-205zM379 510l-76 -253h155l-76 253h-1h-2zM505 891c0 -69 -56 -126 -126 -126s-126 57 -126 126s56 126 126 126s126 -57 126 -126zM335 891c0 -24 20 -43 44 -43s44 19 44 44c0 24 -19 44 -44 44
c-26 0 -44 -21 -44 -45z" />
    <glyph glyph-name="Atilde" unicode="&#xc3;" horiz-adv-x="758" 
d="M508 107h-257l-39 -107h-203l297 740h149l294 -740h-205zM379 510l-76 -253h155l-76 253h-1h-2zM522 938l60 -85c-35 -22 -70 -37 -113 -37c-34 0 -130 26 -160 26c-29 0 -49 -10 -72 -19l-60 88c25 14 67 35 110 35c23 0 31 -2 105 -18c23 -6 44 -7 57 -7
c31 0 48 7 73 17z" />
    <glyph glyph-name="Eacute" unicode="&#xc9;" horiz-adv-x="528" 
d="M67 0v740h411v-166h-230v-115h223v-166h-223v-127h230v-166h-411zM378 1013l53 -118l-246 -109l-47 98z" />
    <glyph glyph-name="Ecircumflex" unicode="&#xca;" horiz-adv-x="528" 
d="M67 0v740h411v-166h-230v-115h223v-166h-223v-127h230v-166h-411zM265 863l-46 -58h-162l156 166h108l150 -166h-160z" />
    <glyph glyph-name="Edieresis" unicode="&#xcb;" horiz-adv-x="528" 
d="M67 0v740h411v-166h-230v-115h223v-166h-223v-127h230v-166h-411zM68 809v151h159v-151h-159zM301 809v151h159v-151h-159z" />
    <glyph glyph-name="Egrave" unicode="&#xc8;" horiz-adv-x="528" 
d="M67 0v740h411v-166h-230v-115h223v-166h-223v-127h230v-166h-411zM149 1004l242 -128l-46 -97l-247 108z" />
    <glyph glyph-name="Iacute" unicode="&#xcd;" horiz-adv-x="323" 
d="M67 0v740h189v-740h-189zM300 1013l53 -118l-246 -109l-47 98z" />
    <glyph glyph-name="Icircumflex" unicode="&#xce;" horiz-adv-x="323" 
d="M67 0v740h189v-740h-189zM162 863l-46 -58h-162l156 166h108l150 -166h-160z" />
    <glyph glyph-name="Idieresis" unicode="&#xcf;" horiz-adv-x="323" 
d="M67 0v740h189v-740h-189zM-35 809v151h159v-151h-159zM198 809v151h159v-151h-159z" />
    <glyph glyph-name="Igrave" unicode="&#xcc;" horiz-adv-x="323" 
d="M67 0v740h189v-740h-189zM21 1004l242 -128l-46 -97l-247 108z" />
    <glyph glyph-name="Ntilde" unicode="&#xd1;" horiz-adv-x="759" 
d="M67 0v740h163l286 -465l2 2l-8 463h181v-740h-164l-282 450l-2 -1l5 -449h-181zM522 938l60 -85c-35 -22 -70 -37 -113 -37c-34 0 -130 26 -160 26c-29 0 -49 -10 -72 -19l-60 88c25 14 67 35 110 35c23 0 31 -2 105 -18c23 -6 44 -7 57 -7c31 0 48 7 73 17z" />
    <glyph glyph-name="Oacute" unicode="&#xd3;" horiz-adv-x="851" 
d="M64 519c39 96 154 235 361 235c228 0 391 -178 391 -384s-162 -384 -392 -384c-233 0 -389 185 -389 375c0 49 7 104 29 158zM224 372c0 -114 77 -220 204 -220c134 0 199 122 199 217c0 96 -65 219 -201 219c-131 0 -202 -112 -202 -216zM539 1013l53 -118l-246 -109
l-47 98z" />
    <glyph glyph-name="Ocircumflex" unicode="&#xd4;" horiz-adv-x="851" 
d="M64 519c39 96 154 235 361 235c228 0 391 -178 391 -384s-162 -384 -392 -384c-233 0 -389 185 -389 375c0 49 7 104 29 158zM224 372c0 -114 77 -220 204 -220c134 0 199 122 199 217c0 96 -65 219 -201 219c-131 0 -202 -112 -202 -216zM426 863l-46 -58h-162l156 166
h108l150 -166h-160z" />
    <glyph glyph-name="Odieresis" unicode="&#xd6;" horiz-adv-x="851" 
d="M64 519c39 96 154 235 361 235c228 0 391 -178 391 -384s-162 -384 -392 -384c-233 0 -389 185 -389 375c0 49 7 104 29 158zM224 372c0 -114 77 -220 204 -220c134 0 199 122 199 217c0 96 -65 219 -201 219c-131 0 -202 -112 -202 -216zM229 809v151h159v-151h-159z
M462 809v151h159v-151h-159z" />
    <glyph glyph-name="Ograve" unicode="&#xd2;" horiz-adv-x="851" 
d="M64 519c39 96 154 235 361 235c228 0 391 -178 391 -384s-162 -384 -392 -384c-233 0 -389 185 -389 375c0 49 7 104 29 158zM224 372c0 -114 77 -220 204 -220c134 0 199 122 199 217c0 96 -65 219 -201 219c-131 0 -202 -112 -202 -216zM310 1004l242 -128l-46 -97
l-247 108z" />
    <glyph glyph-name="Otilde" unicode="&#xd5;" horiz-adv-x="851" 
d="M64 519c39 96 154 235 361 235c228 0 391 -178 391 -384s-162 -384 -392 -384c-233 0 -389 185 -389 375c0 49 7 104 29 158zM224 372c0 -114 77 -220 204 -220c134 0 199 122 199 217c0 96 -65 219 -201 219c-131 0 -202 -112 -202 -216zM568 938l60 -85
c-35 -22 -70 -37 -113 -37c-34 0 -130 26 -160 26c-29 0 -49 -10 -72 -19l-60 88c25 14 67 35 110 35c23 0 31 -2 105 -18c23 -6 44 -7 57 -7c31 0 48 7 73 17z" />
    <glyph glyph-name="Scaron" unicode="&#x160;" horiz-adv-x="573" 
d="M544 524h-187c-4 25 -10 72 -68 72c-33 0 -65 -23 -65 -58c0 -44 20 -53 153 -113c138 -62 173 -126 173 -212c0 -108 -62 -227 -258 -227c-214 0 -267 140 -267 235v24h188c0 -86 53 -101 77 -101c45 0 72 37 72 71c0 49 -31 61 -145 109c-52 21 -181 73 -181 212
s135 218 259 218c73 0 152 -27 200 -84c44 -54 47 -104 49 -146zM286 906l46 58h161l-155 -166h-108l-151 166h161z" />
    <glyph glyph-name="Uacute" unicode="&#xda;" horiz-adv-x="698" 
d="M65 740h189v-447c0 -50 3 -141 96 -141c94 0 94 82 94 141v447h189v-447c0 -124 -27 -179 -74 -227c-48 -49 -115 -80 -207 -80c-54 0 -152 13 -213 79c-61 67 -74 119 -74 228v447zM498 1013l53 -118l-246 -109l-47 98z" />
    <glyph glyph-name="Ucircumflex" unicode="&#xdb;" horiz-adv-x="698" 
d="M65 740h189v-447c0 -50 3 -141 96 -141c94 0 94 82 94 141v447h189v-447c0 -124 -27 -179 -74 -227c-48 -49 -115 -80 -207 -80c-54 0 -152 13 -213 79c-61 67 -74 119 -74 228v447zM350 863l-46 -58h-162l156 166h108l150 -166h-160z" />
    <glyph glyph-name="Udieresis" unicode="&#xdc;" horiz-adv-x="698" 
d="M65 740h189v-447c0 -50 3 -141 96 -141c94 0 94 82 94 141v447h189v-447c0 -124 -27 -179 -74 -227c-48 -49 -115 -80 -207 -80c-54 0 -152 13 -213 79c-61 67 -74 119 -74 228v447zM153 809v151h159v-151h-159zM386 809v151h159v-151h-159z" />
    <glyph glyph-name="Ugrave" unicode="&#xd9;" horiz-adv-x="698" 
d="M65 740h189v-447c0 -50 3 -141 96 -141c94 0 94 82 94 141v447h189v-447c0 -124 -27 -179 -74 -227c-48 -49 -115 -80 -207 -80c-54 0 -152 13 -213 79c-61 67 -74 119 -74 228v447zM199 1004l242 -128l-46 -97l-247 108z" />
    <glyph glyph-name="Yacute" unicode="&#xdd;" horiz-adv-x="647" 
d="M230 0v269l-221 471h205l110 -297l111 297h203l-219 -471v-269h-189zM472 1013l53 -118l-246 -109l-47 98z" />
    <glyph glyph-name="Ydieresis" unicode="&#x178;" horiz-adv-x="647" 
d="M230 0v269l-221 471h205l110 -297l111 297h203l-219 -471v-269h-189zM127 809v151h159v-151h-159zM360 809v151h159v-151h-159z" />
    <glyph glyph-name="Zcaron" unicode="&#x17d;" horiz-adv-x="499" 
d="M16 0v124l255 450h-255v166h467v-153l-236 -421h236v-166h-467zM274 906l46 58h161l-155 -166h-108l-151 166h161z" />
    <glyph glyph-name="aacute" unicode="&#xe1;" horiz-adv-x="704" 
d="M643 555v-555h-166v60h-2c-28 -54 -97 -79 -162 -79c-176 0 -279 138 -279 297c0 182 131 296 279 296c91 0 142 -44 162 -78h2v59h166zM200 276c0 -52 38 -140 138 -140c104 0 139 88 139 142c0 67 -46 141 -140 141c-95 0 -137 -80 -137 -143zM466 848l53 -118
l-246 -109l-47 98z" />
    <glyph glyph-name="acircumflex" unicode="&#xe2;" horiz-adv-x="704" 
d="M643 555v-555h-166v60h-2c-28 -54 -97 -79 -162 -79c-176 0 -279 138 -279 297c0 182 131 296 279 296c91 0 142 -44 162 -78h2v59h166zM200 276c0 -52 38 -140 138 -140c104 0 139 88 139 142c0 67 -46 141 -140 141c-95 0 -137 -80 -137 -143zM353 698l-46 -58h-162
l156 166h108l150 -166h-160z" />
    <glyph glyph-name="adieresis" unicode="&#xe4;" horiz-adv-x="704" 
d="M643 555v-555h-166v60h-2c-28 -54 -97 -79 -162 -79c-176 0 -279 138 -279 297c0 182 131 296 279 296c91 0 142 -44 162 -78h2v59h166zM200 276c0 -52 38 -140 138 -140c104 0 139 88 139 142c0 67 -46 141 -140 141c-95 0 -137 -80 -137 -143zM156 644v151h159v-151
h-159zM389 644v151h159v-151h-159z" />
    <glyph glyph-name="agrave" unicode="&#xe0;" horiz-adv-x="704" 
d="M643 555v-555h-166v60h-2c-28 -54 -97 -79 -162 -79c-176 0 -279 138 -279 297c0 182 131 296 279 296c91 0 142 -44 162 -78h2v59h166zM200 276c0 -52 38 -140 138 -140c104 0 139 88 139 142c0 67 -46 141 -140 141c-95 0 -137 -80 -137 -143zM237 839l242 -128
l-46 -97l-247 108z" />
    <glyph glyph-name="aring" unicode="&#xe5;" horiz-adv-x="704" 
d="M643 555v-555h-166v60h-2c-28 -54 -97 -79 -162 -79c-176 0 -279 138 -279 297c0 182 131 296 279 296c91 0 142 -44 162 -78h2v59h166zM200 276c0 -52 38 -140 138 -140c104 0 139 88 139 142c0 67 -46 141 -140 141c-95 0 -137 -80 -137 -143zM478 726
c0 -69 -56 -126 -126 -126s-126 57 -126 126s56 126 126 126s126 -57 126 -126zM308 726c0 -24 20 -43 44 -43s44 19 44 44c0 24 -19 44 -44 44c-26 0 -44 -21 -44 -45z" />
    <glyph glyph-name="atilde" unicode="&#xe3;" horiz-adv-x="704" 
d="M643 555v-555h-166v60h-2c-28 -54 -97 -79 -162 -79c-176 0 -279 138 -279 297c0 182 131 296 279 296c91 0 142 -44 162 -78h2v59h166zM200 276c0 -52 38 -140 138 -140c104 0 139 88 139 142c0 67 -46 141 -140 141c-95 0 -137 -80 -137 -143zM495 773l60 -85
c-35 -22 -70 -37 -113 -37c-34 0 -130 26 -160 26c-29 0 -49 -10 -72 -19l-60 88c25 14 67 35 110 35c23 0 31 -2 105 -18c23 -6 44 -7 57 -7c31 0 48 7 73 17z" />
    <glyph glyph-name="eacute" unicode="&#xe9;" horiz-adv-x="646" 
d="M425 174h170c-27 -62 -66 -110 -113 -142c-46 -33 -101 -50 -158 -50c-159 0 -294 129 -294 294c0 155 122 298 291 298s293 -134 293 -303c0 -22 -2 -31 -4 -44h-416c10 -66 65 -105 130 -105c51 0 78 23 101 52zM196 339h252c-7 33 -40 95 -126 95s-119 -62 -126 -95z
M437 848l53 -118l-246 -109l-47 98z" />
    <glyph glyph-name="ecircumflex" unicode="&#xea;" horiz-adv-x="646" 
d="M425 174h170c-27 -62 -66 -110 -113 -142c-46 -33 -101 -50 -158 -50c-159 0 -294 129 -294 294c0 155 122 298 291 298s293 -134 293 -303c0 -22 -2 -31 -4 -44h-416c10 -66 65 -105 130 -105c51 0 78 23 101 52zM196 339h252c-7 33 -40 95 -126 95s-119 -62 -126 -95z
M324 698l-46 -58h-162l156 166h108l150 -166h-160z" />
    <glyph glyph-name="edieresis" unicode="&#xeb;" horiz-adv-x="646" 
d="M425 174h170c-27 -62 -66 -110 -113 -142c-46 -33 -101 -50 -158 -50c-159 0 -294 129 -294 294c0 155 122 298 291 298s293 -134 293 -303c0 -22 -2 -31 -4 -44h-416c10 -66 65 -105 130 -105c51 0 78 23 101 52zM196 339h252c-7 33 -40 95 -126 95s-119 -62 -126 -95z
M127 644v151h159v-151h-159zM360 644v151h159v-151h-159z" />
    <glyph glyph-name="egrave" unicode="&#xe8;" horiz-adv-x="646" 
d="M425 174h170c-27 -62 -66 -110 -113 -142c-46 -33 -101 -50 -158 -50c-159 0 -294 129 -294 294c0 155 122 298 291 298s293 -134 293 -303c0 -22 -2 -31 -4 -44h-416c10 -66 65 -105 130 -105c51 0 78 23 101 52zM196 339h252c-7 33 -40 95 -126 95s-119 -62 -126 -95z
M208 839l242 -128l-46 -97l-247 108z" />
    <glyph glyph-name="iacute" unicode="&#xed;" horiz-adv-x="286" 
d="M226 555v-555h-166v555h166zM282 848l53 -118l-246 -109l-47 98z" />
    <glyph glyph-name="icircumflex" unicode="&#xee;" horiz-adv-x="286" 
d="M226 555v-555h-166v555h166zM144 698l-46 -58h-162l156 166h108l150 -166h-160z" />
    <glyph glyph-name="idieresis" unicode="&#xef;" horiz-adv-x="286" 
d="M226 555v-555h-166v555h166zM-53 644v151h159v-151h-159zM180 644v151h159v-151h-159z" />
    <glyph glyph-name="igrave" unicode="&#xec;" horiz-adv-x="286" 
d="M226 555v-555h-166v555h166zM3 839l242 -128l-46 -97l-247 108z" />
    <glyph glyph-name="ntilde" unicode="&#xf1;" horiz-adv-x="632" 
d="M60 0v555h155v-59h2c17 27 52 78 151 78c53 0 112 -22 142 -48s64 -70 64 -179v-347h-166v303c0 39 0 115 -87 115c-95 0 -95 -82 -95 -116v-302h-166zM459 773l60 -85c-35 -22 -70 -37 -113 -37c-34 0 -130 26 -160 26c-29 0 -49 -10 -72 -19l-60 88c25 14 67 35 110 35
c23 0 31 -2 105 -18c23 -6 44 -7 57 -7c31 0 48 7 73 17z" />
    <glyph glyph-name="oacute" unicode="&#xf3;" horiz-adv-x="666" 
d="M34 278c0 136 97 295 299 295s299 -159 299 -295s-97 -295 -299 -295s-299 159 -299 295zM200 278c0 -81 61 -140 133 -140s133 59 133 140s-61 140 -133 140s-133 -59 -133 -140zM447 848l53 -118l-246 -109l-47 98z" />
    <glyph glyph-name="ocircumflex" unicode="&#xf4;" horiz-adv-x="666" 
d="M34 278c0 136 97 295 299 295s299 -159 299 -295s-97 -295 -299 -295s-299 159 -299 295zM200 278c0 -81 61 -140 133 -140s133 59 133 140s-61 140 -133 140s-133 -59 -133 -140zM334 698l-46 -58h-162l156 166h108l150 -166h-160z" />
    <glyph glyph-name="odieresis" unicode="&#xf6;" horiz-adv-x="666" 
d="M34 278c0 136 97 295 299 295s299 -159 299 -295s-97 -295 -299 -295s-299 159 -299 295zM200 278c0 -81 61 -140 133 -140s133 59 133 140s-61 140 -133 140s-133 -59 -133 -140zM137 644v151h159v-151h-159zM370 644v151h159v-151h-159z" />
    <glyph glyph-name="ograve" unicode="&#xf2;" horiz-adv-x="666" 
d="M34 278c0 136 97 295 299 295s299 -159 299 -295s-97 -295 -299 -295s-299 159 -299 295zM200 278c0 -81 61 -140 133 -140s133 59 133 140s-61 140 -133 140s-133 -59 -133 -140zM218 839l242 -128l-46 -97l-247 108z" />
    <glyph glyph-name="otilde" unicode="&#xf5;" horiz-adv-x="666" 
d="M34 278c0 136 97 295 299 295s299 -159 299 -295s-97 -295 -299 -295s-299 159 -299 295zM200 278c0 -81 61 -140 133 -140s133 59 133 140s-61 140 -133 140s-133 -59 -133 -140zM476 773l60 -85c-35 -22 -70 -37 -113 -37c-34 0 -130 26 -160 26c-29 0 -49 -10 -72 -19
l-60 88c25 14 67 35 110 35c23 0 31 -2 105 -18c23 -6 44 -7 57 -7c31 0 48 7 73 17z" />
    <glyph glyph-name="scaron" unicode="&#x161;" horiz-adv-x="499" 
d="M459 399h-163c-1 12 -3 42 -52 42c-35 0 -47 -22 -47 -37c0 -30 41 -47 85 -60c94 -26 194 -54 194 -174c0 -117 -103 -189 -226 -189c-84 0 -211 38 -226 184h165c7 -51 56 -51 63 -51c28 0 58 16 58 43c0 43 -41 48 -147 89c-72 23 -132 70 -132 145
c0 110 100 183 215 183c73 0 199 -29 213 -175zM249 741l46 58h161l-155 -166h-108l-151 166h161z" />
    <glyph glyph-name="uacute" unicode="&#xfa;" horiz-adv-x="634" 
d="M574 555v-555h-157v59h-2c-34 -71 -102 -77 -144 -77c-34 0 -114 8 -163 70c-44 55 -50 95 -50 171v332h166v-307c0 -38 0 -111 89 -111c48 0 95 25 95 113v305h166zM466 848l53 -118l-246 -109l-47 98z" />
    <glyph glyph-name="ucircumflex" unicode="&#xfb;" horiz-adv-x="634" 
d="M574 555v-555h-157v59h-2c-34 -71 -102 -77 -144 -77c-34 0 -114 8 -163 70c-44 55 -50 95 -50 171v332h166v-307c0 -38 0 -111 89 -111c48 0 95 25 95 113v305h166zM318 698l-46 -58h-162l156 166h108l150 -166h-160z" />
    <glyph glyph-name="udieresis" unicode="&#xfc;" horiz-adv-x="634" 
d="M574 555v-555h-157v59h-2c-34 -71 -102 -77 -144 -77c-34 0 -114 8 -163 70c-44 55 -50 95 -50 171v332h166v-307c0 -38 0 -111 89 -111c48 0 95 25 95 113v305h166zM121 644v151h159v-151h-159zM354 644v151h159v-151h-159z" />
    <glyph glyph-name="ugrave" unicode="&#xf9;" horiz-adv-x="634" 
d="M574 555v-555h-157v59h-2c-34 -71 -102 -77 -144 -77c-34 0 -114 8 -163 70c-44 55 -50 95 -50 171v332h166v-307c0 -38 0 -111 89 -111c48 0 95 25 95 113v305h166zM167 839l242 -128l-46 -97l-247 108z" />
    <glyph glyph-name="yacute" unicode="&#xfd;" horiz-adv-x="574" 
d="M397 555h176l-278 -740h-176l88 213l-206 527h177l111 -322h2zM436 848l53 -118l-246 -109l-47 98z" />
    <glyph glyph-name="ydieresis" unicode="&#xff;" horiz-adv-x="574" 
d="M397 555h176l-278 -740h-176l88 213l-206 527h177l111 -322h2zM91 644v151h159v-151h-159zM324 644v151h159v-151h-159z" />
    <glyph glyph-name="zcaron" unicode="&#x17e;" horiz-adv-x="444" 
d="M211 126h217v-126h-413v114l234 315h-234v126h413v-126zM247 741l46 58h161l-155 -166h-108l-151 166h161z" />
  </font>
</defs>
</svg>
