<?xml version="1.0" standalone="no"?>
<!DOCTYPE svg PUBLIC "-//W3C//DTD SVG 1.1//EN" "http://www.w3.org/Graphics/SVG/1.1/DTD/svg11.dtd" >
<svg xmlns="http://www.w3.org/2000/svg" width="100%" height="100%">
<metadata>
Created by FontXChange 20110222 at Thu Jan 31 18:25:19 2013
 By Stephen Horner
Copyright (c) 1985, 1987, 1989, 1990, 1991, 1992, 1997, 1998, 1999 Adobe Systems Incorporated.  All Rights Reserved.ITC Avant Garde Gothic is a registered trademark of International Typeface Corporation.
</metadata>
<defs>
<font id="AvantGarde-Book" horiz-adv-x="554" >
  <font-face 
    font-family="ITC Avant Garde Gothic"
    font-weight="400"
    font-stretch="normal"
    units-per-em="1000"
    panose-1="2 0 5 3 0 0 0 0 0 0"
    ascent="800"
    descent="-200"
    x-height="547"
    cap-height="740"
    bbox="-113 -222 1148 955"
    underline-thickness="50"
    underline-position="-100"
    stemh="63"
    stemv="70"
    unicode-range="U+0020-FB02"
  />
    <missing-glyph />
    <glyph glyph-name="space" unicode=" " horiz-adv-x="277" 
 />
    <glyph glyph-name="exclam" unicode="!" horiz-adv-x="295" 
d="M111 0v126h74v-126h-74zM111 193v547h74v-547h-74z" />
    <glyph glyph-name="quotedbl" unicode="&#x22;" horiz-adv-x="309" 
d="M105 444h-57l-12 296h81zM261 444h-57l-12 296h81z" />
    <glyph glyph-name="numbersign" unicode="#" 
d="M101 0l29 206h-97v67h107l26 193h-107v68h117l29 206h69l-29 -206h124l29 206h69l-29 -206h83v-67h-93l-27 -194h92v-67h-101l-29 -206h-69l29 206h-124l-29 -206h-69zM359 467h-123l-27 -194h123z" />
    <glyph glyph-name="dollar" unicode="$" 
d="M241 -70v99c-101 11 -171 100 -171 185v14h74c0 -113 84 -138 137 -138c81 0 130 52 130 133c0 105 -93 128 -140 140c-53 13 -176 44 -180 183c0 93 59 165 150 181v84h74v-81c136 -19 161 -132 163 -186h-74v4c0 61 -42 117 -125 117c-62 -1 -114 -37 -114 -119
c4 -83 69 -102 130 -118c49 -13 190 -50 190 -205c0 -85 -58 -183 -170 -194v-99h-74z" />
    <glyph glyph-name="percent" unicode="%" horiz-adv-x="775" 
d="M451 166c0 -68 53 -123 121 -123s121 55 121 123s-53 123 -121 123s-121 -55 -121 -123zM391 166c0 99 82 179 181 179s181 -80 181 -179s-82 -179 -181 -179s-181 80 -181 179zM21 572c0 99 82 179 181 179s181 -80 181 -179s-82 -179 -181 -179s-181 80 -181 179z
M81 572c0 -68 53 -123 121 -123s121 55 121 123s-53 123 -121 123s-121 -55 -121 -123zM630 740l-424 -740h-68l424 740h68z" />
    <glyph glyph-name="ampersand" unicode="&#x26;" horiz-adv-x="757" 
d="M603 482h83l-137 -261l187 -182l-53 -51l-169 165c-26 -49 -87 -165 -225 -165c-141 0 -233 114 -233 226c0 116 85 181 171 220c-37 37 -83 83 -83 155c0 94 84 164 178 164c91 0 177 -74 177 -173c0 -105 -106 -155 -144 -168l140 -138zM458 206l-178 175
c-18 -6 -55 -25 -73 -38c-63 -46 -77 -92 -77 -133c0 -90 79 -152 153 -152c100 0 147 93 175 148zM425 587v3c0 47 -43 93 -104 93c-62 -2 -103 -47 -103 -93c1 -50 43 -90 84 -126c36 14 123 43 123 120v3z" />
    <glyph glyph-name="quoteright" unicode="&#x2019;" horiz-adv-x="351" 
d="M168 546h-74l88 194h74z" />
    <glyph glyph-name="parenleft" unicode="(" horiz-adv-x="369" 
d="M355 757v-75c-173 -104 -234 -291 -234 -406c0 -99 46 -295 234 -409v-72c-138 45 -308 234 -308 481s170 436 308 481z" />
    <glyph glyph-name="parenright" unicode=")" horiz-adv-x="369" 
d="M14 682v75c138 -45 308 -234 308 -481s-170 -436 -308 -481v72c188 114 234 310 234 409c0 115 -61 302 -234 406z" />
    <glyph glyph-name="asterisk" unicode="*" horiz-adv-x="425" 
d="M185 625l-1 115h58l-2 -116l109 37l18 -55l-110 -34l68 -92l-47 -34l-67 94l-66 -93l-47 34l69 92l-109 34l18 56z" />
    <glyph glyph-name="plus" unicode="+" horiz-adv-x="606" 
d="M337 506v-219h218v-68h-218v-219h-68v219h-218v68h218v219h68z" />
    <glyph glyph-name="comma" unicode="," horiz-adv-x="277" 
d="M14 -67l88 193h74l-88 -193h-74z" />
    <glyph glyph-name="hyphen" unicode="-" horiz-adv-x="332" 
d="M30 315h272v-67h-272v67z" />
    <glyph glyph-name="period" unicode="." horiz-adv-x="277" 
d="M102 0v126h74v-126h-74z" />
    <glyph glyph-name="slash" unicode="/" horiz-adv-x="437" 
d="M44 -100l280 840h79l-283 -840h-76z" />
    <glyph glyph-name="zero" unicode="0" 
d="M525 486v-216c0 -74 -14 -129 -37 -168c-53 -95 -153 -115 -211 -115s-158 20 -211 115c-23 39 -37 94 -37 168v216c0 56 11 101 28 136c46 91 140 131 220 131s174 -40 220 -131c17 -35 28 -80 28 -136zM451 281v188c0 6 0 94 -32 141c-33 52 -95 76 -142 76
s-109 -24 -142 -76c-32 -47 -32 -135 -32 -141v-188c0 -23 1 -106 28 -148c34 -54 85 -79 146 -79s112 25 146 79c27 42 28 125 28 148z" />
    <glyph glyph-name="one" unicode="1" 
d="M262 0v673h-127v67h201v-740h-74z" />
    <glyph glyph-name="two" unicode="2" 
d="M40 0v67l260 250c86 83 140 135 140 212c0 76 -63 157 -160 157c-14 0 -159 -2 -160 -185h-74v2c0 193 142 250 238 250c152 0 230 -129 230 -225c0 -87 -44 -147 -136 -234l-238 -227h370v-67h-470z" />
    <glyph glyph-name="three" unicode="3" 
d="M157 555h-74c3 125 88 198 187 198c112 0 187 -88 187 -190c0 -71 -38 -109 -76 -139c109 -57 125 -154 125 -196c0 -146 -111 -241 -233 -241c-72 0 -231 41 -239 245h74c3 -37 6 -67 26 -99c27 -45 75 -79 139 -79c86 0 159 62 159 170c0 71 -51 140 -126 158
c-22 5 -42 6 -86 7v65c4 0 17 -1 25 -1c118 0 138 80 138 116c0 44 -27 117 -115 117c-59 0 -111 -48 -111 -131z" />
    <glyph glyph-name="four" unicode="4" 
d="M387 0v135h-373v67l359 538h88v-538h67v-67h-67v-135h-74zM99 202h288v436h-2z" />
    <glyph glyph-name="five" unicode="5" 
d="M68 375l67 365h333v-67h-274l-37 -204c24 13 66 35 126 35c139 0 247 -115 247 -259c0 -134 -103 -258 -251 -258c-60 0 -225 29 -253 246h74c12 -113 91 -179 179 -179c105 0 177 94 177 191c0 110 -79 193 -176 193c-61 0 -115 -34 -154 -84z" />
    <glyph glyph-name="six" unicode="6" 
d="M297 739h84l-171 -251l2 -1c21 10 45 16 69 16c145 0 249 -116 249 -257c0 -128 -92 -259 -253 -259c-156 0 -253 120 -253 263c0 85 43 148 89 217zM98 243c0 -82 58 -189 179 -189c105 0 179 85 179 191c0 103 -74 191 -179 191c-94 0 -179 -77 -179 -193z" />
    <glyph glyph-name="seven" unicode="7" 
d="M110 0l305 673h-352v67h428v-67l-303 -673h-78z" />
    <glyph glyph-name="eight" unicode="8" 
d="M168 413c-61 40 -87 96 -87 148c0 118 96 192 196 192c109 0 196 -84 196 -195c0 -17 -8 -102 -88 -145c100 -47 128 -138 128 -198c0 -118 -99 -228 -235 -228c-138 0 -237 110 -237 228c0 71 40 163 127 198zM115 218c0 -119 98 -164 164 -164c71 0 160 56 160 161
c0 107 -92 160 -163 160c-89 0 -161 -75 -161 -157zM155 564c0 -51 44 -120 123 -120c70 0 121 57 121 120c0 58 -45 122 -120 122c-73 0 -124 -57 -124 -122z" />
    <glyph glyph-name="nine" unicode="9" 
d="M257 0h-84l171 251l-2 1c-21 -11 -46 -16 -69 -16c-145 0 -249 116 -249 257c0 128 92 259 253 259c156 0 253 -120 253 -263c0 -85 -43 -148 -89 -217zM456 496c0 82 -58 189 -179 189c-105 0 -179 -85 -179 -191c0 -103 74 -191 179 -191c94 0 179 77 179 193z" />
    <glyph glyph-name="colon" unicode=":" horiz-adv-x="277" 
d="M102 0v126h74v-126h-74zM102 422v126h74v-126h-74z" />
    <glyph glyph-name="semicolon" unicode=";" horiz-adv-x="277" 
d="M14 -67l88 193h74l-88 -193h-74zM102 422v126h74v-126h-74z" />
    <glyph glyph-name="less" unicode="&#x3c;" horiz-adv-x="606" 
d="M554 514v-68l-425 -193l425 -193v-68l-508 230v62z" />
    <glyph glyph-name="equal" unicode="=" horiz-adv-x="606" 
d="M555 388v-68h-504v68h504zM51 118v68h504v-68h-504z" />
    <glyph glyph-name="greater" unicode="&#x3e;" horiz-adv-x="606" 
d="M52 -8v68l425 193l-425 193v68l508 -230v-62z" />
    <glyph glyph-name="question" unicode="?" horiz-adv-x="591" 
d="M138 508h-74v19c0 117 101 225 235 225s227 -101 227 -222c0 -80 -39 -118 -106 -183c-30 -29 -79 -76 -83 -154h-74v4c0 100 69 166 105 199c47 43 84 77 84 137c0 72 -62 149 -156 149c-63 0 -106 -33 -135 -73c-23 -34 -23 -70 -23 -101zM263 0v126h74v-126h-74z" />
    <glyph glyph-name="at" unicode="@" horiz-adv-x="867" 
d="M581 548h60l-42 -237c-5 -25 -9 -44 -9 -53v-5c0 -22 12 -41 34 -41c64 0 119 94 119 211c0 182 -135 274 -291 274c-189 0 -327 -139 -327 -328c0 -144 82 -326 338 -326c120 0 202 34 238 50l15 -51c-79 -37 -165 -55 -253 -55c-289 0 -398 203 -398 383
c8 228 168 375 386 383c200 0 352 -123 352 -329c0 -145 -83 -268 -181 -268c-26 0 -76 13 -80 80h-2c-46 -76 -110 -80 -138 -80c-87 0 -156 70 -156 180c0 114 77 226 195 226c93 0 116 -64 124 -89h2zM545 394c0 69 -44 112 -99 112c-82 0 -140 -77 -140 -168
c0 -84 47 -126 107 -126h1c85 0 131 92 131 182z" />
    <glyph glyph-name="A" unicode="A" horiz-adv-x="740" 
d="M12 0l316 740h83l318 -740h-81l-107 249h-344l-108 -249h-77zM370 656l-145 -340h287z" />
    <glyph glyph-name="B" unicode="B" horiz-adv-x="574" 
d="M74 0v740h186c233 0 242 -167 242 -197c0 -87 -55 -128 -81 -149c74 -30 123 -97 123 -182c0 -71 -33 -136 -85 -171c-58 -34 -105 -41 -181 -41h-204zM148 354v-287h104c62 0 100 3 140 19c46 19 78 70 78 126c0 57 -38 106 -87 125c-35 14 -65 17 -144 17h-91zM148 673
v-252h93c58 0 91 3 127 21c35 18 60 60 60 104c0 34 -12 58 -31 81c-29 33 -74 46 -150 46h-99z" />
    <glyph glyph-name="C" unicode="C" horiz-adv-x="813" 
d="M688 194h83c-79 -145 -222 -207 -341 -207c-207 0 -387 163 -387 382s175 383 386 383c190 0 310 -133 339 -202h-83c-81 121 -212 135 -257 135c-173 0 -311 -152 -311 -317c0 -173 152 -314 312 -314c37 0 158 5 259 140z" />
    <glyph glyph-name="D" unicode="D" horiz-adv-x="744" 
d="M74 0v740h216c91 0 181 -22 241 -61c130 -81 168 -222 168 -311c0 -69 -27 -217 -168 -307c-60 -39 -150 -61 -241 -61h-216zM148 673v-606h107c67 0 169 0 254 60c45 38 116 115 116 244c0 98 -49 189 -126 245c-66 43 -135 57 -244 57h-107z" />
    <glyph glyph-name="E" unicode="E" horiz-adv-x="536" 
d="M70 0v740h405v-67h-331v-266h320v-67h-320v-273h331v-67h-405z" />
    <glyph glyph-name="F" unicode="F" horiz-adv-x="485" 
d="M70 0v740h374v-67h-300v-268h289v-67h-289v-338h-74z" />
    <glyph glyph-name="G" unicode="G" horiz-adv-x="872" 
d="M326 340h502c-17 -220 -209 -353 -391 -353c-221 0 -397 179 -397 383c0 192 159 383 396 383c196 0 321 -135 350 -210h-86c-42 73 -140 143 -263 143c-187 0 -323 -152 -323 -317s136 -315 326 -315c157 0 273 116 299 219h-413v67z" />
    <glyph glyph-name="H" unicode="H" horiz-adv-x="683" 
d="M76 0v740h74v-326h383v326h74v-740h-74v347h-383v-347h-74z" />
    <glyph glyph-name="I" unicode="I" horiz-adv-x="226" 
d="M76 0v740h74v-740h-74z" />
    <glyph glyph-name="J" unicode="J" horiz-adv-x="482" 
d="M402 740v-505c-1 -60 -2 -95 -19 -141c-32 -67 -96 -107 -176 -107c-90 0 -194 57 -201 189h73c6 -80 66 -122 129 -122c119 1 120 110 120 178v508h74z" />
    <glyph glyph-name="K" unicode="K" horiz-adv-x="591" 
d="M81 0v740h74v-425h2l339 425h95l-293 -361l293 -379h-93l-247 321l-96 -118v-203h-74z" />
    <glyph glyph-name="L" unicode="L" horiz-adv-x="462" 
d="M82 0v740h74v-673h306v-67h-380z" />
    <glyph glyph-name="M" unicode="M" horiz-adv-x="919" 
d="M76 0v740h114l269 -630l270 630h114v-740h-74v659h-2l-277 -659h-63l-275 659h-2v-659h-74z" />
    <glyph glyph-name="N" unicode="N" horiz-adv-x="740" 
d="M75 0v740h100l413 -614h2v614h74v-740h-74l-439 651h-2v-651h-74z" />
    <glyph glyph-name="O" unicode="O" horiz-adv-x="869" 
d="M43 366c0 233 194 387 391 387c208 0 392 -165 392 -383s-185 -383 -392 -383c-210 0 -391 171 -391 379zM117 366c0 -169 145 -312 317 -312c171 0 318 139 318 315c0 173 -143 317 -318 317c-167 0 -317 -136 -317 -320z" />
    <glyph glyph-name="P" unicode="P" horiz-adv-x="592" 
d="M75 0v740h206c102 0 150 -16 191 -43c55 -37 92 -100 92 -178s-37 -141 -92 -178c-41 -27 -89 -43 -191 -43h-132v-298h-74zM149 673v-308h107c79 0 106 0 148 19c58 27 86 79 86 135s-28 108 -86 135c-42 19 -69 19 -148 19h-107z" />
    <glyph glyph-name="Q" unicode="Q" horiz-adv-x="871" 
d="M825 54v-67c-92 0 -126 30 -165 64c-95 -63 -200 -64 -222 -64c-222 0 -398 172 -398 380c0 194 150 386 399 386c228 0 398 -169 398 -389c0 -98 -40 -193 -122 -270c45 -38 76 -40 110 -40zM157 216c20 -39 107 -162 283 -162c20 0 96 0 163 48c-14 11 -84 65 -101 75
c-97 60 -214 60 -230 60c-61 0 -88 -10 -115 -21zM127 279c29 9 78 25 156 25c184 0 288 -85 378 -162c73 71 102 151 102 224c0 185 -151 320 -323 320c-164 0 -326 -125 -326 -323c0 -37 6 -61 13 -84z" />
    <glyph glyph-name="R" unicode="R" horiz-adv-x="607" 
d="M70 0v740h188c99 0 148 -12 182 -28c83 -39 132 -120 132 -211c0 -107 -77 -216 -220 -225l209 -276h-93l-251 335c94 0 126 1 159 11c81 23 122 91 122 157c0 58 -33 118 -81 142c-44 23 -82 28 -144 28h-129v-673h-74z" />
    <glyph glyph-name="S" unicode="S" horiz-adv-x="498" 
d="M22 207h74c4 -93 63 -153 154 -153c78 0 149 60 149 147c0 114 -115 143 -165 158c-67 20 -192 48 -192 195c0 115 91 199 208 199c121 0 205 -93 205 -201h-74c0 75 -61 134 -131 134c-85 0 -134 -65 -134 -129c0 -90 79 -111 176 -139c180 -48 181 -189 181 -213v-1
c0 -114 -92 -217 -223 -217c-96 0 -225 57 -228 220z" />
    <glyph glyph-name="T" unicode="T" horiz-adv-x="426" 
d="M176 0v673h-170v67h413v-67h-169v-673h-74z" />
    <glyph glyph-name="U" unicode="U" horiz-adv-x="655" 
d="M75 740h74v-461c0 -54 8 -103 25 -134c45 -83 118 -91 153 -91s108 8 153 91c17 31 25 80 25 134v461h74v-461c0 -62 -10 -115 -28 -154c-51 -111 -155 -138 -224 -138s-173 27 -224 138c-18 39 -28 92 -28 154v461z" />
    <glyph glyph-name="V" unicode="V" horiz-adv-x="702" 
d="M313 0l-305 740h82l261 -648l262 648h80l-307 -740h-73z" />
    <glyph glyph-name="W" unicode="W" horiz-adv-x="960" 
d="M222 0l-211 740h76l181 -645h2l176 645h69l177 -644h2l181 644h75l-212 -740h-94l-163 607h-2l-162 -607h-95z" />
    <glyph glyph-name="X" unicode="X" horiz-adv-x="609" 
d="M8 0l251 378l-237 362h87l197 -296l195 296h86l-238 -362l253 -378h-88l-208 316l-211 -316h-87z" />
    <glyph glyph-name="Y" unicode="Y" horiz-adv-x="592" 
d="M258 0v247l-257 493h82l211 -415l217 415h81l-260 -493v-247h-74z" />
    <glyph glyph-name="Z" unicode="Z" horiz-adv-x="480" 
d="M12 0v67l364 606h-353v67h436v-67l-363 -606h374v-67h-458z" />
    <glyph glyph-name="bracketleft" unicode="[" horiz-adv-x="351" 
d="M337 -104v-75c-79 22 -204 93 -204 276v378c0 204 158 267 204 278v-75c-74 -32 -130 -88 -130 -203v-365c0 -72 7 -159 130 -214z" />
    <glyph glyph-name="backslash" unicode="\" horiz-adv-x="605" 
d="M197 740l280 -840h-76l-283 840h79z" />
    <glyph glyph-name="bracketright" unicode="]" horiz-adv-x="351" 
d="M14 -179v75c123 55 130 142 130 214v365c0 115 -56 171 -130 203v75c46 -11 204 -74 204 -278v-378c0 -183 -125 -254 -204 -276z" />
    <glyph glyph-name="asciicircum" unicode="^" horiz-adv-x="606" 
d="M53 307l218 433h64l218 -433h-70l-181 360l-178 -360h-71z" />
    <glyph glyph-name="underscore" unicode="_" horiz-adv-x="500" 
d="M0 -75h500v-50h-500v50z" />
    <glyph glyph-name="quoteleft" unicode="&#x2018;" horiz-adv-x="351" 
d="M257 546h-74l-88 194h74z" />
    <glyph glyph-name="a" unicode="a" horiz-adv-x="683" 
d="M621 547v-547h-70v96h-2c-60 -90 -156 -109 -213 -109c-172 0 -294 131 -294 288c0 146 115 286 294 286c59 0 155 -19 213 -110h2v96h70zM112 272c0 -122 90 -222 224 -222c118 0 219 95 219 223c0 120 -93 225 -219 225c-120 0 -224 -87 -224 -226z" />
    <glyph glyph-name="b" unicode="b" horiz-adv-x="682" 
d="M68 0v740h70v-289h2c62 89 154 110 213 110c179 0 294 -140 294 -286c0 -157 -122 -288 -294 -288c-57 0 -152 20 -213 109h-2v-96h-70zM577 272c0 139 -104 226 -224 226c-126 0 -219 -105 -219 -225c0 -128 101 -223 219 -223c134 0 224 100 224 222z" />
    <glyph glyph-name="c" unicode="c" horiz-adv-x="647" 
d="M530 161h77c-35 -68 -108 -174 -272 -174c-171 0 -294 133 -294 286c0 158 131 288 294 288c96 0 219 -48 272 -179h-77c-44 83 -124 116 -193 116c-107 0 -226 -80 -226 -223c0 -123 95 -225 226 -225c114 0 171 69 193 111z" />
    <glyph glyph-name="d" unicode="d" horiz-adv-x="685" 
d="M618 740v-740h-70v96h-2c-58 -87 -155 -109 -213 -109c-172 0 -294 131 -294 288c0 146 115 286 294 286c60 0 154 -22 213 -108h2v287h70zM109 272c0 -122 90 -222 224 -222c118 0 219 95 219 223c0 120 -93 225 -219 225c-120 0 -224 -87 -224 -226z" />
    <glyph glyph-name="e" unicode="e" horiz-adv-x="650" 
d="M608 248h-498c5 -107 105 -198 212 -198c100 2 171 61 196 129h74c-38 -109 -143 -192 -269 -192c-153 0 -285 124 -285 286c0 155 125 285 284 288c120 -1 205 -72 244 -140c32 -52 43 -105 43 -153c0 -7 -1 -13 -1 -20zM110 311h427c-22 129 -127 187 -214 187
c-86 0 -193 -58 -213 -187z" />
    <glyph glyph-name="f" unicode="f" horiz-adv-x="314" 
d="M104 0v484h-85v63h85c2 76 8 204 210 206v-65c-138 0 -140 -85 -140 -137v-4h140v-63h-140v-484h-70z" />
    <glyph glyph-name="g" unicode="g" horiz-adv-x="673" 
d="M606 547v-461c0 -59 0 -133 -50 -200c-69 -96 -195 -101 -217 -101c-78 0 -230 30 -280 201h74c18 -45 72 -138 205 -138c92 0 198 53 198 204v48h-2c-41 -78 -131 -113 -211 -113c-144 0 -286 112 -286 284c0 174 142 290 286 290c50 0 148 -15 211 -112h2v98h70z
M107 273c0 -119 92 -223 216 -223c145 0 217 130 217 223c0 120 -94 225 -217 225c-124 0 -216 -105 -216 -225z" />
    <glyph glyph-name="h" unicode="h" horiz-adv-x="610" 
d="M62 0v740h70v-263h2c21 33 75 84 168 84c67 0 123 -17 173 -67c41 -40 68 -103 68 -193v-301h-70v301c0 71 -22 121 -52 150c-38 37 -88 47 -119 47s-81 -10 -119 -47c-29 -28 -51 -77 -51 -145v-306h-70z" />
    <glyph glyph-name="i" unicode="i" horiz-adv-x="200" 
d="M65 0v547h70v-547h-70zM65 614v126h70v-126h-70z" />
    <glyph glyph-name="j" unicode="j" horiz-adv-x="203" 
d="M137 547v-509c0 -66 0 -133 -60 -186c-48 -42 -90 -43 -121 -44v69c92 3 111 67 111 161v509h70zM67 614v126h70v-126h-70z" />
    <glyph glyph-name="k" unicode="k" horiz-adv-x="502" 
d="M70 0v740h70v-527h2l255 334h90l-216 -276l227 -271h-90l-180 216l-88 -112v-104h-70z" />
    <glyph glyph-name="l" unicode="l" horiz-adv-x="200" 
d="M65 0v740h70v-740h-70z" />
    <glyph glyph-name="m" unicode="m" horiz-adv-x="938" 
d="M136 547v-63c31 49 85 77 149 77c79 0 146 -38 184 -105c43 69 106 105 184 105c129 0 219 -90 219 -236v-325h-70v317c0 117 -56 181 -149 181s-149 -64 -149 -181v-317h-70v317c0 117 -56 181 -149 181s-149 -64 -149 -181v-317h-70v547h70z" />
    <glyph glyph-name="n" unicode="n" horiz-adv-x="610" 
d="M65 0v547h70v-70h2c21 33 75 84 168 84c67 0 123 -17 173 -67c41 -40 68 -103 68 -193v-301h-70v301c0 71 -22 121 -52 150c-38 37 -88 47 -119 47s-81 -10 -119 -47c-29 -28 -51 -77 -51 -145v-306h-70z" />
    <glyph glyph-name="o" unicode="o" horiz-adv-x="655" 
d="M42 270c0 173 141 291 285 291c162 0 287 -137 287 -287c0 -149 -123 -287 -287 -287c-160 0 -285 135 -285 283zM112 271c0 -127 103 -221 216 -221c106 0 216 84 216 227c0 144 -122 221 -216 221c-100 0 -216 -82 -216 -227z" />
    <glyph glyph-name="p" unicode="p" horiz-adv-x="682" 
d="M64 -192v739h70v-96h2c63 90 154 110 213 110c179 0 294 -140 294 -286c0 -157 -122 -288 -294 -288c-57 0 -152 20 -213 109h-2v-288h-70zM573 272c0 139 -104 226 -224 226c-126 0 -219 -105 -219 -225c0 -128 101 -223 219 -223c134 0 224 100 224 222z" />
    <glyph glyph-name="q" unicode="q" horiz-adv-x="682" 
d="M616 547v-739h-70v288h-2c-59 -90 -156 -109 -213 -109c-172 0 -294 131 -294 288c0 146 115 286 294 286c59 0 155 -20 213 -110h2v96h70zM107 272c0 -122 90 -222 224 -222c118 0 219 95 219 223c0 120 -93 225 -219 225c-120 0 -224 -87 -224 -226z" />
    <glyph glyph-name="r" unicode="r" horiz-adv-x="301" 
d="M65 0v547h70v-79h2c33 77 95 89 154 93v-74c-49 -4 -91 -22 -118 -54c-24 -30 -38 -69 -38 -113v-320h-70z" />
    <glyph glyph-name="s" unicode="s" horiz-adv-x="388" 
d="M24 162h70c2 -104 73 -112 98 -112c66 0 102 39 102 98c0 75 -68 92 -109 109c-56 19 -145 49 -145 152c0 77 55 152 156 152c81 0 149 -62 149 -147v-2h-70c-5 67 -51 86 -82 86c-56 0 -83 -45 -83 -82c0 -58 58 -78 98 -91c64 -21 156 -56 156 -169v-2
c0 -93 -57 -167 -172 -167c-75 0 -168 50 -168 169v6z" />
    <glyph glyph-name="t" unicode="t" horiz-adv-x="339" 
d="M129 0v484h-115v63h115v193h70v-193h131v-63h-131v-484h-70z" />
    <glyph glyph-name="u" unicode="u" horiz-adv-x="608" 
d="M541 547v-547h-66v85h-2c-20 -41 -73 -98 -175 -98c-108 0 -164 52 -188 82c-39 48 -48 118 -48 176v302h70v-301c0 -69 15 -114 39 -144c38 -43 89 -52 127 -52c39 0 81 9 116 44c32 32 57 68 57 164v289h70z" />
    <glyph glyph-name="v" unicode="v" 
d="M238 0l-231 547h75l193 -460l196 460h75l-231 -547h-77z" />
    <glyph glyph-name="w" unicode="w" horiz-adv-x="831" 
d="M221 0l-208 547h73l172 -458h2l125 392h61l126 -392h2l174 458h72l-209 -547h-79l-116 364h-2l-114 -364h-79z" />
    <glyph glyph-name="x" unicode="x" horiz-adv-x="480" 
d="M12 0l187 278l-187 269h84l144 -211l143 211h85l-187 -269l187 -278h-83l-145 219l-145 -219h-83z" />
    <glyph glyph-name="y" unicode="y" horiz-adv-x="536" 
d="M133 -192l95 210l-213 529h74l174 -436l186 436h74l-317 -739h-73z" />
    <glyph glyph-name="z" unicode="z" horiz-adv-x="425" 
d="M10 0v61l303 423h-293v63h377v-63l-300 -421h318v-63h-405z" />
    <glyph glyph-name="braceleft" unicode="{" horiz-adv-x="351" 
d="M331 740v-60h-50c-39 0 -48 -44 -48 -86v-183c0 -94 -64 -128 -87 -134v-3c23 -3 87 -32 87 -134v-183c0 -41 9 -86 48 -86h50v-60h-66c-58 0 -106 46 -106 131v182c0 73 -43 117 -89 119v64c46 2 89 50 89 120v182c0 85 48 131 106 131h66z" />
    <glyph glyph-name="bar" unicode="|" horiz-adv-x="672" 
d="M299 778h74v-1000h-74v1000z" />
    <glyph glyph-name="braceright" unicode="}" horiz-adv-x="351" 
d="M20 680v60h66c58 0 106 -46 106 -131v-182c0 -70 43 -118 89 -120v-64c-46 -2 -89 -46 -89 -119v-182c0 -85 -48 -131 -106 -131h-66v60h50c39 0 48 45 48 86v183c0 102 64 131 87 134v3c-23 6 -87 40 -87 134v183c0 42 -9 86 -48 86h-50z" />
    <glyph glyph-name="asciitilde" unicode="~" horiz-adv-x="606" 
d="M498 319l36 -50c-30 -42 -63 -86 -125 -86c-37 0 -69 15 -102 33c-32 18 -69 39 -115 39c-44 0 -68 -41 -84 -76l-36 50c22 42 58 86 125 86c34 0 73 -15 111 -32c37 -16 75 -40 102 -40c40 0 65 41 88 76z" />
    <glyph glyph-name="exclamdown" unicode="&#xa1;" horiz-adv-x="295" 
d="M110 -192v547h74v-547h-74zM110 422v126h74v-126h-74z" />
    <glyph glyph-name="cent" unicode="&#xa2;" 
d="M320 62h-74v94c-115 17 -198 112 -198 227s83 210 198 227v97h74v-96c89 -11 160 -69 190 -148h-81c-23 41 -63 84 -144 84c-100 0 -163 -87 -163 -164s63 -164 163 -164c77 0 115 38 136 72h83c-30 -72 -99 -125 -184 -136v-93z" />
    <glyph glyph-name="sterling" unicode="&#xa3;" 
d="M29 0v63h148c22 34 35 76 35 119c-2 80 -58 116 -102 167h-106v63h59c-9 21 -22 52 -22 98c0 130 92 243 235 243c114 0 222 -79 237 -212h-72c-14 84 -76 149 -165 149c-90 0 -161 -71 -161 -180c0 -53 14 -75 29 -98h285v-63h-225v-2c50 -44 81 -101 82 -165
c0 -51 -19 -91 -30 -119h43c51 0 178 13 179 153c0 21 -5 35 -9 52h74c5 -16 9 -29 9 -56c0 -59 -30 -212 -250 -212h-273z" />
    <glyph glyph-name="fraction" unicode="&#x2044;" horiz-adv-x="166" 
d="M-113 0l333 740h60l-333 -740h-60z" />
    <glyph glyph-name="yen" unicode="&#xa5;" 
d="M240 0v227h-207v63h207v58l-17 26h-190v63h152l-181 303h80l194 -325l192 325h80l-181 -303h152v-63h-190l-17 -26v-58h207v-64h-207v-226h-74z" />
    <glyph glyph-name="florin" unicode="&#x192;" 
d="M364 584h112l-12 -67h-112l-81 -431c-17 -95 -25 -136 -72 -183c-53 -54 -136 -56 -155 -56c-31 0 -48 5 -56 7l13 64c10 -2 27 -6 50 -6c109 0 131 72 151 181l81 424h-114l13 67h112l4 22c21 112 58 146 75 161c55 51 113 51 124 51c4 0 6 0 21 -2l-11 -67
c-6 1 -10 1 -15 1c-96 0 -115 -97 -124 -144z" />
    <glyph glyph-name="section" unicode="&#xa7;" horiz-adv-x="615" 
d="M482 606h-74c0 46 -35 80 -96 80c-65 0 -104 -40 -104 -97c0 -36 16 -64 57 -84l147 -73c52 -26 117 -60 117 -151c0 -34 -23 -97 -81 -135c41 -35 52 -75 52 -119c0 -84 -73 -168 -188 -168c-121 0 -199 89 -203 205h74c6 -97 62 -138 129 -138c73 0 114 53 114 101
c0 41 -11 69 -90 110l-155 80c-38 20 -96 55 -96 130c0 78 60 122 89 144c-40 40 -40 93 -40 101c0 90 75 161 178 161c99 0 170 -53 170 -147zM393 366l-175 87c-42 -24 -59 -68 -59 -102c0 -41 27 -64 52 -76l188 -94c37 22 56 64 56 99c0 47 -37 73 -62 86z" />
    <glyph glyph-name="currency" unicode="&#xa4;" 
d="M277 467c-86 0 -154 -74 -154 -156c0 -84 68 -158 154 -158c88 0 156 74 156 158c0 82 -68 156 -156 156zM52 42l-44 42l98 98c-27 33 -43 79 -43 129s18 98 43 129l-98 96l44 44l96 -98c33 27 79 43 129 43c52 0 100 -18 129 -43l98 98l42 -44l-96 -96
c25 -31 43 -79 43 -129c0 -52 -18 -98 -43 -129l96 -98l-42 -42l-98 96c-31 -25 -77 -43 -129 -43s-98 18 -129 43z" />
    <glyph glyph-name="quotesingle" unicode="'" horiz-adv-x="198" 
d="M128 444h-57l-12 296h81z" />
    <glyph glyph-name="quotedblleft" unicode="&#x201c;" horiz-adv-x="502" 
d="M406 546h-74l-87 194h73zM259 546h-74l-88 194h74z" />
    <glyph glyph-name="guillemotleft" unicode="&#xab;" horiz-adv-x="425" 
d="M153 81l-113 201l113 199l59 -31l-94 -168l94 -168zM327 81l-113 201l113 199l59 -31l-95 -168l95 -168z" />
    <glyph glyph-name="guilsinglleft" unicode="&#x2039;" horiz-adv-x="251" 
d="M153 81l-113 201l113 199l59 -31l-94 -168l94 -168z" />
    <glyph glyph-name="guilsinglright" unicode="&#x203a;" horiz-adv-x="251" 
d="M97 81l-58 33l94 168l-94 168l58 31l114 -199z" />
    <glyph glyph-name="fi" unicode="&#xfb01;" horiz-adv-x="487" 
d="M352 484h-178v-484h-70v484h-85v63h85c2 76 8 204 210 206v-65c-138 0 -140 -85 -140 -137v-4h248v-547h-70v484zM352 614v126h70v-126h-70z" />
    <glyph glyph-name="fl" unicode="&#xfb02;" horiz-adv-x="485" 
d="M350 484h-176v-484h-70v484h-85v63h85c2 76 8 204 210 206v-65c-138 0 -140 -85 -140 -137v-4h176v193h70v-740h-70v484z" />
    <glyph glyph-name="endash" unicode="&#x2013;" horiz-adv-x="500" 
d="M35 315h430v-67h-430v67z" />
    <glyph glyph-name="dagger" unicode="&#x2020;" horiz-adv-x="553" 
d="M313 740v-201h180v-67h-180v-605h-74v605h-180v67h180v201h74z" />
    <glyph glyph-name="daggerdbl" unicode="&#x2021;" horiz-adv-x="553" 
d="M313 740v-201h180v-67h-180v-337h180v-67h-180v-201h-74v201h-180v67h180v337h-180v67h180v201h74z" />
    <glyph glyph-name="periodcentered" unicode="&#xb7;" horiz-adv-x="277" 
d="M102 190v126h74v-126h-74z" />
    <glyph glyph-name="paragraph" unicode="&#xb6;" horiz-adv-x="564" 
d="M243 -110v458h-17c-118 0 -204 78 -204 194c0 76 39 135 88 166c31 19 91 32 155 32h286v-56h-64v-794h-62v794h-120v-794h-62z" />
    <glyph glyph-name="bullet" unicode="&#x2022;" horiz-adv-x="606" 
d="M304 532c83 0 151 -70 151 -155c0 -86 -69 -155 -152 -155c-85 0 -153 71 -153 155c0 82 65 155 154 155z" />
    <glyph glyph-name="quotesinglbase" unicode="&#x201a;" horiz-adv-x="354" 
d="M163 -68h-74l88 194h74z" />
    <glyph glyph-name="quotedblbase" unicode="&#x201e;" horiz-adv-x="502" 
d="M89 -68l88 194h74l-88 -194h-74zM237 -68l88 194h74l-88 -194h-74z" />
    <glyph glyph-name="quotedblright" unicode="&#x201d;" horiz-adv-x="484" 
d="M170 546h-74l88 194h73zM317 546h-74l88 194h74z" />
    <glyph glyph-name="guillemotright" unicode="&#xbb;" horiz-adv-x="425" 
d="M271 81l-58 33l94 168l-94 168l58 31l114 -199zM97 81l-58 33l94 168l-94 168l58 31l114 -199z" />
    <glyph glyph-name="ellipsis" unicode="&#x2026;" horiz-adv-x="1000" 
d="M130 0v126h74v-126h-74zM463 0v126h74v-126h-74zM796 0v126h74v-126h-74z" />
    <glyph glyph-name="perthousand" unicode="&#x2030;" horiz-adv-x="1174" 
d="M455 166c0 -68 53 -123 121 -123s121 55 121 123s-53 123 -121 123s-121 -55 -121 -123zM395 166c0 99 82 179 181 179s181 -80 181 -179s-82 -179 -181 -179s-181 80 -181 179zM786 166c0 99 82 179 181 179s181 -80 181 -179s-82 -179 -181 -179s-181 80 -181 179z
M846 166c0 -68 53 -123 121 -123s121 55 121 123s-53 123 -121 123s-121 -55 -121 -123zM25 572c0 99 82 179 181 179s181 -80 181 -179s-82 -179 -181 -179s-181 80 -181 179zM85 572c0 -68 53 -123 121 -123s121 55 121 123s-53 123 -121 123s-121 -55 -121 -123zM634 740
l-424 -740h-68l424 740h68z" />
    <glyph glyph-name="questiondown" unicode="&#xbf;" horiz-adv-x="591" 
d="M453 39h74v-19c0 -117 -101 -225 -235 -225s-227 101 -227 222c0 80 39 119 106 183c30 30 79 76 83 155h74v-4c0 -100 -69 -166 -105 -199c-47 -44 -84 -77 -84 -137c0 -73 62 -150 156 -150c63 0 105 33 135 73c23 35 23 71 23 101zM328 548v-126h-74v126h74z" />
    <glyph glyph-name="grave" unicode="`" horiz-adv-x="378" 
d="M101 786l199 -109l-33 -58l-198 107z" />
    <glyph glyph-name="acute" unicode="&#xb4;" horiz-adv-x="375" 
d="M78 677l199 109l32 -60l-198 -107z" />
    <glyph glyph-name="circumflex" unicode="&#x2c6;" horiz-adv-x="502" 
d="M74 639l145 125h66l143 -125h-89l-86 73l-88 -73h-91z" />
    <glyph glyph-name="tilde" unicode="&#x2dc;" horiz-adv-x="439" 
d="M356 739l36 -49c-32 -24 -68 -39 -98 -39c-33 0 -61 13 -80 21c-30 14 -44 20 -65 20c-24 0 -49 -13 -67 -30l-35 50c30 28 65 42 104 42c34 0 55 -10 80 -22c10 -4 39 -19 62 -19c21 0 33 8 63 26z" />
    <glyph glyph-name="macron" unicode="&#xaf;" horiz-adv-x="485" 
d="M73 736h338v-67h-338v67z" />
    <glyph glyph-name="breve" unicode="&#x2d8;" horiz-adv-x="453" 
d="M52 754h65c33 -46 99 -46 109 -46c11 0 77 0 110 46h65c-32 -89 -119 -103 -175 -103c-52 0 -141 12 -174 103z" />
    <glyph glyph-name="dotaccent" unicode="&#x2d9;" horiz-adv-x="222" 
d="M74 765h74v-126h-74v126z" />
    <glyph glyph-name="dieresis" unicode="&#xa8;" horiz-adv-x="369" 
d="M73 765h74v-126h-74v126zM221 765h74v-126h-74v126z" />
    <glyph glyph-name="ring" unicode="&#x2da;" horiz-adv-x="332" 
d="M62 703c0 57 47 104 103 104c58 0 104 -46 104 -104c0 -57 -47 -103 -104 -103c-56 0 -103 46 -103 103zM114 703c0 -28 23 -51 51 -51c29 0 52 23 52 51c0 29 -23 52 -52 52c-27 0 -51 -23 -51 -52z" />
    <glyph glyph-name="cedilla" unicode="&#xb8;" horiz-adv-x="324" 
d="M177 0l-28 -56c10 3 16 4 24 4h9c43 -3 72 -39 72 -84v-2c-4 -51 -43 -84 -86 -84h-6c-38 3 -74 24 -83 77l42 2c4 -25 22 -40 43 -42h3c27 0 44 22 46 48v4c0 28 -17 45 -42 47h-6c-23 0 -33 -11 -40 -19l-36 21l46 87z" />
    <glyph glyph-name="hungarumlaut" unicode="&#x2dd;" horiz-adv-x="552" 
d="M109 651l161 135l41 -46l-164 -135zM284 651l162 135l40 -46l-164 -135z" />
    <glyph glyph-name="ogonek" unicode="&#x2db;" horiz-adv-x="302" 
d="M145 0h52c-50 -38 -75 -65 -75 -98c0 -37 36 -50 58 -50c16 0 33 4 48 10v-44c-12 -4 -27 -9 -51 -9c-72 0 -104 47 -104 90c0 57 49 86 72 101z" />
    <glyph glyph-name="caron" unicode="&#x2c7;" horiz-adv-x="502" 
d="M68 764h92l86 -73l88 73h89l-143 -125h-67z" />
    <glyph glyph-name="emdash" unicode="&#x2014;" horiz-adv-x="1000" 
d="M35 315h930v-67h-930v67z" />
    <glyph glyph-name="AE" unicode="&#xc6;" horiz-adv-x="992" 
d="M-20 0l515 740h412v-67h-317v-266h306v-67h-306v-273h317v-67h-391v250h-273l-174 -250h-89zM514 645l-224 -328h226v328h-2z" />
    <glyph glyph-name="ordfeminine" unicode="&#xaa;" horiz-adv-x="369" 
d="M356 745v-330h-60v52h-2c-25 -42 -71 -60 -120 -60c-99 0 -177 81 -177 174c0 86 71 172 177 172c35 0 90 -9 120 -60h2v52h60zM57 579c0 -61 52 -116 120 -116c67 0 122 47 122 118c0 66 -55 116 -122 116c-61 0 -120 -47 -120 -118z" />
    <glyph glyph-name="Lslash" unicode="&#x141;" horiz-adv-x="517" 
d="M59 257v77l78 56v350h74v-296l153 111v-77l-153 -111v-300h306v-67h-380v313z" />
    <glyph glyph-name="Oslash" unicode="&#xd8;" horiz-adv-x="868" 
d="M638 696l92 123l55 -40l-92 -123c106 -93 133 -205 133 -286c0 -218 -185 -383 -392 -383c-73 0 -138 19 -201 56l-94 -126l-55 40l93 126c-83 73 -134 176 -134 287c0 218 185 383 391 383c75 0 139 -19 204 -57zM219 139l377 502c-52 30 -102 45 -162 45
c-174 0 -317 -144 -317 -317c0 -78 30 -164 102 -230zM651 600l-377 -502c66 -38 125 -44 161 -44c168 0 317 138 317 315c0 90 -36 168 -101 231z" />
    <glyph glyph-name="OE" unicode="&#x152;" horiz-adv-x="1194" 
d="M751 740h391v-67h-317v-267h306v-67h-306v-272h317v-67h-391v151h-2c-55 -101 -188 -164 -308 -164c-213 0 -396 154 -396 384c0 221 180 382 387 382c120 0 262 -59 317 -160h2v147zM119 374c0 -200 159 -320 312 -320c163 0 321 126 321 317c0 170 -136 315 -316 315
c-181 0 -317 -142 -317 -312z" />
    <glyph glyph-name="ordmasculine" unicode="&#xba;" horiz-adv-x="369" 
d="M12 577c0 106 85 176 172 176c97 0 172 -81 172 -172c0 -92 -73 -174 -172 -174c-97 0 -172 80 -172 170zM72 579c0 -69 52 -116 113 -116c56 0 111 42 111 118c0 77 -62 116 -111 116c-54 0 -113 -42 -113 -118z" />
    <glyph glyph-name="ae" unicode="&#xe6;" horiz-adv-x="1157" 
d="M1113 247h-495c12 -131 124 -197 213 -197s169 56 194 128h70c-34 -114 -149 -191 -264 -191c-81 0 -168 39 -214 112h-2v-99h-70v99h-2c-58 -88 -141 -112 -217 -112c-193 0 -292 160 -292 285c0 124 99 289 293 289c93 0 173 -38 216 -115h2v101h70v-101h2
c38 71 132 115 213 115c118 -1 202 -72 242 -140c32 -52 42 -105 42 -154c0 -6 -1 -13 -1 -20zM618 310h425c-21 130 -125 188 -212 188c-86 0 -192 -58 -213 -188zM548 272c0 120 -87 226 -221 226c-133 0 -223 -112 -223 -228c0 -117 96 -220 222 -220
c117 0 222 87 222 222z" />
    <glyph glyph-name="dotlessi" unicode="&#x131;" horiz-adv-x="200" 
d="M65 0v547h70v-547h-70z" />
    <glyph glyph-name="lslash" unicode="&#x142;" horiz-adv-x="300" 
d="M113 335l-70 -52v71l70 51v335h70v-284l76 55v-70l-76 -55v-386h-70v335z" />
    <glyph glyph-name="oslash" unicode="&#xf8;" horiz-adv-x="653" 
d="M169 123l262 345c-34 21 -71 30 -104 30c-100 0 -216 -82 -216 -227c0 -58 21 -109 58 -148zM485 426l-264 -345c31 -20 68 -31 106 -31c106 0 216 84 216 227c0 63 -23 113 -58 149zM542 614l55 -41l-72 -94c54 -53 88 -127 88 -205c0 -149 -123 -287 -287 -287
c-54 0 -104 15 -145 42l-71 -93l-54 38l72 95c-54 53 -87 125 -87 201c0 173 141 291 285 291c54 0 103 -15 144 -41z" />
    <glyph glyph-name="oe" unicode="&#x153;" horiz-adv-x="1137" 
d="M34 270c0 173 141 291 285 291c110 0 204 -64 251 -152c47 89 140 150 250 152c118 -1 203 -72 242 -140c32 -52 43 -105 43 -153c0 -7 -1 -13 -1 -20h-497c6 -107 104 -198 213 -198c96 2 171 61 194 129h74c-36 -109 -145 -192 -267 -192c-108 0 -204 60 -253 151
c-47 -88 -139 -151 -249 -151c-160 0 -285 135 -285 283zM320 50c113 0 217 94 217 221c0 145 -117 227 -217 227s-216 -82 -216 -227c0 -127 103 -221 216 -221zM609 311h425c-21 129 -125 187 -212 187c-86 0 -192 -58 -213 -187z" />
    <glyph glyph-name="germandbls" unicode="&#xdf;" 
d="M61 0v481c0 95 9 141 35 180c34 53 102 92 172 92c114 0 205 -81 205 -209c0 -78 -33 -124 -88 -154c78 -27 140 -86 140 -190c0 -148 -113 -213 -208 -213c-84 0 -156 45 -184 122h-2v-109h-70zM131 481v-278h51c2 -91 63 -153 134 -153c64 0 139 49 139 143
c0 42 -14 81 -46 108c-46 41 -110 41 -151 41h-34v67h5c68 0 174 22 174 142c0 83 -59 139 -135 139c-50 0 -92 -28 -112 -66c-21 -37 -25 -73 -25 -143z" />
    <glyph glyph-name="onesuperior" unicode="&#xb9;" horiz-adv-x="332" 
d="M138 296v390h-75v54h135v-444h-60z" />
    <glyph glyph-name="minus" unicode="&#x2212;" horiz-adv-x="606" 
d="M51 219v68h504v-68h-504z" />
    <glyph glyph-name="degree" unicode="&#xb0;" horiz-adv-x="400" 
d="M56 565c0 80 64 144 144 144s144 -64 144 -144s-64 -144 -144 -144s-144 64 -144 144zM106 565c0 -47 35 -94 94 -94s94 47 94 94s-35 94 -94 94s-94 -47 -94 -94z" />
    <glyph glyph-name="oacute" unicode="&#xf3;" horiz-adv-x="655" 
d="M42 270c0 173 141 291 285 291c162 0 287 -137 287 -287c0 -149 -123 -287 -287 -287c-160 0 -285 135 -285 283zM112 271c0 -127 103 -221 216 -221c106 0 216 84 216 227c0 144 -122 221 -216 221c-100 0 -216 -82 -216 -227zM248 677l199 109l32 -60l-198 -107z" />
    <glyph glyph-name="Odieresis" unicode="&#xd6;" horiz-adv-x="869" 
d="M43 366c0 233 194 387 391 387c208 0 392 -165 392 -383s-185 -383 -392 -383c-210 0 -391 171 -391 379zM117 366c0 -169 145 -312 317 -312c171 0 318 139 318 315c0 173 -143 317 -318 317c-167 0 -317 -136 -317 -320zM323 928h74v-126h-74v126zM471 928h74v-126h-74
v126z" />
    <glyph glyph-name="odieresis" unicode="&#xf6;" horiz-adv-x="655" 
d="M42 270c0 173 141 291 285 291c162 0 287 -137 287 -287c0 -149 -123 -287 -287 -287c-160 0 -285 135 -285 283zM112 271c0 -127 103 -221 216 -221c106 0 216 84 216 227c0 144 -122 221 -216 221c-100 0 -216 -82 -216 -227zM216 765h74v-126h-74v126zM364 765h74
v-126h-74v126z" />
    <glyph glyph-name="Ecircumflex" unicode="&#xca;" horiz-adv-x="536" 
d="M70 0v740h405v-67h-331v-266h320v-67h-320v-273h331v-67h-405zM91 802l145 125h66l143 -125h-89l-86 73l-88 -73h-91z" />
    <glyph glyph-name="ucircumflex" unicode="&#xfb;" horiz-adv-x="608" 
d="M541 547v-547h-66v85h-2c-20 -41 -73 -98 -175 -98c-108 0 -164 52 -188 82c-39 48 -48 118 -48 176v302h70v-301c0 -69 15 -114 39 -144c38 -43 89 -52 127 -52c39 0 81 9 116 44c32 32 57 68 57 164v289h70zM127 639l145 125h66l143 -125h-89l-86 73l-88 -73h-91z" />
    <glyph glyph-name="onequarter" unicode="&#xbc;" horiz-adv-x="831" 
d="M183 0l333 740h60l-333 -740h-60zM478 132h151v222h-2zM175 296v390h-75v54h135v-444h-60zM629 0v78h-225v49l219 317h65v-312h41v-54h-41v-78h-59z" />
    <glyph glyph-name="logicalnot" unicode="&#xac;" horiz-adv-x="606" 
d="M555 388v-279h-68v211h-436v68h504z" />
    <glyph glyph-name="Edieresis" unicode="&#xcb;" horiz-adv-x="536" 
d="M70 0v740h405v-67h-331v-266h320v-67h-320v-273h331v-67h-405zM157 928h74v-126h-74v126zM305 928h74v-126h-74v126z" />
    <glyph glyph-name="onehalf" unicode="&#xbd;" horiz-adv-x="831" 
d="M164 0l333 740h60l-333 -740h-60zM156 296v390h-75v54h135v-444h-60zM451 0v49l158 147c55 51 81 76 81 117c0 40 -34 84 -87 84c-54 0 -88 -33 -88 -107h-60v5c0 141 115 156 150 156c92 0 145 -75 145 -135v-4c0 -65 -42 -102 -82 -140l-129 -118h210v-54h-298z" />
    <glyph glyph-name="Otilde" unicode="&#xd5;" horiz-adv-x="869" 
d="M43 366c0 233 194 387 391 387c208 0 392 -165 392 -383s-185 -383 -392 -383c-210 0 -391 171 -391 379zM117 366c0 -169 145 -312 317 -312c171 0 318 139 318 315c0 173 -143 317 -318 317c-167 0 -317 -136 -317 -320zM571 902l36 -49c-32 -24 -68 -39 -98 -39
c-33 0 -61 13 -80 21c-30 14 -44 20 -65 20c-24 0 -49 -13 -67 -30l-35 50c30 28 65 42 104 42c34 0 55 -10 80 -22c10 -4 39 -19 62 -19c21 0 33 8 63 26z" />
    <glyph glyph-name="uacute" unicode="&#xfa;" horiz-adv-x="608" 
d="M541 547v-547h-66v85h-2c-20 -41 -73 -98 -175 -98c-108 0 -164 52 -188 82c-39 48 -48 118 -48 176v302h70v-301c0 -69 15 -114 39 -144c38 -43 89 -52 127 -52c39 0 81 9 116 44c32 32 57 68 57 164v289h70zM215 677l199 109l32 -60l-198 -107z" />
    <glyph glyph-name="eacute" unicode="&#xe9;" horiz-adv-x="650" 
d="M608 248h-498c5 -107 105 -198 212 -198c100 2 171 61 196 129h74c-38 -109 -143 -192 -269 -192c-153 0 -285 124 -285 286c0 155 125 285 284 288c120 -1 205 -72 244 -140c32 -52 43 -105 43 -153c0 -7 -1 -13 -1 -20zM110 311h427c-22 129 -127 187 -214 187
c-86 0 -193 -58 -213 -187zM216 677l199 109l32 -60l-198 -107z" />
    <glyph glyph-name="iacute" unicode="&#xed;" horiz-adv-x="200" 
d="M65 0v547h70v-547h-70zM30 677l199 109l32 -60l-198 -107z" />
    <glyph glyph-name="Eth" unicode="&#xd0;" horiz-adv-x="790" 
d="M114 347h-74v67h74v326h212c332 0 413 -242 413 -372c0 -100 -58 -368 -409 -368h-216v347zM398 347h-210v-280h107c67 0 169 0 254 60c45 38 116 115 116 244c0 98 -49 189 -126 245c-66 43 -135 57 -244 57h-107v-259h210v-67z" />
    <glyph glyph-name="icircumflex" unicode="&#xee;" horiz-adv-x="200" 
d="M65 0v547h70v-547h-70zM-77 639l145 125h66l143 -125h-89l-86 73l-88 -73h-91z" />
    <glyph glyph-name="registered" unicode="&#xae;" horiz-adv-x="747" 
d="M210 585h184c27 0 154 0 154 -119c0 -48 -22 -92 -81 -106v-2c60 -17 71 -53 73 -109c4 -74 4 -83 14 -101h-55c-8 13 -11 26 -13 81c0 69 -12 104 -112 104h-109v-185h-55v437zM265 534v-151h110c29 0 118 0 118 80c0 71 -79 71 -108 71h-120zM374 752
c212 0 381 -173 381 -382c0 -212 -173 -382 -381 -382c-214 0 -383 173 -383 382c0 208 168 382 383 382zM373 701c-186 0 -327 -152 -327 -331c0 -181 144 -331 327 -331c180 0 327 147 327 331c0 179 -142 331 -327 331z" />
    <glyph glyph-name="brokenbar" unicode="&#xa6;" horiz-adv-x="672" 
d="M299 703h74v-350h-74v350zM299 203h74v-350h-74v350z" />
    <glyph glyph-name="thorn" unicode="&#xfe;" horiz-adv-x="682" 
d="M64 -192v932h70v-289h2c62 90 154 110 213 110c179 0 294 -140 294 -286c0 -157 -122 -288 -294 -288c-57 0 -152 20 -213 109h-2v-288h-70zM573 272c0 139 -104 226 -224 226c-126 0 -219 -105 -219 -225c0 -128 101 -223 219 -223c134 0 224 100 224 222z" />
    <glyph glyph-name="Atilde" unicode="&#xc3;" horiz-adv-x="740" 
d="M12 0l316 740h83l318 -740h-81l-107 249h-344l-108 -249h-77zM370 656l-145 -340h287zM507 902l36 -49c-32 -24 -68 -39 -98 -39c-33 0 -61 13 -80 21c-30 14 -44 20 -65 20c-24 0 -49 -13 -67 -30l-35 50c30 28 65 42 104 42c34 0 55 -10 80 -22c10 -4 39 -19 62 -19
c21 0 33 8 63 26z" />
    <glyph glyph-name="yacute" unicode="&#xfd;" horiz-adv-x="536" 
d="M133 -192l95 210l-213 529h74l174 -436l186 436h74l-317 -739h-73zM179 677l199 109l32 -60l-198 -107z" />
    <glyph glyph-name="Aacute" unicode="&#xc1;" horiz-adv-x="740" 
d="M12 0l316 740h83l318 -740h-81l-107 249h-344l-108 -249h-77zM370 656l-145 -340h287zM261 840l199 109l32 -60l-198 -107z" />
    <glyph glyph-name="Ccedilla" unicode="&#xc7;" horiz-adv-x="813" 
d="M688 194h83c-79 -145 -222 -207 -340 -207l-22 -43c10 3 16 4 24 4h9c43 -3 72 -39 72 -84v-2c-4 -51 -43 -84 -86 -84h-6c-38 3 -74 24 -83 77l42 2c4 -25 22 -40 43 -42h3c27 0 44 22 46 48v4c0 28 -17 45 -42 47h-6c-23 0 -33 -11 -40 -19l-36 21l39 74
c-189 20 -345 175 -345 379c0 219 175 383 386 383c190 0 310 -133 339 -202h-83c-81 121 -212 135 -257 135c-173 0 -311 -152 -311 -317c0 -173 152 -314 312 -314c37 0 158 5 259 140z" />
    <glyph glyph-name="ntilde" unicode="&#xf1;" horiz-adv-x="610" 
d="M65 0v547h70v-70h2c21 33 75 84 168 84c67 0 123 -17 173 -67c41 -40 68 -103 68 -193v-301h-70v301c0 71 -22 121 -52 150c-38 37 -88 47 -119 47s-81 -10 -119 -47c-29 -28 -51 -77 -51 -145v-306h-70zM442 739l36 -49c-32 -24 -68 -39 -98 -39c-33 0 -61 13 -80 21
c-30 14 -44 20 -65 20c-24 0 -49 -13 -67 -30l-35 50c30 28 65 42 104 42c34 0 55 -10 80 -22c10 -4 39 -19 62 -19c21 0 33 8 63 26z" />
    <glyph glyph-name="eth" unicode="&#xf0;" horiz-adv-x="655" 
d="M112 272c0 -136 108 -221 214 -221c100 0 218 78 218 228c0 148 -123 216 -220 216c-83 0 -212 -59 -212 -223zM324 638l-155 -61l-50 39l145 55c-48 25 -91 41 -117 49l78 33c17 -5 63 -21 119 -51l133 51l48 -37l-125 -49c120 -86 214 -205 214 -381
c0 -177 -132 -298 -287 -298c-172 0 -285 141 -285 288c0 158 132 282 273 282h7c57 0 100 -13 146 -46l2 2c-36 49 -91 91 -146 124z" />
    <glyph glyph-name="Aring" unicode="&#xc5;" horiz-adv-x="740" 
d="M12 0l316 740h83l318 -740h-81l-107 249h-344l-108 -249h-77zM370 656l-145 -340h287zM266 851c0 57 47 104 103 104c58 0 104 -46 104 -104c0 -57 -47 -103 -104 -103c-56 0 -103 46 -103 103zM318 851c0 -28 23 -51 51 -51c29 0 52 23 52 51c0 29 -23 52 -52 52
c-27 0 -51 -23 -51 -52z" />
    <glyph glyph-name="mu" unicode="&#x3bc;" horiz-adv-x="608" 
d="M541 0h-66v85h-2c-20 -41 -73 -98 -175 -98c-88 0 -135 27 -166 69v-248h-70v739h70v-301c0 -69 14 -115 39 -144c37 -44 89 -52 127 -52c39 0 81 9 116 44c32 32 57 68 57 164v289h70v-547z" />
    <glyph glyph-name="Ugrave" unicode="&#xd9;" horiz-adv-x="655" 
d="M75 740h74v-461c0 -54 8 -103 25 -134c45 -83 118 -91 153 -91s108 8 153 91c17 31 25 80 25 134v461h74v-461c0 -62 -10 -115 -28 -154c-51 -111 -155 -138 -224 -138s-173 27 -224 138c-18 39 -28 92 -28 154v461zM220 949l199 -109l-33 -58l-198 107z" />
    <glyph glyph-name="Egrave" unicode="&#xc8;" horiz-adv-x="536" 
d="M70 0v740h405v-67h-331v-266h320v-67h-320v-273h331v-67h-405zM180 949l199 -109l-33 -58l-198 107z" />
    <glyph glyph-name="Scaron" unicode="&#x160;" horiz-adv-x="498" 
d="M22 207h74c4 -93 63 -153 154 -153c78 0 149 60 149 147c0 114 -115 143 -165 158c-67 20 -192 48 -192 195c0 115 91 199 208 199c121 0 205 -93 205 -201h-74c0 75 -61 134 -131 134c-85 0 -134 -65 -134 -129c0 -90 79 -111 176 -139c180 -48 181 -189 181 -213v-1
c0 -114 -92 -217 -223 -217c-96 0 -225 57 -228 220zM66 927h92l86 -73l88 73h89l-143 -125h-67z" />
    <glyph glyph-name="otilde" unicode="&#xf5;" horiz-adv-x="655" 
d="M42 270c0 173 141 291 285 291c162 0 287 -137 287 -287c0 -149 -123 -287 -287 -287c-160 0 -285 135 -285 283zM112 271c0 -127 103 -221 216 -221c106 0 216 84 216 227c0 144 -122 221 -216 221c-100 0 -216 -82 -216 -227zM464 739l36 -49c-32 -24 -68 -39 -98 -39
c-33 0 -61 13 -80 21c-30 14 -44 20 -65 20c-24 0 -49 -13 -67 -30l-35 50c30 28 65 42 104 42c34 0 55 -10 80 -22c10 -4 39 -19 62 -19c21 0 33 8 63 26z" />
    <glyph glyph-name="Ntilde" unicode="&#xd1;" horiz-adv-x="740" 
d="M75 0v740h100l413 -614h2v614h74v-740h-74l-439 651h-2v-651h-74zM507 902l36 -49c-32 -24 -68 -39 -98 -39c-33 0 -61 13 -80 21c-30 14 -44 20 -65 20c-24 0 -49 -13 -67 -30l-35 50c30 28 65 42 104 42c34 0 55 -10 80 -22c10 -4 39 -19 62 -19c21 0 33 8 63 26z" />
    <glyph glyph-name="Uacute" unicode="&#xda;" horiz-adv-x="655" 
d="M75 740h74v-461c0 -54 8 -103 25 -134c45 -83 118 -91 153 -91s108 8 153 91c17 31 25 80 25 134v461h74v-461c0 -62 -10 -115 -28 -154c-51 -111 -155 -138 -224 -138s-173 27 -224 138c-18 39 -28 92 -28 154v461zM238 840l199 109l32 -60l-198 -107z" />
    <glyph glyph-name="Acircumflex" unicode="&#xc2;" horiz-adv-x="740" 
d="M12 0l316 740h83l318 -740h-81l-107 249h-344l-108 -249h-77zM370 656l-145 -340h287zM193 802l145 125h66l143 -125h-89l-86 73l-88 -73h-91z" />
    <glyph glyph-name="ocircumflex" unicode="&#xf4;" horiz-adv-x="655" 
d="M42 270c0 173 141 291 285 291c162 0 287 -137 287 -287c0 -149 -123 -287 -287 -287c-160 0 -285 135 -285 283zM112 271c0 -127 103 -221 216 -221c106 0 216 84 216 227c0 144 -122 221 -216 221c-100 0 -216 -82 -216 -227zM151 639l145 125h66l143 -125h-89l-86 73
l-88 -73h-91z" />
    <glyph glyph-name="ydieresis" unicode="&#xff;" horiz-adv-x="536" 
d="M133 -192l95 210l-213 529h74l174 -436l186 436h74l-317 -739h-73zM157 765h74v-126h-74v126zM305 765h74v-126h-74v126z" />
    <glyph glyph-name="Eacute" unicode="&#xc9;" horiz-adv-x="536" 
d="M70 0v740h405v-67h-331v-266h320v-67h-320v-273h331v-67h-405zM159 840l199 109l32 -60l-198 -107z" />
    <glyph glyph-name="Ograve" unicode="&#xd2;" horiz-adv-x="869" 
d="M43 366c0 233 194 387 391 387c208 0 392 -165 392 -383s-185 -383 -392 -383c-210 0 -391 171 -391 379zM117 366c0 -169 145 -312 317 -312c171 0 318 139 318 315c0 173 -143 317 -318 317c-167 0 -317 -136 -317 -320zM347 949l199 -109l-33 -58l-198 107z" />
    <glyph glyph-name="acircumflex" unicode="&#xe2;" horiz-adv-x="683" 
d="M621 547v-547h-70v96h-2c-60 -90 -156 -109 -213 -109c-172 0 -294 131 -294 288c0 146 115 286 294 286c59 0 155 -19 213 -110h2v96h70zM112 272c0 -122 90 -222 224 -222c118 0 219 95 219 223c0 120 -93 225 -219 225c-120 0 -224 -87 -224 -226zM165 639l145 125h66
l143 -125h-89l-86 73l-88 -73h-91z" />
    <glyph glyph-name="multiply" unicode="&#xd7;" horiz-adv-x="606" 
d="M122 24l-48 48l182 182l-181 180l48 48l181 -180l180 180l48 -48l-180 -180l181 -182l-48 -48l-181 182z" />
    <glyph glyph-name="divide" unicode="&#xf7;" horiz-adv-x="606" 
d="M51 219v68h504v-68h-504zM266 393v126h74v-126h-74zM266 -13v126h74v-126h-74z" />
    <glyph glyph-name="ccedilla" unicode="&#xe7;" horiz-adv-x="647" 
d="M530 161h77c-35 -67 -106 -171 -266 -173l-22 -44c10 3 16 4 24 4h9c43 -3 72 -39 72 -84v-2c-4 -51 -43 -84 -86 -84h-6c-38 3 -74 24 -83 77l42 2c4 -25 22 -40 43 -42h3c27 0 44 22 46 48v4c0 28 -17 45 -42 47h-6c-23 0 -33 -11 -40 -19l-36 21l39 74
c-151 16 -257 141 -257 283c0 158 131 288 294 288c96 0 219 -48 272 -179h-77c-44 83 -124 116 -193 116c-107 0 -226 -80 -226 -223c0 -123 95 -225 226 -225c114 0 171 69 193 111z" />
    <glyph glyph-name="twosuperior" unicode="&#xb2;" horiz-adv-x="332" 
d="M19 296v49l158 147c55 51 81 76 81 117c0 40 -34 84 -87 84c-54 0 -88 -33 -88 -107h-60v5c0 141 115 156 150 156c92 0 145 -75 145 -135v-4c0 -65 -42 -102 -82 -140l-129 -118h210v-54h-298z" />
    <glyph glyph-name="ugrave" unicode="&#xf9;" horiz-adv-x="608" 
d="M541 547v-547h-66v85h-2c-20 -41 -73 -98 -175 -98c-108 0 -164 52 -188 82c-39 48 -48 118 -48 176v302h70v-301c0 -69 15 -114 39 -144c38 -43 89 -52 127 -52c39 0 81 9 116 44c32 32 57 68 57 164v289h70zM196 786l199 -109l-33 -58l-198 107z" />
    <glyph glyph-name="Agrave" unicode="&#xc0;" horiz-adv-x="740" 
d="M12 0l316 740h83l318 -740h-81l-107 249h-344l-108 -249h-77zM370 656l-145 -340h287zM282 949l199 -109l-33 -58l-198 107z" />
    <glyph glyph-name="Ucircumflex" unicode="&#xdb;" horiz-adv-x="655" 
d="M75 740h74v-461c0 -54 8 -103 25 -134c45 -83 118 -91 153 -91s108 8 153 91c17 31 25 80 25 134v461h74v-461c0 -62 -10 -115 -28 -154c-51 -111 -155 -138 -224 -138s-173 27 -224 138c-18 39 -28 92 -28 154v461zM151 802l145 125h66l143 -125h-89l-86 73l-88 -73h-91
z" />
    <glyph glyph-name="zcaron" unicode="&#x17e;" horiz-adv-x="425" 
d="M10 0v61l303 423h-293v63h377v-63l-300 -421h318v-63h-405zM30 764h92l86 -73l88 73h89l-143 -125h-67z" />
    <glyph glyph-name="Ydieresis" unicode="&#x178;" horiz-adv-x="592" 
d="M258 0v247l-257 493h82l211 -415l217 415h81l-260 -493v-247h-74zM185 928h74v-126h-74v126zM333 928h74v-126h-74v126z" />
    <glyph glyph-name="Adieresis" unicode="&#xc4;" horiz-adv-x="740" 
d="M12 0l316 740h83l318 -740h-81l-107 249h-344l-108 -249h-77zM370 656l-145 -340h287zM259 928h74v-126h-74v126zM407 928h74v-126h-74v126z" />
    <glyph glyph-name="Icircumflex" unicode="&#xce;" horiz-adv-x="226" 
d="M76 0v740h74v-740h-74zM-64 802l145 125h66l143 -125h-89l-86 73l-88 -73h-91z" />
    <glyph glyph-name="idieresis" unicode="&#xef;" horiz-adv-x="200" 
d="M65 0v547h70v-547h-70zM-11 765h74v-126h-74v126zM137 765h74v-126h-74v126z" />
    <glyph glyph-name="Oacute" unicode="&#xd3;" horiz-adv-x="869" 
d="M43 366c0 233 194 387 391 387c208 0 392 -165 392 -383s-185 -383 -392 -383c-210 0 -391 171 -391 379zM117 366c0 -169 145 -312 317 -312c171 0 318 139 318 315c0 173 -143 317 -318 317c-167 0 -317 -136 -317 -320zM365 840l199 109l32 -60l-198 -107z" />
    <glyph glyph-name="aring" unicode="&#xe5;" horiz-adv-x="683" 
d="M621 547v-547h-70v96h-2c-60 -90 -156 -109 -213 -109c-172 0 -294 131 -294 288c0 146 115 286 294 286c59 0 155 -19 213 -110h2v96h70zM112 272c0 -122 90 -222 224 -222c118 0 219 95 219 223c0 120 -93 225 -219 225c-120 0 -224 -87 -224 -226zM238 703
c0 57 47 104 103 104c58 0 104 -46 104 -104c0 -57 -47 -103 -104 -103c-56 0 -103 46 -103 103zM290 703c0 -28 23 -51 51 -51c29 0 52 23 52 51c0 29 -23 52 -52 52c-27 0 -51 -23 -51 -52z" />
    <glyph glyph-name="Yacute" unicode="&#xdd;" horiz-adv-x="592" 
d="M258 0v247l-257 493h82l211 -415l217 415h81l-260 -493v-247h-74zM207 840l199 109l32 -60l-198 -107z" />
    <glyph glyph-name="trademark" unicode="&#x2122;" horiz-adv-x="1000" 
d="M114 296v397h-105v47h265v-47h-105v-397h-55zM331 296v444h78l164 -365l164 365h79v-444h-55v372h-2l-163 -372h-46l-162 371h-2v-371h-55z" />
    <glyph glyph-name="threesuperior" unicode="&#xb3;" horiz-adv-x="332" 
d="M108 618h-60c1 98 71 129 121 129c72 0 120 -56 120 -117c0 -44 -22 -64 -41 -80c44 -27 70 -66 70 -115c0 -87 -70 -146 -148 -146c-29 0 -149 12 -152 156h60c2 -24 2 -42 16 -59c14 -21 36 -43 76 -43c53 0 87 36 88 91c-1 33 -25 73 -70 82c-13 3 -32 4 -57 4v54h24
c62 0 73 38 74 58c-1 21 -13 59 -62 61c-24 -2 -59 -15 -59 -75z" />
    <glyph glyph-name="Zcaron" unicode="&#x17d;" horiz-adv-x="480" 
d="M12 0v67l364 606h-353v67h436v-67l-363 -606h374v-67h-458zM57 927h92l86 -73l88 73h89l-143 -125h-67z" />
    <glyph glyph-name="threequarters" unicode="&#xbe;" horiz-adv-x="831" 
d="M533 132h151v222h-2zM253 0l333 740h60l-333 -740h-60zM684 0v78h-225v49l219 317h65v-312h41v-54h-41v-78h-59zM136 618h-60c1 98 71 129 121 129c72 0 120 -56 120 -117c0 -44 -22 -64 -41 -80c44 -27 70 -66 70 -115c0 -87 -70 -146 -148 -146c-29 0 -149 12 -152 156
h60c2 -24 2 -42 16 -59c14 -21 36 -43 76 -43c53 0 87 36 88 91c-1 33 -25 73 -70 82c-13 3 -22 3 -57 4v54h24c62 0 73 38 74 58c-1 21 -13 59 -62 61c-24 -2 -59 -15 -59 -75z" />
    <glyph glyph-name="Euro" unicode="&#x20ac;" 
d="M558 659l-29 -72c-29 49 -87 99 -178 99c-129 0 -179 -121 -179 -218h311l-25 -63h-287v-70h259l-25 -63h-232c1 -40 12 -106 36 -142c37 -56 91 -76 142 -76c57 0 133 27 159 72v-87c-14 -15 -65 -52 -159 -52c-84 0 -172 35 -220 131c-22 43 -30 98 -32 154h-91l25 63
h64v70h-89l25 63h65c0 142 76 285 253 285c101 0 177 -53 207 -94z" />
    <glyph glyph-name="ograve" unicode="&#xf2;" horiz-adv-x="655" 
d="M42 270c0 173 141 291 285 291c162 0 287 -137 287 -287c0 -149 -123 -287 -287 -287c-160 0 -285 135 -285 283zM112 271c0 -127 103 -221 216 -221c106 0 216 84 216 227c0 144 -122 221 -216 221c-100 0 -216 -82 -216 -227zM240 786l199 -109l-33 -58l-198 107z" />
    <glyph glyph-name="udieresis" unicode="&#xfc;" horiz-adv-x="608" 
d="M541 547v-547h-66v85h-2c-20 -41 -73 -98 -175 -98c-108 0 -164 52 -188 82c-39 48 -48 118 -48 176v302h70v-301c0 -69 15 -114 39 -144c38 -43 89 -52 127 -52c39 0 81 9 116 44c32 32 57 68 57 164v289h70zM193 765h74v-126h-74v126zM341 765h74v-126h-74v126z" />
    <glyph glyph-name="edieresis" unicode="&#xeb;" horiz-adv-x="650" 
d="M608 248h-498c5 -107 105 -198 212 -198c100 2 171 61 196 129h74c-38 -109 -143 -192 -269 -192c-153 0 -285 124 -285 286c0 155 125 285 284 288c120 -1 205 -72 244 -140c32 -52 43 -105 43 -153c0 -7 -1 -13 -1 -20zM110 311h427c-22 129 -127 187 -214 187
c-86 0 -193 -58 -213 -187zM214 765h74v-126h-74v126zM362 765h74v-126h-74v126z" />
    <glyph glyph-name="plusminus" unicode="&#xb1;" horiz-adv-x="606" 
d="M269 340v178h68v-178h218v-68h-218v-178h-68v178h-218v68h218zM51 -24v68h504v-68h-504z" />
    <glyph glyph-name="aacute" unicode="&#xe1;" horiz-adv-x="683" 
d="M621 547v-547h-70v96h-2c-60 -90 -156 -109 -213 -109c-172 0 -294 131 -294 288c0 146 115 286 294 286c59 0 155 -19 213 -110h2v96h70zM112 272c0 -122 90 -222 224 -222c118 0 219 95 219 223c0 120 -93 225 -219 225c-120 0 -224 -87 -224 -226zM232 677l199 109
l32 -60l-198 -107z" />
    <glyph glyph-name="Idieresis" unicode="&#xcf;" horiz-adv-x="226" 
d="M76 0v740h74v-740h-74zM2 928h74v-126h-74v126zM150 928h74v-126h-74v126z" />
    <glyph glyph-name="igrave" unicode="&#xec;" horiz-adv-x="200" 
d="M65 0v547h70v-547h-70zM-28 786l199 -109l-33 -58l-198 107z" />
    <glyph glyph-name="Iacute" unicode="&#xcd;" horiz-adv-x="226" 
d="M76 0v740h74v-740h-74zM43 840l199 109l32 -60l-198 -107z" />
    <glyph glyph-name="copyright" unicode="&#xa9;" horiz-adv-x="747" 
d="M571 447h-55c-19 84 -80 101 -137 101c-97 0 -160 -66 -160 -177s63 -177 160 -177c57 0 118 17 137 101h55c-9 -80 -85 -152 -192 -152c-131 0 -215 98 -215 228s84 228 215 228c107 0 183 -72 192 -152zM374 752c212 0 381 -173 381 -382c0 -212 -173 -382 -381 -382
c-214 0 -383 173 -383 382c0 208 168 382 383 382zM373 701c-186 0 -327 -152 -327 -331c0 -181 144 -331 327 -331c180 0 327 147 327 331c0 179 -142 331 -327 331z" />
    <glyph glyph-name="adieresis" unicode="&#xe4;" horiz-adv-x="683" 
d="M621 547v-547h-70v96h-2c-60 -90 -156 -109 -213 -109c-172 0 -294 131 -294 288c0 146 115 286 294 286c59 0 155 -19 213 -110h2v96h70zM112 272c0 -122 90 -222 224 -222c118 0 219 95 219 223c0 120 -93 225 -219 225c-120 0 -224 -87 -224 -226zM230 765h74v-126
h-74v126zM378 765h74v-126h-74v126z" />
    <glyph glyph-name="agrave" unicode="&#xe0;" horiz-adv-x="683" 
d="M621 547v-547h-70v96h-2c-60 -90 -156 -109 -213 -109c-172 0 -294 131 -294 288c0 146 115 286 294 286c59 0 155 -19 213 -110h2v96h70zM112 272c0 -122 90 -222 224 -222c118 0 219 95 219 223c0 120 -93 225 -219 225c-120 0 -224 -87 -224 -226zM254 786l199 -109
l-33 -58l-198 107z" />
    <glyph glyph-name="scaron" unicode="&#x161;" horiz-adv-x="388" 
d="M24 162h70c2 -104 73 -112 98 -112c66 0 102 39 102 98c0 75 -68 92 -109 109c-56 19 -145 49 -145 152c0 77 55 152 156 152c81 0 149 -62 149 -147v-2h-70c-5 67 -51 86 -82 86c-56 0 -83 -45 -83 -82c0 -58 58 -78 98 -91c64 -21 156 -56 156 -169v-2
c0 -93 -57 -167 -172 -167c-75 0 -168 50 -168 169v6zM11 764h92l86 -73l88 73h89l-143 -125h-67z" />
    <glyph glyph-name="Igrave" unicode="&#xcc;" horiz-adv-x="226" 
d="M76 0v740h74v-740h-74zM-15 949l199 -109l-33 -58l-198 107z" />
    <glyph glyph-name="Ocircumflex" unicode="&#xd4;" horiz-adv-x="869" 
d="M43 366c0 233 194 387 391 387c208 0 392 -165 392 -383s-185 -383 -392 -383c-210 0 -391 171 -391 379zM117 366c0 -169 145 -312 317 -312c171 0 318 139 318 315c0 173 -143 317 -318 317c-167 0 -317 -136 -317 -320zM258 802l145 125h66l143 -125h-89l-86 73
l-88 -73h-91z" />
    <glyph glyph-name="Thorn" unicode="&#xde;" horiz-adv-x="592" 
d="M60 0v740h74v-149h132c102 0 150 -16 191 -43c55 -37 92 -100 92 -178s-37 -141 -92 -178c-41 -27 -89 -43 -191 -43h-132v-149h-74zM134 524v-308h107c79 0 106 0 148 19c58 27 86 79 86 135s-28 108 -86 135c-42 19 -69 19 -148 19h-107z" />
    <glyph glyph-name="egrave" unicode="&#xe8;" horiz-adv-x="650" 
d="M608 248h-498c5 -107 105 -198 212 -198c100 2 171 61 196 129h74c-38 -109 -143 -192 -269 -192c-153 0 -285 124 -285 286c0 155 125 285 284 288c120 -1 205 -72 244 -140c32 -52 43 -105 43 -153c0 -7 -1 -13 -1 -20zM110 311h427c-22 129 -127 187 -214 187
c-86 0 -193 -58 -213 -187zM237 786l199 -109l-33 -58l-198 107z" />
    <glyph glyph-name="atilde" unicode="&#xe3;" horiz-adv-x="683" 
d="M621 547v-547h-70v96h-2c-60 -90 -156 -109 -213 -109c-172 0 -294 131 -294 288c0 146 115 286 294 286c59 0 155 -19 213 -110h2v96h70zM112 272c0 -122 90 -222 224 -222c118 0 219 95 219 223c0 120 -93 225 -219 225c-120 0 -224 -87 -224 -226zM478 739l36 -49
c-32 -24 -68 -39 -98 -39c-33 0 -61 13 -80 21c-30 14 -44 20 -65 20c-24 0 -49 -13 -67 -30l-35 50c30 28 65 42 104 42c34 0 55 -10 80 -22c10 -4 39 -19 62 -19c21 0 33 8 63 26z" />
    <glyph glyph-name="Udieresis" unicode="&#xdc;" horiz-adv-x="655" 
d="M75 740h74v-461c0 -54 8 -103 25 -134c45 -83 118 -91 153 -91s108 8 153 91c17 31 25 80 25 134v461h74v-461c0 -62 -10 -115 -28 -154c-51 -111 -155 -138 -224 -138s-173 27 -224 138c-18 39 -28 92 -28 154v461zM216 928h74v-126h-74v126zM364 928h74v-126h-74v126z
" />
    <glyph glyph-name="ecircumflex" unicode="&#xea;" horiz-adv-x="650" 
d="M608 248h-498c5 -107 105 -198 212 -198c100 2 171 61 196 129h74c-38 -109 -143 -192 -269 -192c-153 0 -285 124 -285 286c0 155 125 285 284 288c120 -1 205 -72 244 -140c32 -52 43 -105 43 -153c0 -7 -1 -13 -1 -20zM110 311h427c-22 129 -127 187 -214 187
c-86 0 -193 -58 -213 -187zM148 639l145 125h66l143 -125h-89l-86 73l-88 -73h-91z" />
  </font>
</defs>
</svg>
