<?xml version="1.0" standalone="no"?>
<!DOCTYPE svg PUBLIC "-//W3C//DTD SVG 1.1//EN" "http://www.w3.org/Graphics/SVG/1.1/DTD/svg11.dtd" >
<svg xmlns="http://www.w3.org/2000/svg">
<metadata></metadata>
<defs>
<font id="tradegothicbold_condensed" horiz-adv-x="909" >
<font-face units-per-em="2048" ascent="1638" descent="-410" />
<missing-glyph horiz-adv-x="454" />
<glyph unicode="&#xfb01;" d="M-8 913v189h135v137q0 135 66.5 197.5t189.5 62.5h115v-188h-66q-41 0 -58.5 -16.5t-17.5 -57.5v-135h131v-189h-131v-913h-229v913h-135zM567 0v1102h230v-1102h-230zM567 1270v209h230v-209h-230z" />
<glyph unicode="&#xfb02;" d="M-8 913v189h135v137q0 135 66.5 197.5t189.5 62.5h115v-188h-66q-41 0 -58.5 -16.5t-17.5 -57.5v-135h131v-189h-131v-913h-229v913h-135zM567 0v1479h230v-1479h-230z" />
<glyph horiz-adv-x="2048" />
<glyph horiz-adv-x="2048" />
<glyph unicode="&#xd;" horiz-adv-x="454" />
<glyph unicode=" "  horiz-adv-x="454" />
<glyph unicode="&#x09;" horiz-adv-x="454" />
<glyph unicode="&#xa0;" horiz-adv-x="454" />
<glyph unicode="!" horiz-adv-x="569" d="M156 1479h258l-45 -1045h-168zM164 0v242h242v-242h-242z" />
<glyph unicode="&#x22;" horiz-adv-x="681" d="M82 918v561h192v-561h-192zM408 918v561h192v-561h-192z" />
<glyph unicode="#" d="M20 438v160h156l31 283h-135v159h155l52 439h182l-51 -439h165l52 439h182l-51 -439h131v-159h-148l-32 -283h127v-160h-148l-49 -438h-184l51 438h-166l-49 -438h-187l52 438h-136zM360 598h164l33 283h-164z" />
<glyph unicode="$" d="M61 231l170 129q20 -53 61.5 -100t100.5 -63v481q-59 37 -115.5 79t-99.5 93t-69.5 113.5t-26.5 136.5q0 72 20.5 136t60.5 114.5t97 84t133 44.5v180h123v-180q86 -16 160 -65.5t125 -121.5l-156 -133q-23 39 -52.5 74t-76.5 45v-424q66 -41 125 -85t105.5 -98.5 t74 -121t27.5 -152.5q0 -76 -21.5 -145.5t-63.5 -122.5t-104.5 -88t-142.5 -41v-238h-123v238q-106 10 -191 77.5t-141 153.5zM291 1126q0 -68 27.5 -114.5t74.5 -89.5v356q-47 -16 -74.5 -57t-27.5 -95zM516 197q63 25 89 71.5t26 118.5q0 76 -32 121t-83 92v-403z" />
<glyph unicode="%" horiz-adv-x="1593" d="M102 1143q0 70 27 131t72 106t106.5 72t130.5 27q70 0 131.5 -27t106.5 -72t71.5 -106.5t26.5 -130.5q0 -70 -26.5 -131.5t-71.5 -106.5t-106.5 -71.5t-131.5 -26.5t-131 26.5t-106 71.5t-72 106.5t-27 131.5zM266 1143q0 -72 50.5 -122t121.5 -50q72 0 122 50t50 122 t-50 122t-122 50t-122 -50t-50 -122zM303 -20l838 1519h153l-837 -1519h-154zM819 336q0 70 26.5 131t72 106t106.5 72t131 27t131.5 -27t106.5 -72t71.5 -106t26.5 -131t-26.5 -131.5t-71.5 -106.5t-106.5 -71.5t-131.5 -26.5t-131 26.5t-106.5 71.5t-72 106.5t-26.5 131.5 zM983 336q0 -72 50 -122t122 -50t122 50t50 122t-50 122t-122 50t-122 -50t-50 -122z" />
<glyph unicode="&#x26;" horiz-adv-x="1138" d="M106 326q0 117 58.5 225t136.5 192q-41 90 -79 200t-38 208q0 76 20.5 139.5t60.5 109.5t100.5 72.5t140.5 26.5q141 0 221 -84t80 -223q0 -70 -23.5 -130.5t-60.5 -115.5t-82 -105t-88 -98q39 -80 85 -155.5t99 -145.5q27 68 50.5 135.5t39.5 139.5l209 -55 q-23 -102 -60.5 -196.5t-78.5 -191.5q29 -27 65.5 -45t75.5 -24v-225q-168 4 -286 112q-61 -59 -128 -85.5t-163 -26.5q-80 0 -145.5 25.5t-111.5 70.5t-72 109.5t-26 140.5zM340 358q0 -66 42 -111.5t107 -45.5q37 0 63 9t54 34q-59 70 -110.5 142.5t-92.5 154.5 q-33 -49 -48 -86.5t-15 -96.5zM393 1206q0 -72 21.5 -145.5t48.5 -138.5q45 59 84 125.5t39 144.5q0 86 -23.5 123t-68.5 37q-47 0 -74 -38t-27 -108z" />
<glyph unicode="'" horiz-adv-x="454" d="M131 918v561h193v-561h-193z" />
<glyph unicode="(" horiz-adv-x="569" d="M66 662q0 227 64.5 444t176.5 393h197q-117 -180 -179.5 -394t-62.5 -443t62.5 -443.5t179.5 -394.5h-197q-113 176 -177 393t-64 445z" />
<glyph unicode=")" horiz-adv-x="569" d="M66 -176q117 180 179 394t62 444q0 229 -62.5 443t-178.5 394h196q113 -176 177.5 -393t64.5 -444t-64.5 -444.5t-177.5 -393.5h-196z" />
<glyph unicode="*" d="M86 1139l61 182q123 -74 261 -137q-6 76 -19.5 149.5t-30.5 145.5h193q-16 -72 -29.5 -145.5t-19.5 -149.5q137 63 260 137l61 -182q-78 -4 -154.5 -14.5t-154.5 -20.5q53 -59 109.5 -114.5t117.5 -104.5l-161 -113q-27 74 -60 144.5t-65 142.5q-33 -72 -66 -142.5 t-59 -144.5l-162 113q61 49 117.5 104t109.5 115q-78 10 -154.5 20.5t-154.5 14.5z" />
<glyph unicode="+" horiz-adv-x="1228" d="M96 418v200h418v418h201v-418h418v-200h-418v-418h-201v418h-418z" />
<glyph unicode="," horiz-adv-x="454" d="M98 -254l101 254h-93v242h242v-242l-141 -254h-109z" />
<glyph unicode="-" horiz-adv-x="681" d="M90 457v188h502v-188h-502z" />
<glyph unicode="." horiz-adv-x="454" d="M106 0v242h242v-242h-242z" />
<glyph unicode="/" horiz-adv-x="569" d="M-43 -20l455 1519h200l-454 -1519h-201z" />
<glyph unicode="0" d="M94 385v709q0 211 84 308t277 97t276.5 -97t83.5 -308v-709q0 -211 -84 -308t-276 -97q-193 0 -277 97t-84 308zM336 322q0 -141 119 -142q119 0 118 142v835q0 141 -118 141q-119 0 -119 -141v-835z" />
<glyph unicode="1" d="M162 1171v138q86 43 161.5 90t139.5 100h129v-1499h-230v1171h-200z" />
<glyph unicode="2" d="M90 0v199q119 172 210 309t152.5 247.5t93.5 202t32 172.5q0 88 -31 128t-84 40q-61 0 -92 -43t-31 -110v-101h-242v70q0 82 26 151.5t74 122t118.5 82t158.5 29.5q78 0 141.5 -26.5t108.5 -72.5t69.5 -104.5t24.5 -124.5q0 -88 -17.5 -170.5t-68.5 -189t-143 -250 t-242 -352.5h449v-209h-707z" />
<glyph unicode="3" d="M94 340v88h230v-100q0 -70 27.5 -109t86.5 -39q55 0 88 41t33 133v113q0 121 -50 165t-167 44v201q55 0 95 10t64.5 35.5t36 69.5t11.5 110q0 104 -22.5 150t-80.5 46q-53 0 -83.5 -31.5t-30.5 -119.5v-62h-230v70q0 76 22.5 138.5t68 108.5t110 71.5t146.5 25.5 t143 -31.5t103 -84t62.5 -121t20.5 -142.5q0 -129 -30.5 -207.5t-129.5 -132.5q55 -29 91 -61.5t56.5 -75.5t28 -98.5t7.5 -130.5q0 -223 -89 -328.5t-280 -105.5q-158 0 -248 85t-90 275z" />
<glyph unicode="4" d="M33 356v189l430 934h246v-934h135v-189h-135v-356h-234v356h-442zM227 545h252v577h-4z" />
<glyph unicode="5" d="M102 315v113h230v-119q0 -59 30.5 -94t81.5 -35q59 0 92 40t33 140v336q0 72 -31.5 103.5t-74.5 31.5q-59 0 -90 -32.5t-47 -79.5h-197q4 86 7 166t5 168t4 191.5t2 234.5h617l-8 -209h-400l-14 -320l4 -4q47 57 91 71.5t104 14.5q147 0 208.5 -101.5t61.5 -287.5v-205 q0 -233 -80 -345.5t-264 -112.5q-76 0 -142.5 18t-115.5 58t-78 103.5t-29 155.5z" />
<glyph unicode="6" d="M94 385v709q0 211 84 308t277 97q76 2 136 -22.5t103 -68.5t66.5 -104.5t23.5 -132.5v-90h-221v76q0 141 -108 141q-119 0 -119 -141v-346q25 25 46 43t45 30.5t51.5 18.5t66.5 6q55 0 104 -16t86 -53t58.5 -94.5t21.5 -139.5v-176q0 -236 -84 -343t-276 -107 q-193 0 -277 97t-84 308zM336 322q0 -141 119 -142q119 0 118 142v245q0 72 -29.5 107t-76.5 35q-35 0 -72 -25t-59 -43v-319z" />
<glyph unicode="7" d="M115 1270v209h667v-144l-301 -1335h-239l297 1270h-424z" />
<glyph unicode="8" d="M94 410q0 135 30 227t124 151q-68 49 -100.5 129t-32.5 166q0 215 92 315.5t248 100.5q158 0 249 -100.5t91 -315.5q0 -86 -33 -165.5t-100 -129.5q94 -59 123.5 -151t29.5 -227q0 -211 -90 -320.5t-270 -109.5t-270.5 109.5t-90.5 320.5zM324 426q0 -117 28.5 -181.5 t102.5 -64.5t102.5 64.5t28.5 181.5t-29 181.5t-102 64.5q-74 0 -102.5 -64.5t-28.5 -181.5zM344 1096q0 -109 26 -156t85 -47t84.5 47t25.5 156t-25.5 155.5t-84.5 46.5t-85 -47t-26 -155z" />
<glyph unicode="9" d="M94 872v177q0 236 84 343t277 107t276.5 -97t83.5 -308v-709q0 -211 -84 -308t-276 -97q-76 -2 -136.5 22.5t-103.5 68.5t-66.5 105.5t-23.5 130.5v90h221v-75q0 -141 109 -142q119 0 118 142v346q-25 -25 -46 -43.5t-44.5 -30.5t-51.5 -18.5t-66 -6.5q-55 0 -104.5 16.5 t-86.5 53.5t-58.5 94.5t-21.5 138.5zM336 911q0 -72 29.5 -106.5t76.5 -34.5q35 0 72 24.5t59 43.5v319q0 141 -118 141q-119 0 -119 -141v-246z" />
<glyph unicode=":" horiz-adv-x="454" d="M106 0v242h242v-242h-242zM106 569v242h242v-242h-242z" />
<glyph unicode=";" horiz-adv-x="454" d="M98 -254l101 254h-93v242h242v-242l-141 -254h-109zM106 569v242h242v-242h-242z" />
<glyph unicode="&#x3c;" horiz-adv-x="1228" d="M96 432v172l1037 432v-213l-748 -305l748 -305v-213z" />
<glyph unicode="=" horiz-adv-x="1228" d="M96 205v201h1037v-201h-1037zM96 631v200h1037v-200h-1037z" />
<glyph unicode="&#x3e;" horiz-adv-x="1228" d="M96 0v213l748 305l-748 305v213l1037 -432v-172z" />
<glyph unicode="?" horiz-adv-x="796" d="M66 1229q47 135 135 202.5t235 67.5q57 0 110.5 -20.5t94.5 -57.5t65.5 -87t24.5 -109q0 -57 -11 -101.5t-28.5 -81t-40 -69.5t-47.5 -66t-47 -67.5t-39.5 -77.5t-29 -96.5t-11.5 -120.5v-111h-196v172q0 106 32.5 193.5t73.5 161.5t74 137t33 121q0 37 -24 64.5 t-62 27.5q-33 0 -56.5 -14.5t-41 -37t-30 -50t-18.5 -54.5zM254 0v242h242v-242h-242z" />
<glyph unicode="@" horiz-adv-x="1638" d="M82 739q0 166 60.5 305.5t165 240.5t244.5 157.5t300 56.5q137 0 264 -44t225.5 -126t156.5 -196.5t58 -253.5q0 -158 -58 -268.5t-139 -181.5t-167 -103.5t-141 -32.5q-47 0 -80 26.5t-37 83.5l-4 3q-41 -47 -100.5 -80t-120.5 -33q-66 0 -123.5 26.5t-100.5 72.5 t-68.5 108.5t-25.5 132.5q0 96 32 189t89 166t138 117t181 44q76 0 137.5 -33t102.5 -100l33 106h166l-129 -526q-4 -18 -9.5 -38.5t-5.5 -41.5q0 -23 6.5 -39t26.5 -16q43 0 86 27.5t77 77.5t54.5 119t20.5 151q0 123 -43 217t-117 157.5t-173 96t-214 32.5 q-131 0 -238.5 -46t-184.5 -127t-119 -191.5t-42 -239.5q0 -131 45 -240.5t127 -188.5t193.5 -123t242.5 -44q129 0 242 44t195 126h170q-104 -160 -265 -244.5t-354 -84.5q-162 0 -304 54t-248.5 154.5t-167 239.5t-60.5 311zM596 659q0 -78 44 -130t116 -52q55 0 102 29 t80 74t51.5 100t18.5 106q0 76 -44 127.5t-114 51.5q-55 0 -102.5 -29t-81 -73t-52 -98t-18.5 -106z" />
<glyph unicode="A" d="M25 0l272 1479h315l273 -1479h-246l-45 328h-279l-45 -328h-245zM352 549h205l-100 635h-4z" />
<glyph unicode="B" horiz-adv-x="1024" d="M123 0v1479h377q205 0 299 -100.5t94 -291.5q0 -47 -10.5 -94t-32 -89t-54 -74.5t-79.5 -51.5q98 -43 151.5 -125t53.5 -225q0 -92 -21.5 -170t-69 -135t-123 -90t-184.5 -33h-401zM377 209h106q102 0 143.5 57.5t41.5 169.5q0 115 -47.5 171.5t-161.5 56.5h-82v-455z M377 872h92q72 0 121 48.5t49 140.5q0 209 -166 209h-96v-398z" />
<glyph unicode="C" horiz-adv-x="1024" d="M123 358v762q0 78 23.5 147.5t71.5 121t121 81t173 29.5q96 0 167 -31.5t117 -87t69.5 -129t23.5 -157.5v-109h-254v115q0 94 -37 136t-86 42q-78 0 -106.5 -40t-28.5 -124v-749q0 -84 28.5 -124t106.5 -40q70 0 96.5 39t26.5 110v178h254v-170q0 -78 -23.5 -147.5 t-69.5 -120.5t-117 -80.5t-167 -29.5q-100 0 -173 29.5t-121 80.5t-71.5 121t-23.5 147z" />
<glyph unicode="D" horiz-adv-x="1024" d="M123 0v1479h377q199 0 300 -108.5t101 -338.5v-586q0 -229 -101.5 -337.5t-299.5 -108.5h-377zM377 209h88q102 0 142 45t40 162v647q0 117 -40 162t-142 45h-88v-1061z" />
<glyph unicode="E" d="M123 0v1479h680v-222h-426v-380h328v-222h-328v-434h454v-221h-708z" />
<glyph unicode="F" d="M123 0v1479h708v-222h-454v-380h340v-222h-340v-655h-254z" />
<glyph unicode="G" horiz-adv-x="1024" d="M123 358v762q0 78 23.5 147.5t69.5 121t115.5 81t164.5 29.5q96 0 166.5 -31.5t118.5 -87t72 -129t24 -157.5v-95h-242q0 84 -8.5 137.5t-26.5 85t-46 44t-65 12.5q-47 0 -79.5 -34t-32.5 -128v-760q0 -72 26.5 -113.5t92.5 -41.5q78 0 108.5 47t30.5 158v143h-162v201 h416v-750h-123l-47 111q-57 -68 -111.5 -99.5t-144.5 -31.5q-152 0 -246 100t-94 278z" />
<glyph unicode="H" horiz-adv-x="1024" d="M123 0v1479h254v-602h270v602h254v-1479h-254v655h-270v-655h-254z" />
<glyph unicode="I" horiz-adv-x="569" d="M158 0v1479h254v-1479h-254z" />
<glyph unicode="J" horiz-adv-x="569" d="M6 -20v221h53q74 0 104 30.5t30 92.5v1155h253v-1184q0 -70 -16 -128t-56 -100t-109.5 -64.5t-174.5 -22.5h-84z" />
<glyph unicode="K" d="M111 0v1479h254v-547h4l266 547h254l-275 -551l310 -928h-258l-207 688h-4l-90 -164v-524h-254z" />
<glyph unicode="L" horiz-adv-x="796" d="M111 0v1479h254v-1258h399v-221h-653z" />
<glyph unicode="M" horiz-adv-x="1251" d="M109 0v1479h333l181 -865h4l180 865h334v-1479h-221v1155h-5l-229 -1155h-123l-229 1155h-4v-1155h-221z" />
<glyph unicode="N" horiz-adv-x="1024" d="M123 0v1479h235l310 -846h4v846h229v-1479h-221l-324 924h-4v-924h-229z" />
<glyph unicode="O" horiz-adv-x="1024" d="M123 358v762q0 78 23.5 147.5t71.5 121t121 81t173 29.5t173 -29.5t121 -81t71.5 -121t23.5 -147.5v-762q0 -78 -23.5 -147.5t-71.5 -120.5t-121 -80.5t-173 -29.5t-173 29.5t-121 80.5t-71.5 121t-23.5 147zM377 365q0 -84 28.5 -124t106.5 -40t106.5 40t28.5 124v749 q0 84 -28.5 124t-106.5 40t-106.5 -40t-28.5 -124v-749z" />
<glyph unicode="P" horiz-adv-x="1024" d="M123 0v1479h364q117 0 204 -23.5t143.5 -76t84 -135.5t27.5 -202q0 -236 -111.5 -336t-347.5 -100h-110v-606h-254zM377 815h98q61 0 103.5 11.5t68 37t35.5 69.5t10 109q0 66 -10 110t-35.5 70.5t-67.5 37t-104 10.5h-98v-455z" />
<glyph unicode="Q" horiz-adv-x="1024" d="M123 358v762q0 78 23.5 147.5t71.5 121t121 81t173 29.5t173 -29.5t121 -81t71.5 -121t23.5 -147.5v-762q0 -106 -43 -190q43 -37 70.5 -46t48.5 -11v-222q-35 0 -67.5 4.5t-63.5 18.5t-61.5 42t-65.5 73q-84 -47 -207 -47q-100 0 -173 29.5t-121 80.5t-71.5 121 t-23.5 147zM377 365q0 -84 28.5 -124t106.5 -40q57 0 86 22q-23 41 -39 55.5t-29 24.5v225q20 -10 50 -29.5t67 -60.5v676q0 84 -28.5 124t-106.5 40t-106.5 -40t-28.5 -124v-749z" />
<glyph unicode="R" horiz-adv-x="1024" d="M123 0v1479h356q106 0 187.5 -23.5t134.5 -76t80.5 -135.5t27.5 -202q0 -88 -15 -152.5t-41 -108.5t-57.5 -70.5t-64.5 -40.5l215 -670h-258l-180 612q-25 -4 -60.5 -5t-70.5 -1v-606h-254zM377 815h90q102 0 145 48t43 179q0 66 -10 110t-32.5 70.5t-58.5 37t-87 10.5 h-90v-455z" />
<glyph unicode="S" d="M57 389l242 35q8 -113 49 -168t103 -55q66 0 106.5 34.5t40.5 100.5q0 74 -38 131t-95 110.5t-125 106.5t-125 116.5t-95 143.5t-38 186q0 178 102.5 273.5t290.5 95.5q78 0 139.5 -26.5t106.5 -73.5t71.5 -113.5t34.5 -144.5l-241 -27q-4 47 -17.5 79t-33 50.5t-41 26.5 t-43.5 8q-61 0 -94 -38t-33 -107q0 -63 37.5 -116.5t95 -107t125 -107.5t125 -120t95.5 -144.5t38 -179.5q0 -92 -30 -162.5t-82 -118.5t-126 -72.5t-164 -24.5q-88 0 -157.5 32.5t-117.5 89t-75 131t-31 156.5z" />
<glyph unicode="T" horiz-adv-x="796" d="M25 1257v222h745v-222h-246v-1257h-254v1257h-245z" />
<glyph unicode="U" horiz-adv-x="1024" d="M123 373v1106h254v-1117q0 -161 133 -161h2q135 0 135 161v1117h254v-1106q0 -193 -103.5 -293t-285.5 -100t-285.5 100t-103.5 293z" />
<glyph unicode="V" d="M18 1479h250l185 -1026h4l184 1026h250l-309 -1479h-254z" />
<glyph unicode="W" horiz-adv-x="1366" d="M0 1479h238l155 -942h4l166 942h209l172 -942h4l142 942h237l-260 -1479h-213l-184 977h-4l-172 -977h-213z" />
<glyph unicode="X" d="M29 0l290 774l-270 705h250l156 -469h4l141 469h250l-256 -705l287 -774h-250l-172 539h-4l-176 -539h-250z" />
<glyph unicode="Y" d="M20 1479h259l178 -564h4l170 564h258l-307 -865v-614h-254v614z" />
<glyph unicode="Z" d="M90 0v242l473 1015h-416v222h672v-242l-467 -1016h467v-221h-729z" />
<glyph unicode="[" horiz-adv-x="569" d="M74 -156v1635h438v-99h-242v-1437h242v-99h-438z" />
<glyph unicode="\" horiz-adv-x="569" d="M-43 1499h201l454 -1519h-200z" />
<glyph unicode="]" horiz-adv-x="569" d="M57 -57h242v1437h-242v99h439v-1635h-439v99z" />
<glyph unicode="^" horiz-adv-x="1228" d="M115 618l389 861h221l389 -861h-223l-279 619l-278 -619h-219z" />
<glyph unicode="_" horiz-adv-x="1024" d="M0 -154h1024v-102h-1024v102z" />
<glyph unicode="`" horiz-adv-x="454" d="M-66 1528h277l162 -295h-170z" />
<glyph unicode="a" d="M70 227q0 90 29.5 162t91 131.5t153.5 109.5t215 97v66q0 141 -113 141q-78 0 -102.5 -42t-28.5 -114h-229q10 168 108.5 256t260.5 88q160 0 246.5 -73.5t86.5 -225.5v-706q0 -27 6 -57.5t9 -59.5h-219q-2 23 -6.5 44.5t-6.5 41.5q-66 -53 -125 -79.5t-143 -26.5 q-117 0 -175 70.5t-58 176.5zM299 268q0 -53 26.5 -76.5t80.5 -23.5q47 0 85.5 30.5t67.5 71.5v289q-78 -45 -128 -82t-79.5 -71.5t-41 -67.5t-11.5 -70z" />
<glyph unicode="b" d="M111 0v1479h229v-471q35 29 61.5 49t53 35.5t56.5 22.5t67 7q109 0 171 -77.5t62 -229.5v-528q0 -152 -62.5 -229.5t-170.5 -77.5q-86 0 -137.5 31.5t-108.5 103.5h-4v-115h-217zM340 225q35 -25 65.5 -41t65.5 -16q47 0 79 35t32 143v410q0 109 -32 143.5t-79 34.5 q-35 0 -65.5 -16.5t-65.5 -40.5v-652z" />
<glyph unicode="c" d="M98 389v324q0 90 18.5 165.5t61.5 130t110.5 84t166.5 29.5q96 0 163.5 -28.5t109.5 -80.5t61.5 -126t21.5 -162h-229v29q0 96 -33 138t-94 42t-94 -42t-33 -138v-406q0 -96 32.5 -138t94.5 -42q61 0 94 42t33 138v70h229v-29q0 -90 -18.5 -166t-61.5 -130t-110.5 -83.5 t-165.5 -29.5t-166 29.5t-111 83.5t-61.5 130t-18.5 166z" />
<glyph unicode="d" d="M98 287v528q0 152 62.5 229.5t171.5 77.5q37 0 66.5 -7t56 -22.5t54.5 -36t60 -48.5v471h230v-1479h-217v115h-4q-57 -72 -108.5 -103.5t-137.5 -31.5q-109 0 -171.5 77.5t-62.5 229.5zM328 346q0 -55 8 -89t23.5 -54.5t36 -27.5t42.5 -7q35 0 66 16.5t65 40.5v652 q-35 25 -65.5 41t-65.5 16q-23 0 -43 -7t-35.5 -27.5t-23.5 -54.5t-8 -89v-410z" />
<glyph unicode="e" d="M98 389v324q0 90 18.5 165.5t61.5 130t110.5 84t166.5 29.5q98 0 165.5 -29.5t110.5 -84t61.5 -130t18.5 -165.5v-205h-483v-160q0 -96 32.5 -138t94.5 -42q61 0 94 42t33 138v25h229q-2 -88 -21.5 -160t-62.5 -124t-109.5 -80.5t-162.5 -28.5q-98 0 -166 29.5t-111 83.5 t-61.5 130t-18.5 166zM328 696h254v58q0 96 -33 138t-94 42t-94 -42t-33 -138v-58z" />
<glyph unicode="f" horiz-adv-x="569" d="M20 913v189h136v137q0 135 66.5 197.5t189.5 62.5h114v-188h-65q-41 0 -58.5 -16.5t-17.5 -57.5v-135h131v-189h-131v-913h-229v913h-136z" />
<glyph unicode="g" d="M37 -172q0 66 45 112t104 60v4q-47 18 -75.5 52t-28.5 87q0 29 13.5 55.5t34 49t45 42t46.5 32.5q-43 31 -71.5 59.5t-45 71.5t-23.5 105.5t-7 158.5q0 115 19.5 191.5t62.5 124.5t110.5 68.5t163.5 20.5q74 0 137.5 -27.5t116.5 -90.5q23 35 42 57t39.5 35.5t45.5 19.5 t61 6v-190q-10 2 -18 2h-18q-31 0 -58.5 -7t-52.5 -28q12 -43 18.5 -91t6.5 -83q0 -125 -21.5 -210t-64.5 -137t-109 -73.5t-154 -21.5h-73q-18 -4 -31.5 -17.5t-13.5 -34.5q0 -37 44 -48t109.5 -14t141 -6t141 -26.5t109.5 -75t44 -147.5q0 -141 -123.5 -201.5 t-347.5 -60.5q-174 0 -269 45t-95 131zM279 -102q0 -43 39.5 -62.5t154.5 -19.5t155 19.5t40 62.5t-40 62.5t-155 19.5t-154.5 -19.5t-39.5 -62.5zM291 702q0 -70 7 -114.5t22.5 -70t37 -36t48.5 -10.5q35 0 56 10.5t34.5 36t18.5 70.5t5 114q0 70 -5 115t-18.5 70.5t-35 36 t-55.5 10.5q-27 0 -48.5 -10.5t-37 -36t-22.5 -70.5t-7 -115z" />
<glyph unicode="h" d="M111 0v1479h229v-480q31 29 58.5 51.5t56 38t65.5 24.5t86 9q92 0 142.5 -61.5t50.5 -169.5v-891h-230v854q0 41 -22.5 60.5t-59.5 19.5t-71.5 -20.5t-75.5 -49.5v-864h-229z" />
<glyph unicode="i" horiz-adv-x="454" d="M113 0v1102h229v-1102h-229zM113 1270v209h229v-209h-229z" />
<glyph unicode="j" horiz-adv-x="454" d="M0 -139h39q47 0 66.5 24.5t19.5 61.5v1153h229v-1163q0 -82 -21.5 -137.5t-58 -88.5t-85 -46t-101.5 -13h-88v209zM125 1270v209h229v-209h-229z" />
<glyph unicode="k" d="M111 0v1479h229v-766h4l252 389h246l-240 -348l266 -754h-231l-184 547h-4l-109 -162v-385h-229z" />
<glyph unicode="l" horiz-adv-x="454" d="M113 0v1479h229v-1479h-229z" />
<glyph unicode="m" horiz-adv-x="1366" d="M111 0v1102h217v-111q37 31 65.5 55.5t57 41t59.5 25.5t72 9q86 0 124.5 -31.5t75.5 -99.5q41 41 75 65.5t63.5 40t58.5 20.5t59 5q109 0 162 -61.5t53 -169.5v-891h-229v854q0 41 -23.5 60.5t-58.5 19.5q-37 0 -71.5 -20.5t-73.5 -49.5v-864h-230v854q0 41 -22.5 60.5 t-57.5 19.5q-37 0 -71.5 -20.5t-75.5 -49.5v-864h-229z" />
<glyph unicode="n" d="M111 0v1102h217v-111q37 31 65.5 55.5t59 41t67.5 25.5t86 9q92 0 142.5 -61.5t50.5 -169.5v-891h-230v854q0 41 -22.5 60.5t-59.5 19.5t-71.5 -20.5t-75.5 -49.5v-864h-229z" />
<glyph unicode="o" d="M98 389v324q0 90 18.5 165.5t61.5 130t110.5 84t166.5 29.5q98 0 165.5 -29.5t110.5 -84t61.5 -130t18.5 -165.5v-324q0 -90 -18.5 -166t-61.5 -130t-110.5 -83.5t-165.5 -29.5t-166 29.5t-111 83.5t-61.5 130t-18.5 166zM328 348q0 -96 32.5 -138t94.5 -42q61 0 94 42 t33 138v406q0 96 -33 138t-94 42t-94 -42t-33 -138v-406z" />
<glyph unicode="p" d="M111 -348v1450h217v-115h4q57 72 108.5 103.5t137.5 31.5q109 0 171 -77.5t62 -229.5v-528q0 -152 -62.5 -229.5t-170.5 -77.5q-37 0 -67 7t-56.5 22.5t-53 37t-61.5 47.5v-442h-229zM340 225q35 -25 65.5 -41t65.5 -16q47 0 79 35t32 143v410q0 109 -32 143.5t-79 34.5 q-35 0 -65.5 -16.5t-65.5 -40.5v-652z" />
<glyph unicode="q" d="M98 287v528q0 152 62.5 229.5t171.5 77.5q86 0 137 -31.5t109 -103.5h4v115h217v-1450h-230v442q-33 -27 -60.5 -48t-54 -36.5t-56 -22.5t-66.5 -7q-109 0 -171.5 77.5t-62.5 229.5zM328 346q0 -55 8 -89t23.5 -54.5t36 -27.5t42.5 -7q35 0 66 16.5t65 40.5v652 q-35 25 -65.5 41t-65.5 16q-23 0 -43 -7t-35.5 -27.5t-23.5 -54.5t-8 -89v-410z" />
<glyph unicode="r" horiz-adv-x="681" d="M111 0v1102h219v-129h4q41 72 109.5 110.5t150.5 38.5h47v-239q-31 8 -63.5 15t-83.5 7q-59 0 -106.5 -37t-47.5 -110v-758h-229z" />
<glyph unicode="s" horiz-adv-x="796" d="M55 287l201 55q10 -70 42 -122t110 -52q45 0 73.5 24.5t28.5 71.5t-32 87t-80 77t-103 76t-103.5 86t-80 104.5t-31.5 132.5q0 66 23.5 120t65.5 93t98.5 60.5t119.5 21.5q135 0 222 -82t114 -211l-195 -32q-25 137 -131 137q-45 0 -72.5 -22.5t-27.5 -65.5t31.5 -79 t80 -72t103.5 -75.5t103.5 -88t80 -111t31.5 -144.5q0 -74 -23.5 -129t-66.5 -93t-102.5 -56t-128.5 -18q-152 0 -238 80.5t-113 226.5z" />
<glyph unicode="t" horiz-adv-x="569" d="M20 913v189h127v297h230v-297h153v-189h-153v-634q0 -90 78 -91h75v-196q-23 -6 -47 -9t-67 -3q-129 0 -199 60t-70 187v686h-127z" />
<glyph unicode="u" d="M111 211v891h229v-854q0 -41 22.5 -60.5t59.5 -19.5t71.5 20.5t75.5 49.5v864h230v-1102h-217v111q-37 -31 -66 -55.5t-59.5 -41t-67.5 -25.5t-86 -9q-92 0 -142 61t-50 170z" />
<glyph unicode="v" horiz-adv-x="796" d="M20 1102h234l141 -737h4l144 737h233l-266 -1102h-223z" />
<glyph unicode="w" horiz-adv-x="1138" d="M12 1102h221l101 -688h4l145 686h170l123 -686h4l125 688h221l-254 -1102h-184l-125 696h-4l-149 -696h-185z" />
<glyph unicode="x" horiz-adv-x="796" d="M25 0l245 584l-227 518h238l116 -307l123 307h238l-238 -514l250 -588h-238l-133 373h-4l-133 -373h-237z" />
<glyph unicode="y" horiz-adv-x="796" d="M20 1102h234l147 -705h5l139 705h231l-289 -1184q-18 -76 -44.5 -126t-65.5 -80.5t-88 -44t-115 -13.5h-96v188h55q86 0 119 45t33 133q0 35 -7.5 70t-17.5 76z" />
<glyph unicode="z" horiz-adv-x="796" d="M61 0v188l420 725h-391v189h645v-189l-428 -725h428v-188h-674z" />
<glyph unicode="{" horiz-adv-x="569" d="M0 606v119q45 0 80 39t35 125v414q0 98 45 147t168 49h225v-98h-168q-41 0 -57.5 -27.5t-16.5 -75.5v-397q0 -61 -17.5 -105t-42 -72t-51 -41t-44.5 -15v-6q18 -2 44.5 -15.5t51 -41t42 -72t17.5 -111.5v-397q0 -47 16.5 -75t57.5 -28h168v-98h-225q-123 0 -168 49 t-45 147v422q0 86 -35 125t-80 39z" />
<glyph unicode="|" horiz-adv-x="454" d="M127 -20v1519h201v-1519h-201z" />
<glyph unicode="}" horiz-adv-x="569" d="M16 -78h168q41 0 57.5 27.5t16.5 75.5v397q0 61 17.5 105t42 72t51 41t45.5 15v7q-18 4 -45 16t-51.5 39.5t-42 72t-17.5 111.5v397q0 47 -16.5 75t-57.5 28h-168v98h226q123 0 168 -49t45 -147v-422q0 -86 34.5 -125t79.5 -39v-119q-45 0 -79.5 -39t-34.5 -125v-414 q0 -98 -45 -147t-168 -49h-226v98z" />
<glyph unicode="~" horiz-adv-x="1228" d="M125 526q23 27 49.5 54.5t58 51t72.5 39t92 15.5q53 0 110.5 -19.5t117.5 -45.5q57 -25 106 -45.5t103 -20.5q61 0 103 42t77 89l90 -176q-29 -27 -57.5 -54.5t-60.5 -51t-69.5 -39t-85.5 -15.5q-57 0 -107 19.5t-101 48.5q-43 25 -103.5 44t-132.5 19q-68 0 -107.5 -42 t-64.5 -89z" />
<glyph unicode="&#xa1;" horiz-adv-x="569" d="M156 -377l45 1045h168l45 -1045h-258zM164 860v242h242v-242h-242z" />
<glyph unicode="&#xa2;" d="M78 410v323q0 90 20.5 166t65.5 130t116.5 84t176.5 30q18 0 33.5 -1t31.5 -3l72 262h151l-83 -307q84 -49 120.5 -138.5t38.5 -210.5h-213v29q0 78 -30 121l-187 -690q25 -16 66 -17q66 0 105.5 42t39.5 139v69h229v-28q0 -90 -19 -166t-63 -130.5t-116 -84t-176 -29.5 q-53 0 -88 8l-68 -246h-154l82 297q-82 51 -116.5 141.5t-34.5 209.5zM307 369q0 -18 4 -35t8 -31h5l165 649q-10 2 -32 2q-66 0 -108 -42t-42 -138v-405z" />
<glyph unicode="&#xa3;" d="M72 -20v219q49 16 79.5 46.5t48 85t23.5 133.5t6 189h-157v172h129q-23 94 -40.5 183.5t-17.5 152.5q0 160 82 249t256 89q168 0 249 -100.5t81 -313.5h-209q-2 68 -10 112t-23.5 68.5t-38 35t-55.5 10.5q-102 0 -102 -131q0 -90 21.5 -173t37.5 -182h203v-172h-184 q-2 -137 -13.5 -234t-58.5 -181q31 -23 67.5 -36.5t75.5 -13.5q33 0 53.5 17.5t31.5 48.5t15.5 71t4.5 83h204v-121q0 -145 -70.5 -226t-201.5 -81q-78 0 -143.5 27.5t-118.5 70.5q-53 -37 -107.5 -64.5t-117.5 -33.5z" />
<glyph unicode="&#xa4;" d="M16 408l97 94q-35 49 -55.5 110.5t-20.5 126.5q0 66 20.5 127.5t55.5 110.5l-97 94l103 109l96 -99q49 35 110.5 54.5t129.5 19.5q66 0 127 -19.5t110 -54.5l99 99l102 -109l-96 -94q35 -49 55 -110.5t20 -127.5t-20.5 -127t-54.5 -110l96 -94l-102 -109l-99 98 q-49 -35 -110.5 -54t-126.5 -19q-68 0 -129.5 19t-110.5 54l-96 -98zM225 739q0 -51 18.5 -94t49.5 -75.5t73 -51t89 -18.5t89 18.5t72.5 51t49 75.5t18.5 94t-18.5 95.5t-49 76t-72.5 50t-89 18.5t-89 -18.5t-73 -50t-49.5 -76t-18.5 -95.5z" />
<glyph unicode="&#xa5;" d="M45 1479h205l207 -613h4l198 613h205l-186 -521h178v-172h-248l-55 -163h303v-172h-303v-451h-197v451h-303v172h303l-55 163h-248v172h178z" />
<glyph unicode="&#xa6;" horiz-adv-x="454" d="M127 -20v626h201v-626h-201zM127 872v627h201v-627h-201z" />
<glyph unicode="&#xa7;" horiz-adv-x="1024" d="M106 801q0 104 63.5 163.5t164.5 69.5q-51 39 -77 94.5t-26 120.5q0 109 73 179.5t222 70.5q94 0 172 -48t125 -116l-141 -102q-31 35 -67.5 70.5t-88.5 35.5q-106 0 -106 -94q0 -43 37 -91t92 -99t119.5 -107.5t120 -116t92.5 -124t37 -134.5q0 -100 -57.5 -168.5 t-164.5 -72.5q47 -47 75 -95.5t28 -125.5q0 -61 -20.5 -111.5t-56.5 -86.5t-85 -56.5t-109 -20.5q-113 0 -191.5 45t-156.5 121l150 117q25 -47 62.5 -85t99.5 -38q53 0 85.5 24.5t32.5 77.5q0 45 -36.5 95.5t-93 106.5t-122 115.5t-122 123t-93.5 129t-37 133.5zM295 817 q0 -16 19.5 -48t51 -72t70.5 -81t77 -75.5t70.5 -56t51.5 -21.5q41 0 67.5 27.5t26.5 62.5q0 14 -19.5 46t-50 71t-68.5 80t-77 75.5t-72.5 56t-56.5 21.5q-43 0 -66.5 -25.5t-23.5 -60.5z" />
<glyph unicode="&#xa8;" horiz-adv-x="454" d="M-45 1257v222h221v-222h-221zM279 1257v222h221v-222h-221z" />
<glyph unicode="&#xa9;" horiz-adv-x="1638" d="M41 739q0 172 63.5 312.5t171 240t249 153.5t294.5 54q154 0 295 -54t248.5 -153.5t171 -240t63.5 -312.5q0 -174 -63.5 -314t-171 -239.5t-248.5 -152.5t-295 -53t-295 53t-248.5 152.5t-171 239.5t-63.5 314zM242 739q0 -131 45 -241.5t122.5 -190.5t183 -124 t226.5 -44t225.5 44t183.5 124t124 190.5t45 241.5t-45 242t-124 190.5t-183.5 123.5t-225.5 44t-226.5 -44t-183 -123.5t-122.5 -190.5t-45 -242zM414 743q0 98 29.5 181.5t85 143.5t135 94t180.5 34q70 0 132 -20.5t110.5 -60.5t81 -98.5t44.5 -135.5h-159 q-16 78 -73.5 116.5t-135.5 38.5q-117 0 -177.5 -79.5t-60.5 -208.5q0 -61 17.5 -115.5t49.5 -94.5t76 -63.5t99 -23.5q86 0 140 42t65 119h166q-12 -76 -47 -135t-84.5 -101t-111 -63.5t-128.5 -21.5q-98 0 -178 34.5t-137.5 96t-88 144.5t-30.5 177z" />
<glyph unicode="&#xaa;" horiz-adv-x="544" d="M29 961q0 109 77.5 176t229.5 125v38q0 41 -16.5 58.5t-53.5 17.5q-45 0 -60.5 -23.5t-17.5 -60.5h-159q6 100 72.5 153.5t177.5 53.5q104 0 160.5 -44t56.5 -136v-426q0 -16 3 -34.5t7 -35.5h-144q0 10 -3 20.5t-5 22.5q-41 -31 -81 -43t-93 -12q-76 0 -113.5 42 t-37.5 108zM188 987q0 -53 60 -53q31 0 54.5 18.5t33.5 42.5v150q-47 -25 -76 -44.5t-45 -38t-21.5 -35.5t-5.5 -40z" />
<glyph unicode="&#xab;" horiz-adv-x="1024" d="M129 553l236 313h202l-239 -315l233 -315h-196zM471 553l236 313h202l-239 -315l233 -315h-196z" />
<glyph unicode="&#xac;" horiz-adv-x="1228" d="M96 631v200h1037v-628h-201v428h-836z" />
<glyph unicode="&#xad;" horiz-adv-x="681" d="M90 457v188h502v-188h-502z" />
<glyph unicode="&#xae;" horiz-adv-x="1638" d="M41 739q0 172 63.5 312.5t171 240t249 153.5t294.5 54q154 0 295 -54t248.5 -153.5t171 -240t63.5 -312.5q0 -174 -63.5 -314t-171 -239.5t-248.5 -152.5t-295 -53t-295 53t-248.5 152.5t-171 239.5t-63.5 314zM242 739q0 -131 45 -241.5t122.5 -190.5t183 -124 t226.5 -44t225.5 44t183.5 124t124 190.5t45 241.5t-45 242t-124 190.5t-183.5 123.5t-225.5 44t-226.5 -44t-183 -123.5t-122.5 -190.5t-45 -242zM516 315v850h322q160 0 244.5 -56t84.5 -196q0 -57 -16 -99t-44 -68.5t-65.5 -41t-78.5 -18.5l204 -371h-186l-190 363h-107 v-363h-168zM684 809h145q92 0 129 29.5t37 89.5q0 59 -41 82.5t-133 23.5h-137v-225z" />
<glyph unicode="&#xaf;" horiz-adv-x="454" d="M-74 1305v131h602v-131h-602z" />
<glyph unicode="&#xb0;" horiz-adv-x="819" d="M115 1206q0 61 22.5 114.5t62.5 93.5t94 62.5t116 22.5q61 0 115.5 -22.5t94 -62.5t62.5 -93t23 -115q0 -61 -23 -114.5t-62.5 -93.5t-94 -62.5t-115.5 -22.5t-115.5 22.5t-94.5 62.5t-62.5 93.5t-22.5 114.5zM242 1206q0 -74 47 -126t121 -52t121 52.5t47 125.5 q0 74 -47.5 126t-120.5 52q-74 0 -121 -52t-47 -126z" />
<glyph unicode="&#xb1;" horiz-adv-x="1228" d="M96 0v201h1037v-201h-1037zM96 555v201h418v280h201v-280h418v-201h-418v-281h-201v281h-418z" />
<glyph unicode="&#xb2;" horiz-adv-x="544" d="M29 598v166q154 174 226.5 295t72.5 219q0 57 -58 57q-29 0 -47 -20.5t-18 -48.5v-39h-176v41q0 49 19.5 91t54 73.5t84 49t106.5 17.5q51 0 92 -16.5t70.5 -43t45 -62.5t15.5 -74q0 -55 -9 -110.5t-37 -118t-80 -138.5t-138 -174h258v-164h-481z" />
<glyph unicode="&#xb3;" horiz-adv-x="544" d="M41 805v51h176v-43q0 -63 55 -63q29 0 42.5 18t13.5 61v52q0 72 -29 91t-88 19v152q57 0 85 21.5t28 97.5q0 37 -12.5 59t-41.5 22q-27 0 -39 -17t-12 -40v-35h-172v41q0 92 61.5 149.5t170.5 57.5q59 0 103 -18.5t72.5 -50t43 -72.5t14.5 -86q0 -78 -18.5 -124 t-77.5 -79q68 -35 88 -83t20 -138q0 -133 -60.5 -197.5t-195.5 -64.5q-104 0 -165.5 51t-61.5 168z" />
<glyph unicode="&#xb4;" horiz-adv-x="454" d="M82 1233l162 295h276l-268 -295h-170z" />
<glyph unicode="&#xb6;" horiz-adv-x="1024" d="M12 1094q0 102 30 175.5t85 120t134 68t177 21.5h590v-131h-115v-1512h-168v1512h-178v-1512h-168v885q-90 0 -161.5 27.5t-121.5 78t-77 119t-27 148.5z" />
<glyph unicode="&#xb7;" horiz-adv-x="454" d="M90 518q0 57 39 97t98 40q57 0 97.5 -40t40.5 -97q0 -59 -40 -98t-98 -39q-59 0 -98 39t-39 98z" />
<glyph unicode="&#xb8;" horiz-adv-x="454" d="M-18 -436l34 102q25 -12 65 -23.5t69 -11.5q53 0 86.5 25t33.5 59q0 31 -18.5 47.5t-45 22.5t-56 2t-50.5 -12l-45 37l140 188h98l-84 -123q10 2 21.5 3t21.5 1q35 -2 67.5 -12t59.5 -28.5t43 -47.5t16 -67q0 -49 -21.5 -88t-56 -66t-81 -41t-95.5 -14q-74 0 -127 18.5 t-75 28.5z" />
<glyph unicode="&#xb9;" horiz-adv-x="544" d="M86 1284v98q59 23 110.5 52.5t92.5 64.5h100v-901h-196v686h-107z" />
<glyph unicode="&#xba;" horiz-adv-x="544" d="M41 1059v194q0 109 52 177.5t179 68.5q129 0 180.5 -67.5t51.5 -178.5v-194q0 -111 -51.5 -179.5t-180.5 -68.5q-127 0 -179 69.5t-52 178.5zM209 1042q0 -100 63 -100t64 100v226q0 100 -64 100q-63 0 -63 -100v-226z" />
<glyph unicode="&#xbb;" horiz-adv-x="1024" d="M115 866h202l236 -313l-236 -317h-196l233 315zM457 866h202l236 -313l-236 -317h-196l233 315z" />
<glyph unicode="&#xbc;" horiz-adv-x="1363" d="M102 1284v98q59 23 110.5 52.5t92.5 62.5h101v-899h-197v686h-107zM152 -20l839 1519h187l-840 -1519h-186zM758 205v164l264 518h195v-527h77v-155h-77v-205h-168v205h-291zM918 360h131v273h-5z" />
<glyph unicode="&#xbd;" horiz-adv-x="1363" d="M98 1284v98q59 23 110.5 52.5t92.5 64.5h100v-901h-196v686h-107zM135 -20l840 1519h186l-839 -1519h-187zM815 0v166q154 174 226.5 295t72.5 219q0 57 -57 57q-29 0 -47.5 -20.5t-18.5 -48.5v-39h-176v41q0 49 19.5 91t54.5 73.5t84 49t106 17.5q51 0 92 -16.5t71 -43 t45.5 -62.5t15.5 -74q0 -55 -9.5 -110.5t-37 -118t-80 -138.5t-138.5 -174h258v-164h-481z" />
<glyph unicode="&#xbe;" horiz-adv-x="1363" d="M61 805v51h177v-43q0 -63 55 -63q29 0 42 18t13 61v52q0 72 -28.5 91t-88.5 19v152q57 0 85 21.5t28 97.5q0 37 -12.5 59t-40.5 22q-27 0 -39 -17t-12 -40v-35h-172v41q0 92 61 149.5t170 57.5q59 0 103 -18.5t73 -50t43 -72.5t14 -86q0 -78 -18 -124t-78 -79 q68 -35 88.5 -83t20.5 -138q0 -133 -60.5 -197.5t-195.5 -64.5q-104 0 -166 51t-62 168zM190 -20l840 1519h187l-840 -1519h-187zM758 205v164l264 518h195v-527h77v-155h-77v-205h-168v205h-291zM918 360h131v273h-5z" />
<glyph unicode="&#xbf;" horiz-adv-x="796" d="M66 -123q0 57 11 101.5t28.5 81t40 69.5t47.5 66t47 67.5t39.5 77.5t28.5 96t11 121v111h197v-172q0 -106 -32.5 -193.5t-73.5 -161.5t-74 -137t-33 -121q0 -37 23.5 -64.5t62.5 -27.5q33 0 56.5 14.5t41 37t29.5 50t19 54.5l196 -74q-47 -135 -135 -202.5t-236 -67.5 q-57 0 -110 20.5t-94 57t-65.5 87t-24.5 109.5zM301 860v242h242v-242h-242z" />
<glyph unicode="&#xc0;" d="M25 0l272 1479h315l273 -1479h-246l-45 328h-279l-45 -328h-245zM161 1852h277l162 -295h-170zM352 549h205l-100 635h-4z" />
<glyph unicode="&#xc1;" d="M25 0l272 1479h315l273 -1479h-246l-45 328h-279l-45 -328h-245zM309 1557l162 295h276l-268 -295h-170zM352 549h205l-100 635h-4z" />
<glyph unicode="&#xc2;" d="M25 0l272 1479h315l273 -1479h-246l-45 328h-279l-45 -328h-245zM145 1557l197 295h225l197 -295h-189l-121 182l-121 -182h-188zM352 549h205l-100 635h-4z" />
<glyph unicode="&#xc3;" d="M25 0l272 1479h315l273 -1479h-246l-45 328h-279l-45 -328h-245zM121 1573q8 43 22 87t39 78t61.5 55.5t87.5 21.5q37 0 70 -12.5t64 -26.5t60.5 -27.5t61.5 -13.5q47 0 65.5 22.5t20.5 67.5h115q-8 -43 -22.5 -87t-39 -77.5t-61.5 -55t-88 -21.5q-37 0 -69.5 12 t-63.5 28t-60.5 27.5t-62.5 11.5q-47 0 -65.5 -22.5t-20.5 -67.5h-114zM352 549h205l-100 635h-4z" />
<glyph unicode="&#xc4;" d="M25 0l272 1479h315l273 -1479h-246l-45 328h-279l-45 -328h-245zM182 1581v222h221v-222h-221zM352 549h205l-100 635h-4zM506 1581v222h221v-222h-221z" />
<glyph unicode="&#xc5;" d="M25 0l272 1479h315l273 -1479h-246l-45 328h-279l-45 -328h-245zM245 1766q0 43 16.5 81t45.5 66.5t66.5 45t80.5 16.5t81 -16.5t66.5 -45t45 -66.5t16.5 -81t-16.5 -81t-45 -66.5t-66.5 -45t-81 -16.5t-80.5 16.5t-66.5 45t-45.5 66.5t-16.5 81zM348 1766 q0 -45 30.5 -76t75.5 -31t76 31t31 76t-31 75.5t-76 30.5t-75.5 -30.5t-30.5 -75.5zM352 549h205l-100 635h-4z" />
<glyph unicode="&#xc6;" horiz-adv-x="1478" d="M25 0l477 1479h870v-222h-434v-380h336v-222h-336v-434h463v-221h-717v348h-295l-106 -348h-258zM459 569h225v725h-4z" />
<glyph unicode="&#xc7;" horiz-adv-x="1024" d="M123 358v762q0 78 23.5 147.5t71.5 121t121 81t173 29.5q96 0 167 -31.5t117 -87t69.5 -129t23.5 -157.5v-109h-254v115q0 94 -37 136t-86 42q-78 0 -106.5 -40t-28.5 -124v-749q0 -84 28.5 -124t106.5 -40q70 0 96.5 39t26.5 110v178h254v-170q0 -78 -23.5 -147.5 t-69.5 -120.5t-117 -80.5t-167 -29.5q-100 0 -173 29.5t-121 80.5t-71.5 121t-23.5 147zM267 -436l34 102q25 -12 65 -23.5t69 -11.5q53 0 86.5 25t33.5 59q0 31 -18.5 47.5t-45 22.5t-56 2t-50.5 -12l-45 37l140 188h98l-84 -123q10 2 21.5 3t21.5 1q35 -2 67.5 -12 t59.5 -28.5t43 -47.5t16 -67q0 -49 -21.5 -88t-56 -66t-81 -41t-95.5 -14q-74 0 -127 18.5t-75 28.5z" />
<glyph unicode="&#xc8;" d="M123 0v1479h680v-222h-426v-380h328v-222h-328v-434h454v-221h-708zM186 1852h277l162 -295h-170z" />
<glyph unicode="&#xc9;" d="M123 0v1479h680v-222h-426v-380h328v-222h-328v-434h454v-221h-708zM334 1557l162 295h276l-268 -295h-170z" />
<glyph unicode="&#xca;" d="M123 0v1479h680v-222h-426v-380h328v-222h-328v-434h454v-221h-708zM170 1557l197 295h225l197 -295h-189l-121 182l-121 -182h-188z" />
<glyph unicode="&#xcb;" d="M123 0v1479h680v-222h-426v-380h328v-222h-328v-434h454v-221h-708zM207 1581v222h221v-222h-221zM531 1581v222h221v-222h-221z" />
<glyph unicode="&#xcc;" horiz-adv-x="569" d="M-9 1852h277l162 -295h-170zM158 0v1479h254v-1479h-254z" />
<glyph unicode="&#xcd;" horiz-adv-x="569" d="M139 1557l162 295h276l-268 -295h-170zM158 0v1479h254v-1479h-254z" />
<glyph unicode="&#xce;" horiz-adv-x="569" d="M-25 1557l197 295h225l197 -295h-189l-121 182l-121 -182h-188zM158 0v1479h254v-1479h-254z" />
<glyph unicode="&#xcf;" horiz-adv-x="569" d="M12 1581v222h221v-222h-221zM158 0v1479h254v-1479h-254zM336 1581v222h221v-222h-221z" />
<glyph unicode="&#xd0;" horiz-adv-x="1024" d="M41 655v222h82v602h377q199 0 300 -108.5t101 -338.5v-586q0 -229 -101.5 -337.5t-299.5 -108.5h-377v655h-82zM377 209h88q102 0 142 45t40 162v647q0 117 -40 162t-142 45h-88v-393h151v-222h-151v-446z" />
<glyph unicode="&#xd1;" horiz-adv-x="1024" d="M123 0v1479h235l310 -846h4v846h229v-1479h-221l-324 924h-4v-924h-229zM179 1573q8 43 22 87t39 78t61.5 55.5t87.5 21.5q37 0 70 -12.5t64 -26.5t60.5 -27.5t61.5 -13.5q47 0 65.5 22.5t20.5 67.5h115q-8 -43 -22.5 -87t-39 -77.5t-61.5 -55t-88 -21.5q-37 0 -69.5 12 t-63.5 28t-60.5 27.5t-62.5 11.5q-47 0 -65.5 -22.5t-20.5 -67.5h-114z" />
<glyph unicode="&#xd2;" horiz-adv-x="1024" d="M123 358v762q0 78 23.5 147.5t71.5 121t121 81t173 29.5t173 -29.5t121 -81t71.5 -121t23.5 -147.5v-762q0 -78 -23.5 -147.5t-71.5 -120.5t-121 -80.5t-173 -29.5t-173 29.5t-121 80.5t-71.5 121t-23.5 147zM219 1852h277l162 -295h-170zM377 365q0 -84 28.5 -124 t106.5 -40t106.5 40t28.5 124v749q0 84 -28.5 124t-106.5 40t-106.5 -40t-28.5 -124v-749z" />
<glyph unicode="&#xd3;" horiz-adv-x="1024" d="M123 358v762q0 78 23.5 147.5t71.5 121t121 81t173 29.5t173 -29.5t121 -81t71.5 -121t23.5 -147.5v-762q0 -78 -23.5 -147.5t-71.5 -120.5t-121 -80.5t-173 -29.5t-173 29.5t-121 80.5t-71.5 121t-23.5 147zM367 1557l162 295h276l-268 -295h-170zM377 365 q0 -84 28.5 -124t106.5 -40t106.5 40t28.5 124v749q0 84 -28.5 124t-106.5 40t-106.5 -40t-28.5 -124v-749z" />
<glyph unicode="&#xd4;" horiz-adv-x="1024" d="M123 358v762q0 78 23.5 147.5t71.5 121t121 81t173 29.5t173 -29.5t121 -81t71.5 -121t23.5 -147.5v-762q0 -78 -23.5 -147.5t-71.5 -120.5t-121 -80.5t-173 -29.5t-173 29.5t-121 80.5t-71.5 121t-23.5 147zM203 1557l197 295h225l197 -295h-189l-121 182l-121 -182 h-188zM377 365q0 -84 28.5 -124t106.5 -40t106.5 40t28.5 124v749q0 84 -28.5 124t-106.5 40t-106.5 -40t-28.5 -124v-749z" />
<glyph unicode="&#xd5;" horiz-adv-x="1024" d="M123 358v762q0 78 23.5 147.5t71.5 121t121 81t173 29.5t173 -29.5t121 -81t71.5 -121t23.5 -147.5v-762q0 -78 -23.5 -147.5t-71.5 -120.5t-121 -80.5t-173 -29.5t-173 29.5t-121 80.5t-71.5 121t-23.5 147zM179 1573q8 43 22 87t39 78t61.5 55.5t87.5 21.5 q37 0 70 -12.5t64 -26.5t60.5 -27.5t61.5 -13.5q47 0 65.5 22.5t20.5 67.5h115q-8 -43 -22.5 -87t-39 -77.5t-61.5 -55t-88 -21.5q-37 0 -69.5 12t-63.5 28t-60.5 27.5t-62.5 11.5q-47 0 -65.5 -22.5t-20.5 -67.5h-114zM377 365q0 -84 28.5 -124t106.5 -40t106.5 40 t28.5 124v749q0 84 -28.5 124t-106.5 40t-106.5 -40t-28.5 -124v-749z" />
<glyph unicode="&#xd6;" horiz-adv-x="1024" d="M123 358v762q0 78 23.5 147.5t71.5 121t121 81t173 29.5t173 -29.5t121 -81t71.5 -121t23.5 -147.5v-762q0 -78 -23.5 -147.5t-71.5 -120.5t-121 -80.5t-173 -29.5t-173 29.5t-121 80.5t-71.5 121t-23.5 147zM240 1581v222h221v-222h-221zM377 365q0 -84 28.5 -124 t106.5 -40t106.5 40t28.5 124v749q0 84 -28.5 124t-106.5 40t-106.5 -40t-28.5 -124v-749zM564 1581v222h221v-222h-221z" />
<glyph unicode="&#xd7;" horiz-adv-x="1228" d="M96 143l377 375l-377 377l142 141l376 -377l377 377l142 -141l-375 -377l375 -375l-142 -143l-377 377l-376 -377z" />
<glyph unicode="&#xd8;" horiz-adv-x="1024" d="M57 -246l142 361q-39 49 -57.5 110.5t-18.5 132.5v762q0 78 23.5 147.5t71.5 121t121 81t173 29.5q125 0 211 -49l78 197h166l-121 -312q29 -45 42 -100t13 -115v-762q0 -78 -23.5 -147.5t-71.5 -120.5t-121 -80.5t-173 -29.5q-104 0 -184 34l-103 -260h-168zM377 526h4 l258 666q-10 43 -40 64.5t-87 21.5q-78 0 -106.5 -40t-28.5 -124v-588zM403 248q25 -47 109 -47q78 0 106.5 40t28.5 124v503h-4z" />
<glyph unicode="&#xd9;" horiz-adv-x="1024" d="M123 373v1106h254v-1117q0 -162 135 -161q135 0 135 161v1117h254v-1106q0 -193 -103.5 -293t-285.5 -100t-285.5 100t-103.5 293zM219 1852h277l162 -295h-170z" />
<glyph unicode="&#xda;" horiz-adv-x="1024" d="M123 373v1106h254v-1117q0 -162 135 -161q135 0 135 161v1117h254v-1106q0 -193 -103.5 -293t-285.5 -100t-285.5 100t-103.5 293zM367 1557l162 295h276l-268 -295h-170z" />
<glyph unicode="&#xdb;" horiz-adv-x="1024" d="M123 373v1106h254v-1117q0 -162 135 -161q135 0 135 161v1117h254v-1106q0 -193 -103.5 -293t-285.5 -100t-285.5 100t-103.5 293zM203 1557l197 295h225l197 -295h-189l-121 182l-121 -182h-188z" />
<glyph unicode="&#xdc;" horiz-adv-x="1024" d="M123 373v1106h254v-1117q0 -162 135 -161q135 0 135 161v1117h254v-1106q0 -193 -103.5 -293t-285.5 -100t-285.5 100t-103.5 293zM240 1581v222h221v-222h-221zM564 1581v222h221v-222h-221z" />
<glyph unicode="&#xdd;" d="M20 1479h259l178 -564h4l170 564h258l-307 -865v-614h-254v614zM309 1557l162 295h276l-268 -295h-170z" />
<glyph unicode="&#xde;" horiz-adv-x="1024" d="M123 0v1479h254v-287h110q117 0 204 -23.5t143.5 -76t84 -135.5t27.5 -201q0 -236 -111.5 -336.5t-347.5 -100.5h-110v-319h-254zM377 528h98q61 0 103.5 11.5t68 37t35.5 69.5t10 110t-10 109.5t-35.5 70.5t-67.5 37t-104 10h-98v-455z" />
<glyph unicode="&#xdf;" d="M111 0v1106q0 193 85 289t240 96q102 0 170 -32t108 -86t55 -128t15 -158q0 -123 -34.5 -193.5t-114.5 -80.5v-4q98 -31 143 -122t45 -269q0 -121 -15 -202t-46 -129t-75 -67.5t-101 -19.5h-135v195q25 -6 55 -7q47 0 63.5 34t16.5 104v206q0 84 -33 122t-94 38v189 q31 4 49 12t28.5 24.5t14.5 43t4 67.5v143q0 72 -26.5 102t-79.5 30q-59 0 -84 -36t-25 -116v-1151h-229z" />
<glyph unicode="&#xe0;" d="M70 227q0 90 29.5 162t91 131.5t153.5 109.5t215 97v66q0 141 -113 141q-78 0 -102.5 -42t-28.5 -114h-229q10 168 108.5 256t260.5 88q160 0 246.5 -73.5t86.5 -225.5v-706q0 -27 5.5 -57.5t9.5 -59.5h-219q-2 23 -6.5 44.5t-6.5 41.5q-66 -53 -125 -79.5t-143 -26.5 q-117 0 -175 70.5t-58 176.5zM161 1528h277l162 -295h-170zM299 268q0 -53 26.5 -76.5t80.5 -23.5q47 0 85.5 30.5t67.5 71.5v289q-78 -45 -128 -82t-79.5 -71.5t-41 -67.5t-11.5 -70z" />
<glyph unicode="&#xe1;" d="M70 227q0 90 29.5 162t91 131.5t153.5 109.5t215 97v66q0 141 -113 141q-78 0 -102.5 -42t-28.5 -114h-229q10 168 108.5 256t260.5 88q160 0 246.5 -73.5t86.5 -225.5v-706q0 -27 5.5 -57.5t9.5 -59.5h-219q-2 23 -6.5 44.5t-6.5 41.5q-66 -53 -125 -79.5t-143 -26.5 q-117 0 -175 70.5t-58 176.5zM299 268q0 -53 26.5 -76.5t80.5 -23.5q47 0 85.5 30.5t67.5 71.5v289q-78 -45 -128 -82t-79.5 -71.5t-41 -67.5t-11.5 -70zM309 1233l162 295h276l-268 -295h-170z" />
<glyph unicode="&#xe2;" d="M70 227q0 90 29.5 162t91 131.5t153.5 109.5t215 97v66q0 141 -113 141q-78 0 -102.5 -42t-28.5 -114h-229q10 168 108.5 256t260.5 88q160 0 246.5 -73.5t86.5 -225.5v-706q0 -27 5.5 -57.5t9.5 -59.5h-219q-2 23 -6.5 44.5t-6.5 41.5q-66 -53 -125 -79.5t-143 -26.5 q-117 0 -175 70.5t-58 176.5zM145 1233l197 295h225l197 -295h-189l-121 182l-121 -182h-188zM299 268q0 -53 26.5 -76.5t80.5 -23.5q47 0 85.5 30.5t67.5 71.5v289q-78 -45 -128 -82t-79.5 -71.5t-41 -67.5t-11.5 -70z" />
<glyph unicode="&#xe3;" d="M70 227q0 90 29.5 162t91 131.5t153.5 109.5t215 97v66q0 141 -113 141q-78 0 -102.5 -42t-28.5 -114h-229q10 168 108.5 256t260.5 88q160 0 246.5 -73.5t86.5 -225.5v-706q0 -27 5.5 -57.5t9.5 -59.5h-219q-2 23 -6.5 44.5t-6.5 41.5q-66 -53 -125 -79.5t-143 -26.5 q-117 0 -175 70.5t-58 176.5zM121 1249q8 43 22 87t39 78t61.5 55.5t87.5 21.5q37 0 70 -12.5t64 -26.5t60.5 -27.5t61.5 -13.5q47 0 65.5 22.5t20.5 67.5h115q-8 -43 -22.5 -87t-39 -77.5t-61.5 -55t-88 -21.5q-37 0 -69.5 12t-63.5 28t-60.5 27.5t-62.5 11.5 q-47 0 -65.5 -22.5t-20.5 -67.5h-114zM299 268q0 -53 26.5 -76.5t80.5 -23.5q47 0 85.5 30.5t67.5 71.5v289q-78 -45 -128 -82t-79.5 -71.5t-41 -67.5t-11.5 -70z" />
<glyph unicode="&#xe4;" d="M70 227q0 90 29.5 162t91 131.5t153.5 109.5t215 97v66q0 141 -113 141q-78 0 -102.5 -42t-28.5 -114h-229q10 168 108.5 256t260.5 88q160 0 246.5 -73.5t86.5 -225.5v-706q0 -27 5.5 -57.5t9.5 -59.5h-219q-2 23 -6.5 44.5t-6.5 41.5q-66 -53 -125 -79.5t-143 -26.5 q-117 0 -175 70.5t-58 176.5zM182 1257v222h221v-222h-221zM299 268q0 -53 26.5 -76.5t80.5 -23.5q47 0 85.5 30.5t67.5 71.5v289q-78 -45 -128 -82t-79.5 -71.5t-41 -67.5t-11.5 -70zM506 1257v222h221v-222h-221z" />
<glyph unicode="&#xe5;" d="M70 227q0 90 29.5 162t91 131.5t153.5 109.5t215 97v66q0 141 -113 141q-78 0 -102.5 -42t-28.5 -114h-229q10 168 108.5 256t260.5 88q160 0 246.5 -73.5t86.5 -225.5v-706q0 -27 5.5 -57.5t9.5 -59.5h-219q-2 23 -6.5 44.5t-6.5 41.5q-66 -53 -125 -79.5t-143 -26.5 q-117 0 -175 70.5t-58 176.5zM245 1442q0 43 16.5 81t45.5 66.5t66.5 45t80.5 16.5t81 -16.5t66.5 -45t45 -66.5t16.5 -81t-16.5 -81t-45 -66.5t-66.5 -45t-81 -16.5t-80.5 16.5t-66.5 45t-45.5 66.5t-16.5 81zM299 268q0 -53 26.5 -76.5t80.5 -23.5q47 0 85.5 30.5 t67.5 71.5v289q-78 -45 -128 -82t-79.5 -71.5t-41 -67.5t-11.5 -70zM348 1442q0 -45 30.5 -76t75.5 -31t76 31t31 76t-31 75.5t-76 30.5t-75.5 -30.5t-30.5 -75.5z" />
<glyph unicode="&#xe6;" horiz-adv-x="1366" d="M70 227q0 90 29.5 162t91 131.5t152.5 109.5t214 97v66q0 141 -111 141q-78 0 -102.5 -42t-28.5 -114h-229q10 168 104.5 256t231.5 88q178 0 264 -102q41 53 103.5 77.5t140.5 24.5q92 0 155.5 -29.5t104.5 -84t59.5 -130t18.5 -165.5v-205h-482v-160q0 -96 32 -138 t93 -42t94 42t33 138v25h230q-2 -88 -21.5 -160t-62.5 -124t-109.5 -80.5t-163.5 -28.5q-102 0 -170.5 38.5t-107.5 104.5q-55 -49 -100.5 -78t-82 -43t-67.5 -18t-55 -4q-135 0 -196.5 70.5t-61.5 176.5zM299 268q0 -53 26.5 -76.5t80.5 -23.5q47 0 84.5 30.5t66.5 71.5 v289q-78 -45 -128 -82t-78.5 -71.5t-40 -67.5t-11.5 -70zM786 696h252v58q0 96 -32.5 138t-94.5 42q-61 0 -93 -42t-32 -138v-58z" />
<glyph unicode="&#xe7;" d="M98 389v324q0 90 18.5 165.5t61.5 130t110.5 84t166.5 29.5q96 0 163.5 -28.5t109.5 -80.5t61.5 -126t21.5 -162h-229v29q0 96 -33 138t-94 42t-94 -42t-33 -138v-406q0 -96 32.5 -138t94.5 -42q61 0 94 42t33 138v70h229v-29q0 -90 -18.5 -166t-61.5 -130t-110.5 -83.5 t-165.5 -29.5t-166 29.5t-111 83.5t-61.5 130t-18.5 166zM209 -436l34 102q25 -12 65 -23.5t69 -11.5q53 0 86.5 25t33.5 59q0 31 -18.5 47.5t-45 22.5t-56 2t-50.5 -12l-45 37l140 188h98l-84 -123q10 2 21.5 3t21.5 1q35 -2 67.5 -12t59.5 -28.5t43 -47.5t16 -67 q0 -49 -21.5 -88t-56 -66t-81 -41t-95.5 -14q-74 0 -127 18.5t-75 28.5z" />
<glyph unicode="&#xe8;" d="M98 389v324q0 90 18.5 165.5t61.5 130t110.5 84t166.5 29.5q98 0 165.5 -29.5t110.5 -84t61.5 -130t18.5 -165.5v-205h-483v-160q0 -96 32.5 -138t94.5 -42q61 0 94 42t33 138v25h229q-2 -88 -21.5 -160t-62.5 -124t-109.5 -80.5t-162.5 -28.5q-98 0 -166 29.5t-111 83.5 t-61.5 130t-18.5 166zM161 1528h277l162 -295h-170zM328 696h254v58q0 96 -33 138t-94 42t-94 -42t-33 -138v-58z" />
<glyph unicode="&#xe9;" d="M98 389v324q0 90 18.5 165.5t61.5 130t110.5 84t166.5 29.5q98 0 165.5 -29.5t110.5 -84t61.5 -130t18.5 -165.5v-205h-483v-160q0 -96 32.5 -138t94.5 -42q61 0 94 42t33 138v25h229q-2 -88 -21.5 -160t-62.5 -124t-109.5 -80.5t-162.5 -28.5q-98 0 -166 29.5t-111 83.5 t-61.5 130t-18.5 166zM309 1233l162 295h276l-268 -295h-170zM328 696h254v58q0 96 -33 138t-94 42t-94 -42t-33 -138v-58z" />
<glyph unicode="&#xea;" d="M98 389v324q0 90 18.5 165.5t61.5 130t110.5 84t166.5 29.5q98 0 165.5 -29.5t110.5 -84t61.5 -130t18.5 -165.5v-205h-483v-160q0 -96 32.5 -138t94.5 -42q61 0 94 42t33 138v25h229q-2 -88 -21.5 -160t-62.5 -124t-109.5 -80.5t-162.5 -28.5q-98 0 -166 29.5t-111 83.5 t-61.5 130t-18.5 166zM145 1233l197 295h225l197 -295h-189l-121 182l-121 -182h-188zM328 696h254v58q0 96 -33 138t-94 42t-94 -42t-33 -138v-58z" />
<glyph unicode="&#xeb;" d="M98 389v324q0 90 18.5 165.5t61.5 130t110.5 84t166.5 29.5q98 0 165.5 -29.5t110.5 -84t61.5 -130t18.5 -165.5v-205h-483v-160q0 -96 32.5 -138t94.5 -42q61 0 94 42t33 138v25h229q-2 -88 -21.5 -160t-62.5 -124t-109.5 -80.5t-162.5 -28.5q-98 0 -166 29.5t-111 83.5 t-61.5 130t-18.5 166zM182 1257v222h221v-222h-221zM328 696h254v58q0 96 -33 138t-94 42t-94 -42t-33 -138v-58zM506 1257v222h221v-222h-221z" />
<glyph unicode="&#xec;" horiz-adv-x="454" d="M-66 1528h277l162 -295h-170zM113 0v1102h229v-1102h-229z" />
<glyph unicode="&#xed;" horiz-adv-x="454" d="M82 1233l162 295h276l-268 -295h-170zM113 0v1102h229v-1102h-229z" />
<glyph unicode="&#xee;" horiz-adv-x="454" d="M-82 1233l197 295h225l197 -295h-189l-121 182l-121 -182h-188zM113 0v1102h229v-1102h-229z" />
<glyph unicode="&#xef;" horiz-adv-x="454" d="M-45 1257v222h221v-222h-221zM113 0v1102h229v-1102h-229zM279 1257v222h221v-222h-221z" />
<glyph unicode="&#xf0;" d="M98 356v287q0 84 18.5 153.5t61.5 119t110.5 77t166.5 27.5q18 0 35.5 -1t39.5 -3q-4 47 -22.5 88t-36.5 76l-215 -82l-55 147l190 72q-20 29 -43.5 58.5t-52.5 54.5l176 49q51 -37 96 -95l224 86l61 -143l-195 -76q68 -121 111 -276.5t43 -331.5v-287 q0 -84 -18.5 -153.5t-61.5 -118.5t-110.5 -76.5t-165.5 -27.5t-166 27.5t-111 76.5t-61.5 118.5t-18.5 153.5zM328 334q0 -88 32.5 -127t94.5 -39q61 0 94 39t33 127v332q0 88 -33 126.5t-94 38.5t-94 -38.5t-33 -126.5v-332z" />
<glyph unicode="&#xf1;" d="M111 0v1102h217v-111q37 31 65.5 55.5t59 41t67.5 25.5t86 9q92 0 142.5 -61.5t50.5 -169.5v-891h-230v854q0 41 -22.5 60.5t-59.5 19.5t-71.5 -20.5t-75.5 -49.5v-864h-229zM121 1249q8 43 22 87t39 78t61.5 55.5t87.5 21.5q37 0 70 -12.5t64 -26.5t60.5 -27.5 t61.5 -13.5q47 0 65.5 22.5t20.5 67.5h115q-8 -43 -22.5 -87t-39 -77.5t-61.5 -55t-88 -21.5q-37 0 -69.5 12t-63.5 28t-60.5 27.5t-62.5 11.5q-47 0 -65.5 -22.5t-20.5 -67.5h-114z" />
<glyph unicode="&#xf2;" d="M98 389v324q0 90 18.5 165.5t61.5 130t110.5 84t166.5 29.5q98 0 165.5 -29.5t110.5 -84t61.5 -130t18.5 -165.5v-324q0 -90 -18.5 -166t-61.5 -130t-110.5 -83.5t-165.5 -29.5t-166 29.5t-111 83.5t-61.5 130t-18.5 166zM161 1528h277l162 -295h-170zM328 348 q0 -96 32.5 -138t94.5 -42q61 0 94 42t33 138v406q0 96 -33 138t-94 42t-94 -42t-33 -138v-406z" />
<glyph unicode="&#xf3;" d="M98 389v324q0 90 18.5 165.5t61.5 130t110.5 84t166.5 29.5q98 0 165.5 -29.5t110.5 -84t61.5 -130t18.5 -165.5v-324q0 -90 -18.5 -166t-61.5 -130t-110.5 -83.5t-165.5 -29.5t-166 29.5t-111 83.5t-61.5 130t-18.5 166zM309 1233l162 295h276l-268 -295h-170zM328 348 q0 -96 32.5 -138t94.5 -42q61 0 94 42t33 138v406q0 96 -33 138t-94 42t-94 -42t-33 -138v-406z" />
<glyph unicode="&#xf4;" d="M98 389v324q0 90 18.5 165.5t61.5 130t110.5 84t166.5 29.5q98 0 165.5 -29.5t110.5 -84t61.5 -130t18.5 -165.5v-324q0 -90 -18.5 -166t-61.5 -130t-110.5 -83.5t-165.5 -29.5t-166 29.5t-111 83.5t-61.5 130t-18.5 166zM145 1233l197 295h225l197 -295h-189l-121 182 l-121 -182h-188zM328 348q0 -96 32.5 -138t94.5 -42q61 0 94 42t33 138v406q0 96 -33 138t-94 42t-94 -42t-33 -138v-406z" />
<glyph unicode="&#xf5;" d="M98 389v324q0 90 18.5 165.5t61.5 130t110.5 84t166.5 29.5q98 0 165.5 -29.5t110.5 -84t61.5 -130t18.5 -165.5v-324q0 -90 -18.5 -166t-61.5 -130t-110.5 -83.5t-165.5 -29.5t-166 29.5t-111 83.5t-61.5 130t-18.5 166zM121 1249q8 43 22 87t39 78t61.5 55.5t87.5 21.5 q37 0 70 -12.5t64 -26.5t60.5 -27.5t61.5 -13.5q47 0 65.5 22.5t20.5 67.5h115q-8 -43 -22.5 -87t-39 -77.5t-61.5 -55t-88 -21.5q-37 0 -69.5 12t-63.5 28t-60.5 27.5t-62.5 11.5q-47 0 -65.5 -22.5t-20.5 -67.5h-114zM328 348q0 -96 32.5 -138t94.5 -42q61 0 94 42t33 138 v406q0 96 -33 138t-94 42t-94 -42t-33 -138v-406z" />
<glyph unicode="&#xf6;" d="M98 389v324q0 90 18.5 165.5t61.5 130t110.5 84t166.5 29.5q98 0 165.5 -29.5t110.5 -84t61.5 -130t18.5 -165.5v-324q0 -90 -18.5 -166t-61.5 -130t-110.5 -83.5t-165.5 -29.5t-166 29.5t-111 83.5t-61.5 130t-18.5 166zM182 1257v222h221v-222h-221zM328 348 q0 -96 32.5 -138t94.5 -42q61 0 94 42t33 138v406q0 96 -33 138t-94 42t-94 -42t-33 -138v-406zM506 1257v222h221v-222h-221z" />
<glyph unicode="&#xf7;" horiz-adv-x="1228" d="M96 418v200h1037v-200h-1037zM451 94q0 68 48 116t115 48q68 0 116 -48t48 -116t-48 -116t-116 -48t-115.5 48t-47.5 116zM451 942q0 68 48 116t115 48q68 0 116 -48t48 -116t-48 -116t-116 -48t-115.5 48t-47.5 116z" />
<glyph unicode="&#xf8;" d="M86 -246l119 314q-57 55 -82 137t-25 184v324q0 90 18.5 165.5t61.5 130t110.5 84t166.5 29.5q78 0 145 -22l84 223h139l-110 -293q53 -55 75.5 -136t22.5 -181v-324q0 -90 -18.5 -166t-61.5 -130t-110.5 -83.5t-165.5 -29.5q-80 0 -142 22l-92 -248h-135zM328 354h4 l205 551q-29 29 -82 29q-61 0 -94 -42t-33 -138v-400zM377 193q35 -25 78 -25q61 0 94 42t33 138v375h-4z" />
<glyph unicode="&#xf9;" d="M111 211v891h229v-854q0 -41 22.5 -60.5t59.5 -19.5t71.5 20.5t75.5 49.5v864h230v-1102h-217v111q-37 -31 -66 -55.5t-59.5 -41t-67.5 -25.5t-86 -9q-92 0 -142 61t-50 170zM161 1528h277l162 -295h-170z" />
<glyph unicode="&#xfa;" d="M111 211v891h229v-854q0 -41 22.5 -60.5t59.5 -19.5t71.5 20.5t75.5 49.5v864h230v-1102h-217v111q-37 -31 -66 -55.5t-59.5 -41t-67.5 -25.5t-86 -9q-92 0 -142 61t-50 170zM309 1233l162 295h276l-268 -295h-170z" />
<glyph unicode="&#xfb;" d="M111 211v891h229v-854q0 -41 22.5 -60.5t59.5 -19.5t71.5 20.5t75.5 49.5v864h230v-1102h-217v111q-37 -31 -66 -55.5t-59.5 -41t-67.5 -25.5t-86 -9q-92 0 -142 61t-50 170zM145 1233l197 295h225l197 -295h-189l-121 182l-121 -182h-188z" />
<glyph unicode="&#xfc;" d="M111 211v891h229v-854q0 -41 22.5 -60.5t59.5 -19.5t71.5 20.5t75.5 49.5v864h230v-1102h-217v111q-37 -31 -66 -55.5t-59.5 -41t-67.5 -25.5t-86 -9q-92 0 -142 61t-50 170zM182 1257v222h221v-222h-221zM506 1257v222h221v-222h-221z" />
<glyph unicode="&#xfd;" horiz-adv-x="796" d="M20 1102h234l147 -705h5l139 705h231l-289 -1184q-18 -76 -44.5 -126t-65.5 -80.5t-88 -44t-115 -13.5h-96v188h55q86 0 119 45t33 133q0 35 -7.5 70t-17.5 76zM254 1233l162 295h276l-268 -295h-170z" />
<glyph unicode="&#xfe;" d="M111 -348v1827h229v-482h4q47 66 97.5 95.5t136.5 29.5q109 0 171 -77.5t62 -229.5v-528q0 -152 -62.5 -229.5t-170.5 -77.5q-37 0 -67 7t-56.5 22.5t-53 37t-61.5 47.5v-442h-229zM340 225q35 -25 65.5 -41t65.5 -16q47 0 79 35t32 143v410q0 109 -32 143.5t-79 34.5 q-35 0 -65.5 -16.5t-65.5 -40.5v-652z" />
<glyph unicode="&#xff;" horiz-adv-x="796" d="M20 1102h234l147 -705h5l139 705h231l-289 -1184q-18 -76 -44.5 -126t-65.5 -80.5t-88 -44t-115 -13.5h-96v188h55q86 0 119 45t33 133q0 35 -7.5 70t-17.5 76zM127 1257v222h221v-222h-221zM451 1257v222h221v-222h-221z" />
<glyph unicode="&#x152;" horiz-adv-x="1478" d="M123 451v577q0 219 108.5 335t321.5 116h819v-222h-442v-380h344v-222h-344v-434h471v-221h-848q-213 0 -321.5 115.5t-108.5 335.5zM377 420q0 -86 36 -140.5t122 -54.5q63 0 102 35t39 119v727q0 84 -39 119t-102 35q-86 0 -122 -54.5t-36 -140.5v-645z" />
<glyph unicode="&#x153;" horiz-adv-x="1366" d="M98 389v324q0 90 18.5 165.5t58.5 130t103.5 84t151.5 29.5q106 0 167.5 -30.5t94.5 -94.5q74 125 244 125q90 0 152.5 -29.5t102.5 -84t58.5 -130t18.5 -165.5v-205h-469v-160q0 -96 25.5 -138t86.5 -42t94 42t33 138v25h230q-2 -88 -21.5 -160t-59.5 -124t-102.5 -80.5 t-148.5 -28.5q-94 0 -153.5 33.5t-94.5 92.5q-33 -59 -93 -92.5t-165 -33.5q-88 0 -151.5 29.5t-103.5 83.5t-58.5 130t-18.5 166zM328 348q0 -96 32.5 -138t94.5 -42q53 0 83.5 42t30.5 138v406q0 96 -30.5 138t-83.5 42q-61 0 -94 -42t-33 -138v-406zM799 696h239v58 q0 96 -32.5 138t-94.5 42q-61 0 -86.5 -42t-25.5 -138v-58z" />
<glyph unicode="&#x178;" d="M20 1479h259l178 -564h4l170 564h258l-307 -865v-614h-254v614zM182 1581v222h221v-222h-221zM506 1581v222h221v-222h-221z" />
<glyph unicode="&#x2c6;" horiz-adv-x="454" d="M-82 1233l197 295h225l197 -295h-189l-121 182l-121 -182h-188z" />
<glyph unicode="&#x2dc;" horiz-adv-x="454" d="M-106 1249q8 43 22 87t39 78t61.5 55.5t87.5 21.5q37 0 70 -12.5t64 -26.5t60.5 -27.5t61.5 -13.5q47 0 65.5 22.5t20.5 67.5h115q-8 -43 -22.5 -87t-39 -77.5t-61.5 -55t-88 -21.5q-37 0 -69.5 12t-63.5 28t-60.5 27.5t-62.5 11.5q-47 0 -65.5 -22.5t-20.5 -67.5h-114z " />
<glyph unicode="&#x2000;" horiz-adv-x="987" />
<glyph unicode="&#x2001;" horiz-adv-x="1975" />
<glyph unicode="&#x2002;" horiz-adv-x="987" />
<glyph unicode="&#x2003;" horiz-adv-x="1975" />
<glyph unicode="&#x2004;" horiz-adv-x="658" />
<glyph unicode="&#x2005;" horiz-adv-x="493" />
<glyph unicode="&#x2006;" horiz-adv-x="329" />
<glyph unicode="&#x2007;" horiz-adv-x="329" />
<glyph unicode="&#x2008;" horiz-adv-x="246" />
<glyph unicode="&#x2009;" horiz-adv-x="395" />
<glyph unicode="&#x200a;" horiz-adv-x="109" />
<glyph unicode="&#x2010;" horiz-adv-x="681" d="M90 457v188h502v-188h-502z" />
<glyph unicode="&#x2011;" horiz-adv-x="681" d="M90 457v188h502v-188h-502z" />
<glyph unicode="&#x2012;" horiz-adv-x="681" d="M90 457v188h502v-188h-502z" />
<glyph unicode="&#x2013;" horiz-adv-x="1024" d="M0 477v148h1024v-148h-1024z" />
<glyph unicode="&#x2014;" horiz-adv-x="2048" d="M0 477v148h2048v-148h-2048z" />
<glyph unicode="&#x2018;" horiz-adv-x="454" d="M106 1004v241l142 254h108l-100 -254h92v-241h-242z" />
<glyph unicode="&#x2019;" horiz-adv-x="454" d="M98 983l101 254h-93v242h242v-242l-141 -254h-109z" />
<glyph unicode="&#x201a;" horiz-adv-x="454" d="M98 -254l101 254h-93v242h242v-242l-141 -254h-109z" />
<glyph unicode="&#x201c;" d="M143 1004v241l142 254h108l-100 -254h92v-241h-242zM522 1004v241l142 254h108l-100 -254h92v-241h-242z" />
<glyph unicode="&#x201d;" d="M137 983l101 254h-93v242h242v-242l-141 -254h-109zM516 983l100 254h-92v242h242v-242l-141 -254h-109z" />
<glyph unicode="&#x201e;" d="M137 -254l101 254h-93v242h242v-242l-141 -254h-109zM516 -254l100 254h-92v242h242v-242l-141 -254h-109z" />
<glyph unicode="&#x2022;" horiz-adv-x="1024" d="M141 739q0 78 29 144.5t79 117t117.5 79t143.5 28.5q78 0 144.5 -28.5t117.5 -79t80 -117t29 -144.5q0 -76 -29 -143.5t-80 -118.5t-117.5 -79.5t-144.5 -28.5q-76 0 -143.5 28.5t-117.5 79.5t-79 118.5t-29 143.5z" />
<glyph unicode="&#x2026;" horiz-adv-x="2048" d="M225 0v242h234v-242h-234zM907 0v242h234v-242h-234zM1589 0v242h234v-242h-234z" />
<glyph unicode="&#x202f;" horiz-adv-x="395" />
<glyph unicode="&#x2039;" horiz-adv-x="681" d="M129 553l236 313h202l-239 -315l233 -315h-196z" />
<glyph unicode="&#x203a;" horiz-adv-x="681" d="M115 866h202l236 -313l-236 -317h-196l233 315z" />
<glyph unicode="&#x205f;" horiz-adv-x="493" />
<glyph unicode="&#x2122;" horiz-adv-x="2027" d="M70 1325v154h688v-154h-246v-690h-197v690h-245zM866 635v844h279l211 -555l211 555h276v-844h-188v618h-4l-226 -618h-141l-225 618h-4v-618h-189z" />
<glyph unicode="&#xe000;" horiz-adv-x="1105" d="M0 0v1106h1106v-1106h-1106z" />
</font>
</defs>
</svg>
