<?xml version="1.0" encoding="utf-8"?>
<!-- Generator: Adobe Illustrator 16.0.0, SVG Export Plug-In . SVG Version: 6.00 Build 0)  -->
<!DOCTYPE svg PUBLIC "-//W3C//DTD SVG 1.1//EN" "http://www.w3.org/Graphics/SVG/1.1/DTD/svg11.dtd">
<svg version="1.1" id="Layer_1" xmlns="http://www.w3.org/2000/svg" xmlns:xlink="http://www.w3.org/1999/xlink" x="0px" y="0px"
	 width="106px" height="106px" viewBox="0 0 106 106" enable-background="new 0 0 106 106" xml:space="preserve">
<g>
	<g>
		<path fill="#FFFFFF" d="M0.186,0.17v51.237h2.791V2.934h100.048v65.308h2.79V0.17H0.186z M7.951,57.076H0.224v22.141h7.727
			c5.406,0,7.098-2.826,7.098-6.35v-9.441C15.048,59.901,13.357,57.076,7.951,57.076z M12.196,72.667
			c0,2.593-0.995,3.989-4.344,3.989H3.076V59.636h4.776c3.349,0,4.344,1.396,4.344,3.989V72.667z M27.517,56.744
			c-5.704,0-7.993,3.025-7.993,6.715v9.375c0,3.689,2.289,6.715,7.993,6.715s7.992-3.025,7.992-6.715v-9.375
			C35.509,59.77,33.221,56.744,27.517,56.744z M32.656,72.768c0,2.726-1.658,4.255-5.14,4.255c-3.483,0-5.142-1.529-5.142-4.255
			v-9.242c0-2.727,1.658-4.256,5.142-4.256c3.481,0,5.14,1.529,5.14,4.256V72.768z M47.646,76.723l-6.467-19.646h-2.753
			l7.297,22.141h3.847l7.296-22.141h-2.752L47.646,76.723z M73.281,59.636v-2.56h-13v22.141h13.033v-2.561H63.133v-7.513h9.418
			v-2.56h-9.418v-6.948H73.281z M95.234,79.217l-5.737-8.345c2.554-0.731,3.515-2.526,3.515-5.152v-3.191
			c0-3.392-1.658-5.452-6.4-5.452h-8.424v22.141h2.852v-8.012h5.406l5.506,8.012H95.234z M86.512,68.678h-5.473v-9.042h5.473
			c2.72,0,3.648,0.731,3.648,2.926v3.19C90.16,67.914,89.231,68.678,86.512,68.678z M7.951,83.637H0.224v22.14h7.727
			c5.406,0,7.098-2.825,7.098-6.35v-9.44C15.048,86.462,13.357,83.637,7.951,83.637z M12.196,99.228
			c0,2.593-0.995,3.989-4.344,3.989H3.076V86.196h4.776c3.349,0,4.344,1.396,4.344,3.989V99.228z M24,95.703h9.42v-2.56H24v-6.947
			h10.148v-2.56h-13v22.14h13.034v-2.56H24V95.703z M59.385,105.776h2.852v-22.14h-2.852V105.776z M102.994,102.585l-9.618-18.948
			h-3.913v22.14h2.719V86.928l9.618,18.849h3.913v-22.14h-2.719V102.585z M76.355,97.824h4.102v5.432h-5.893
			c-2.334,0-3.591-0.898-3.591-3.921v-9.258c0-3.022,1.257-3.921,3.591-3.921h7.869v-2.572h-8.049c-3.172,0-5.715,1.525-5.715,6.403
			v9.438c0,4.878,2.543,6.404,5.715,6.404h8.646V95.252h-6.675V97.824z M39.377,89.25h-0.022v0.447c0,0.062,0.004,0.117,0.005,0.178
			c-0.001,0.061-0.005,0.116-0.005,0.178v0.446h0.022c0.226,4.15,2.248,5.63,5.454,5.63h0.304v0.004h2.355
			c2.125,0,2.876,0.884,2.929,3.391c-0.053,2.532-0.804,3.751-2.929,3.751h-8.197v2.502h8.23c3.207,0,5.229-1.479,5.454-5.63H53
			v-0.447c0-0.062-0.004-0.117-0.005-0.178C52.996,99.461,53,99.406,53,99.345v-0.447h-0.022c-0.226-4.15-2.247-5.63-5.454-5.63
			h-1.4v-0.004h-1.259c-2.124,0-2.875-0.884-2.928-3.391c0.053-2.532,0.804-3.75,2.928-3.75h8.198v-2.502h-8.231
			C41.625,83.621,39.603,85.1,39.377,89.25z M50.43,96.943l0.004,2.578l-0.004,2.579V96.943z M41.926,92.454l-0.004-2.579
			l0.004-2.579V92.454z"/>
	</g>
</g>
<path fill="#DD6D26" d="M105.767,73.84v5.7h-5.699v-5.7H105.767z"/>
</svg>
