<?xml version="1.0" encoding="utf-8"?>
<!-- Generator: Adobe Illustrator 16.0.0, SVG Export Plug-In . SVG Version: 6.00 Build 0)  -->
<!DOCTYPE svg PUBLIC "-//W3C//DTD SVG 1.1//EN" "http://www.w3.org/Graphics/SVG/1.1/DTD/svg11.dtd">
<svg version="1.1" id="Layer_1" xmlns="http://www.w3.org/2000/svg" xmlns:xlink="http://www.w3.org/1999/xlink" x="0px" y="0px"
	 width="111px" height="111px" viewBox="252.898 -0.816 111 111" enable-background="new 252.898 -0.816 111 111"
	 xml:space="preserve">
<g>
	<g>
		<polygon fill="#FFFFFF" points="363.614,-0.315 253.183,-0.315 253.183,51.479 256.1,51.479 256.1,2.573 360.696,2.573 
			360.696,68.703 363.614,68.703 		"/>
	</g>
	<g>
		<rect x="357.688" y="74.63" fill="#DB5207" width="5.927" height="5.924"/>
	</g>
	<g>
		<path fill="#FFFFFF" d="M261.301,86.487c5.651,0,7.42,2.951,7.42,6.636v9.87c0,3.681-1.769,6.636-7.42,6.636h-8.078V86.487
			H261.301z M256.204,106.954h4.992c3.502,0,4.544-1.459,4.544-4.172v-9.451c0-2.709-1.042-4.169-4.544-4.169h-4.992V106.954z"/>
	</g>
	<g>
		<path fill="#FFFFFF" d="M275.099,86.487h13.59v2.675h-10.609v7.261h9.848V99.1h-9.848v7.854h10.646v2.675h-13.626V86.487z"/>
	</g>
	<g>
		<path fill="#FFFFFF" d="M261.301,57.406c5.651,0,7.42,2.953,7.42,6.637v9.866c0,3.686-1.769,6.637-7.42,6.637h-8.078v-23.14
			H261.301z M256.204,77.872h4.992c3.502,0,4.544-1.461,4.544-4.171v-9.449c0-2.713-1.042-4.17-4.544-4.17h-4.992V77.872z"/>
	</g>
	<g>
		<path fill="#FFFFFF" d="M290.112,73.875c0,3.857-2.393,7.021-8.356,7.021c-5.963,0-8.357-3.163-8.357-7.021v-9.797
			c0-3.858,2.395-7.021,8.357-7.021c5.964,0,8.356,3.163,8.356,7.021V73.875z M276.381,73.805c0,2.852,1.733,4.447,5.375,4.447
			c3.641,0,5.374-1.596,5.374-4.447v-9.657c0-2.853-1.733-4.448-5.374-4.448c-3.642,0-5.375,1.596-5.375,4.448V73.805z"/>
	</g>
	<g>
		<path fill="#FFFFFF" d="M293.16,57.406h2.879l6.76,20.535l6.763-20.535h2.878l-7.629,23.14h-4.021L293.16,57.406z"/>
	</g>
	<g>
		<path fill="#FFFFFF" d="M316.009,57.406H329.6v2.676H318.99v7.262h9.848v2.674h-9.848v7.854h10.645v2.674h-13.626V57.406z"/>
	</g>
	<g>
		<path fill="#FFFFFF" d="M343.365,72.173h-5.654v8.373h-2.979v-23.14h8.805c4.959,0,6.693,2.154,6.693,5.697v3.337
			c0,2.744-1.006,4.62-3.677,5.384l5.999,8.722h-3.432L343.365,72.173z M343.432,60.082h-5.721v9.449h5.721
			c2.844,0,3.814-0.799,3.814-3.057V63.14C347.246,60.847,346.275,60.082,343.432,60.082z"/>
	</g>
	<g>
		<path fill="#FFFFFF" d="M318.055,109.629h-2.981V86.487h2.981V109.629z"/>
	</g>
	<g>
		<path fill="#FFFFFF" d="M349.361,89.927v19.702h-2.844V86.487h4.093l10.054,19.805V86.487h2.843v23.142h-4.092L349.361,89.927z"/>
	</g>
	<g>
		<path fill="#FFFFFF" d="M337.104,96.457h-4.287v2.69h4.287v7.847h-6.163c-2.438,0-3.753-0.94-3.753-4.098V94.52v-1.3
			c0-3.161,1.314-4.098,3.753-4.098h8.228v-2.689h-8.414c-3.315,0-5.975,1.594-5.975,6.693v0.097v0.27v9.498
			c0,5.1,2.659,6.694,5.975,6.694h9.038v-0.275v-2.415v-7.847v-2.69H337.104z"/>
	</g>
	<g>
		<path fill="#FFFFFF" d="M299.605,89.179l8.573-0.007v-2.683h-8.586c-3.354,0-5.485,1.426-5.705,5.729v1.291
			c0.22,4.304,2.352,5.585,5.705,5.585h0.551h0.879h1.1h0.516c2.224,0,3.014,1.588,3.067,4.16c-0.054,2.598-0.838,3.699-3.06,3.699
			l-8.758-0.002v2.672h9.476c2.926,0,4.61-1.785,4.815-5.786v-1.29c-0.221-4.303-2.152-6.091-5.506-6.091h-3.045
			c-2.224,0-3.014-1.038-3.067-3.612C296.614,90.247,297.382,89.179,299.605,89.179z"/>
	</g>
</g>
</svg>
