<?xml version="1.0" encoding="utf-8"?>
<!-- Generator: Adobe Illustrator 16.0.0, SVG Export Plug-In . SVG Version: 6.00 Build 0)  -->
<!DOCTYPE svg PUBLIC "-//W3C//DTD SVG 1.1//EN" "http://www.w3.org/Graphics/SVG/1.1/DTD/svg11.dtd">
<svg version="1.1" id="Layer_1" xmlns="http://www.w3.org/2000/svg" xmlns:xlink="http://www.w3.org/1999/xlink" x="0px" y="0px"
	 width="50px" height="50px" viewBox="0 0 50 50" enable-background="new 0 0 50 50" xml:space="preserve">
<g>
	<path d="M5,45C5,31.666,5,18.333,5,5c13.333,0,26.666,0,40,0c0,13.333,0,26.666,0,40C31.666,45,18.333,45,5,45z M39.86,39.924
		c0-5.769,0-11.541,0-17.299c-1.071,0-2.065,0-3.073,0c1.302,8.067-4.654,14.148-11.479,14.354
		c-6.565,0.2-13.425-5.516-12.131-14.345c-1.033,0-2.058,0-3.069,0c0,5.823,0,11.53,0,17.291
		C20.045,39.924,29.894,39.924,39.86,39.924z M31.955,24.941c-0.029-3.82-3.157-6.909-6.981-6.896
		c-3.82,0.014-6.925,3.126-6.929,6.947c-0.004,3.875,3.169,7.01,7.047,6.963C28.909,31.909,31.985,28.766,31.955,24.941z
		 M39.914,10.098c-2.537,0-4.916,0-7.342,0c0,2.486,0,4.896,0,7.32c2.501,0,4.913,0,7.342,0
		C39.914,14.939,39.914,12.559,39.914,10.098z"/>
</g>
</svg>
