<?xml version="1.0" encoding="utf-8"?>
<!-- Generator: Adobe Illustrator 16.0.0, SVG Export Plug-In . SVG Version: 6.00 Build 0)  -->
<!DOCTYPE svg PUBLIC "-//W3C//DTD SVG 1.1//EN" "http://www.w3.org/Graphics/SVG/1.1/DTD/svg11.dtd">
<svg version="1.1" id="Layer_1" xmlns="http://www.w3.org/2000/svg" xmlns:xlink="http://www.w3.org/1999/xlink" x="0px" y="0px"
	 width="50px" height="50px" viewBox="0 0 50 50" enable-background="new 0 0 50 50" xml:space="preserve">
<g>
	<g>
		<path d="M7.873,42.25h6.431V16.375H7.873V42.25z M33.596,16.375c-5.506,0.093-8.214,4.128-8.574,4.312v-4.312h-6.431V42.25h6.431
			V27.156c0-0.555,1.357-4.986,6.43-4.312c2.728,0.18,4.196,3.805,4.286,4.312V42.25l6.408,0.029V24.365
			C41.92,21.779,40.635,16.468,33.596,16.375z M11.089,7.75c-1.776,0-3.216,1.448-3.216,3.234c0,1.786,1.439,3.234,3.216,3.234
			c1.775,0,3.215-1.448,3.215-3.234C14.304,9.198,12.864,7.75,11.089,7.75z"/>
	</g>
</g>
</svg>
