<?xml version="1.0" encoding="utf-8"?>
<!-- Generator: Adobe Illustrator 16.0.0, SVG Export Plug-In . SVG Version: 6.00 Build 0)  -->
<!DOCTYPE svg PUBLIC "-//W3C//DTD SVG 1.1//EN" "http://www.w3.org/Graphics/SVG/1.1/DTD/svg11.dtd">
<svg version="1.1" id="Layer_1" xmlns="http://www.w3.org/2000/svg" xmlns:xlink="http://www.w3.org/1999/xlink" x="0px" y="0px"
	 width="50px" height="50px" viewBox="0 0 50 50" enable-background="new 0 0 50 50" xml:space="preserve">
<path d="M42.195,14.334c-1.266,0.561-2.625,0.94-4.053,1.111c1.457-0.873,2.576-2.256,3.103-3.903
	c-1.363,0.809-2.873,1.396-4.48,1.712c-1.287-1.371-3.12-2.228-5.15-2.228c-3.896,0-7.055,3.159-7.055,7.055
	c0,0.553,0.062,1.091,0.183,1.608c-5.864-0.294-11.062-3.104-14.543-7.373c-0.607,1.043-0.955,2.254-0.955,3.548
	c0,2.448,1.245,4.607,3.138,5.873c-1.156-0.037-2.244-0.355-3.196-0.883c0,0.029,0,0.059,0,0.089c0,3.418,2.432,6.27,5.66,6.918
	c-0.592,0.161-1.216,0.247-1.859,0.247c-0.455,0-0.896-0.043-1.328-0.126c0.898,2.804,3.504,4.843,6.592,4.899
	c-2.415,1.893-5.458,3.02-8.763,3.02c-0.57,0-1.13-0.032-1.683-0.097c3.123,2.001,6.831,3.17,10.816,3.17
	c12.978,0,20.075-10.752,20.075-20.076c0-0.305-0.008-0.61-0.021-0.913C40.054,16.991,41.25,15.749,42.195,14.334z"/>
</svg>
